<svg width="168" height="135" viewBox="0 0 168 135" fill="none" xmlns="http://www.w3.org/2000/svg">
<circle cx="80" cy="67.9819" r="67" fill="#E08645"/>
<path d="M87.3768 62.5417C87.3768 62.5417 82.9999 51.5513 83.3445 48.5079C83.689 45.4646 90.1312 55.2851 90.1312 40.9325C90.1312 36.3587 97.8665 41.0073 98.6669 42.9204C99.4018 44.6818 99.9492 49.724 98.2962 54.8651C97.8644 56.2065 95.9605 62.9265 95.9605 62.9265L87.3768 62.5417Z" fill="#DBB37D"/>
<path d="M139.171 80.6283H128.208C126.211 80.6283 124.521 78.9395 124.254 76.6746L121.91 56.7454C121.587 54.0077 123.45 51.5757 125.864 51.5757H142.013C144.473 51.5757 146.346 54.0957 145.949 56.873L143.108 76.8022C142.794 79.0099 141.125 80.6305 139.171 80.6305V80.6283Z" fill="#EDCD9F"/>
<path d="M147.517 69.5282C147.834 67.2431 146.608 65.1812 144.778 64.9228C142.948 64.6645 141.208 66.3076 140.891 68.5928C140.573 70.878 141.799 72.9399 143.629 73.1982C145.459 73.4565 147.199 71.8134 147.517 69.5282Z" fill="#EDCD9F"/>
<path d="M123.8 73.2066C125.629 72.9482 126.856 70.8863 126.538 68.6012C126.221 66.316 124.48 64.6729 122.651 64.9312C120.821 65.1895 119.595 67.2514 119.912 69.5366C120.229 71.8218 121.97 73.4649 123.8 73.2066Z" fill="#EDCD9F"/>
<path d="M131.931 53.636C131.931 53.636 135.848 49.6646 139.339 54.0296C142.831 58.3945 145.005 64.8858 145.005 64.8858C145.005 64.8858 147.365 64.8155 148.736 61.064C149.737 58.3263 149.284 54.72 148.307 50.9532C147.633 48.3563 146.621 45.9198 144.205 43.9803C139.727 40.3872 134.173 38.9821 130.601 43.9803L131.929 53.636H131.931Z" fill="#2C2721"/>
<path d="M131.931 53.6359L129.846 53.2995C128.921 53.1499 127.685 52.9498 125.864 55.9536C124.043 58.9574 123.232 66.3173 123.232 66.3173C123.232 66.3173 118.973 62.9551 118.054 56.7364C117.134 50.52 123.223 40.0573 130.603 43.9803L131.931 53.6359Z" fill="#2C2721"/>
<path d="M141.492 91.5286C140.412 91.0096 139.708 89.908 139.708 88.6765V79.4541H127.931V88.6765C127.931 89.9168 127.214 91.025 126.121 91.5396L133.8 97.6131L141.492 91.5286Z" fill="#EDCD9F"/>
<path d="M141.919 67.1729C141.919 67.8831 140.859 67.1729 139.549 67.1729C138.238 67.1729 137.178 67.8831 137.178 67.1729C137.178 66.4626 138.238 65.8887 139.549 65.8887C140.859 65.8887 141.919 66.4648 141.919 67.1729Z" fill="#2C2721"/>
<path d="M130.603 67.1729C130.603 67.8831 129.543 67.1729 128.232 67.1729C126.922 67.1729 125.862 67.8831 125.862 67.1729C125.862 66.4626 126.922 65.8887 128.232 65.8887C129.543 65.8887 130.603 66.4648 130.603 67.1729Z" fill="#2C2721"/>
<path d="M131.17 74.1367C131.17 74.1367 133.806 77.4352 137.18 73.4814" stroke="#2C2721" stroke-width="1.08" stroke-linecap="round" stroke-linejoin="round"/>
<path d="M162.508 98.6442C160.271 97.7295 149.903 93.7713 144.883 92.1265L138.301 102.11L133.8 97.6151L131.809 99.8669L122.719 92.1287C122.719 92.1287 117.939 92.7796 111.706 91.1678C103.146 88.9534 93.6118 84.6984 95.9649 62.9309L86.7771 61.6357C86.7771 61.6357 78.7996 73.2902 79.7723 88.2586C80.1692 94.3695 82.4503 100.058 85.5994 105.125C94.7742 119.886 110.98 128.693 128.256 128.693H168C168 128.693 167.105 100.522 162.51 98.6464L162.508 98.6442Z" fill="#568E8D"/>
<path d="M125.648 91.1636L122.717 92.1267L123.029 92.5643L129.822 102.108L133.8 97.6131L126.121 91.5396L125.648 91.1636Z" fill="white"/>
<path d="M141.952 91.1636L141.492 91.5286L133.8 97.6131L138.301 102.108L144.597 92.5599L144.883 92.1267L141.952 91.1636Z" fill="white"/>
<path d="M12.4917 104.937C14.7293 104.022 25.0969 100.064 30.1171 98.4195L36.6989 108.403L41.2001 103.908L43.1912 106.16L52.2808 98.4217C52.2808 98.4217 57.0612 99.0726 63.294 97.4608C71.8537 95.2464 74.0781 84.4034 77.4933 67.9288L86.077 67.5439C86.077 67.5439 90.1224 84.6277 89.1498 99.596C88.7529 105.707 86.4717 111.396 83.3226 116.462C74.1479 131.224 56.5029 134.986 46.7415 134.986H0C0 134.986 7.89675 106.815 12.4917 104.939V104.937Z" fill="#D0E2E1"/>
<path d="M33.0481 97.4565L33.5083 97.8194L41.2001 103.906L36.6988 108.401L30.4028 98.8507L30.1171 98.4175L33.0481 97.4565Z" fill="white"/>
<path d="M86.0813 67.5398C86.0813 67.5398 90.4583 56.5494 90.1137 53.506C89.7691 50.4626 83.327 60.2832 83.327 45.9306C83.327 41.3567 75.5916 46.0053 74.7912 47.9184C74.0563 49.6798 73.5089 54.722 75.162 59.8632C75.5938 61.2046 77.4976 67.9246 77.4976 67.9246L86.0813 67.5398Z" fill="#EDCD9F"/>
<path d="M49.1099 81.3579L44.1834 99.9787L35.7938 95.3411L39.5383 79.1128L49.1099 81.3579Z" fill="#EDCD9F"/>
<path d="M63.5142 74.0155C62.2145 72.1442 61.5101 69.8771 61.7412 67.6056C62.8469 56.7647 54.5881 48.3647 41.3811 48.9958C32.7145 49.4092 27.4762 55.9159 27.8883 64.6546C27.3868 69.4571 33.6348 82.0241 37.8329 83.0796C42.3974 84.2253 56.6686 85.5051 58.2846 85.5381C59.833 85.5711 60.6726 76.9687 60.6726 76.9687L63.3856 76.6147C64.1925 76.5092 64.5981 75.579 64.1314 74.9083L63.5121 74.0155H63.5142Z" fill="#EDCD9F"/>
<path d="M63.2155 63.1549C64.6199 61.686 65.4268 57.9786 62.9581 53.5037C58.4395 45.3192 51.1206 46.931 48.3597 45.9283C35.796 41.3676 21.3393 48.9431 22.5017 61.0527C25.9932 97.4543 51.8817 71.7705 54.804 61.3034L63.2155 63.1549Z" fill="#2C2721"/>
<path d="M58.5613 69.4053C58.7838 68.4413 58.5771 67.569 58.0996 67.4569C57.6222 67.3449 57.0548 68.0356 56.8323 68.9996C56.6098 69.9636 56.8165 70.8359 57.2939 70.948C57.7714 71.06 58.3388 70.3693 58.5613 69.4053Z" fill="#2C2721"/>
<path d="M54.0124 77.4351C54.0124 77.4351 54.5489 81.7186 58.9999 79.1634" stroke="#2C2721" stroke-width="2.38" stroke-linecap="round" stroke-linejoin="round"/>
<path d="M51.3191 73.0371C51.897 70.533 51.0417 68.1924 49.4088 67.8093C47.7758 67.4261 45.9836 69.1455 45.4057 71.6495C44.8277 74.1536 45.683 76.4942 47.316 76.8774C48.9489 77.2605 50.7411 75.5412 51.3191 73.0371Z" fill="#EDCD9F"/>
<path d="M19.9981 84.399C26.6033 84.399 31.9578 78.9999 31.9578 72.3399C31.9578 65.6798 26.6033 60.2808 19.9981 60.2808C13.393 60.2808 8.03851 65.6798 8.03851 72.3399C8.03851 78.9999 13.393 84.399 19.9981 84.399Z" fill="#2C2721"/>
<path d="M12.4917 104.937C14.7293 104.022 25.0969 100.064 30.1171 98.4195L35.7938 95.3432L44.1834 99.9808L45.4112 95.3432C45.4112 95.3432 57.0634 99.0704 63.2962 97.4564C71.8559 95.2421 74.0803 84.399 77.4955 67.9244L86.0792 67.5396C86.0792 67.5396 90.1246 84.6233 89.152 99.5916C88.7551 105.703 86.4739 111.391 83.3248 116.458C74.1501 131.219 56.5051 134.982 46.7437 134.982H0C0 134.982 7.89675 106.811 12.4917 104.935V104.937Z" fill="#9FD1CD"/>
<path d="M35.7938 95.3413L44.1834 99.9789L40.4084 114.028L30.4028 98.8509L30.1171 98.4177L35.7938 95.3413Z" fill="white"/>
<path d="M86.0813 67.5398C86.0813 67.5398 90.4583 56.5494 90.1137 53.506C89.7691 50.4626 83.327 60.2832 83.327 45.9306C83.327 41.3567 75.5916 46.0053 74.7912 47.9184C74.0563 49.6798 73.5089 54.722 75.162 59.8632C75.5938 61.2046 77.4976 67.9246 77.4976 67.9246L86.0813 67.5398Z" fill="#EDCD9F"/>
<path d="M49.1099 81.3579L44.1834 99.9787L35.7938 95.3411L39.5383 79.1128L49.1099 81.3579Z" fill="#EDCD9F"/>
<path d="M63.5142 74.0155C62.2145 72.1442 61.5101 69.8771 61.7412 67.6056C62.8469 56.7647 54.5881 48.3647 41.3811 48.9958C32.7145 49.4092 27.4762 55.9159 27.8883 64.6546C27.3868 69.4571 33.6348 82.0241 37.8329 83.0796C42.3974 84.2253 56.6686 85.5051 58.2846 85.5381C59.833 85.5711 60.6726 76.9687 60.6726 76.9687L63.3856 76.6147C64.1925 76.5092 64.5981 75.579 64.1314 74.9083L63.5121 74.0155H63.5142Z" fill="#EDCD9F"/>
<path d="M63.2155 63.1549C64.6199 61.686 65.4268 57.9786 62.9581 53.5037C58.4395 45.3192 51.1206 46.931 48.3597 45.9283C35.796 41.3676 21.3393 48.9431 22.5017 61.0527C25.9932 97.4543 51.8817 71.7705 54.804 61.3034L63.2155 63.1549Z" fill="#2C2721"/>
<path d="M58.5613 69.4053C58.7838 68.4413 58.5771 67.569 58.0996 67.4569C57.6222 67.3449 57.0548 68.0356 56.8323 68.9996C56.6098 69.9636 56.8165 70.8359 57.2939 70.948C57.7714 71.06 58.3388 70.3693 58.5613 69.4053Z" fill="#2C2721"/>
<path d="M54.0124 77.4351C54.0124 77.4351 54.5489 81.7186 58.9999 79.1634" stroke="#2C2721" stroke-width="1.08" stroke-linecap="round" stroke-linejoin="round"/>
<path d="M51.3191 73.0371C51.897 70.533 51.0417 68.1924 49.4088 67.8093C47.7758 67.4261 45.9836 69.1455 45.4057 71.6495C44.8277 74.1536 45.683 76.4942 47.316 76.8774C48.9489 77.2605 50.7411 75.5412 51.3191 73.0371Z" fill="#EDCD9F"/>
<path d="M11.5357 96.2135C16.2499 96.2135 20.0715 92.3601 20.0715 87.6067C20.0715 82.8534 16.2499 79 11.5357 79C6.82158 79 3 82.8534 3 87.6067C3 92.3601 6.82158 96.2135 11.5357 96.2135Z" fill="#2C2721"/>
<path d="M14.7419 110.613C19.0177 110.613 22.4838 107.118 22.4838 102.806C22.4838 98.495 19.0177 95 14.7419 95C10.4662 95 7 98.495 7 102.806C7 107.118 10.4662 110.613 14.7419 110.613Z" fill="#2C2721"/>
<path d="M44.1834 99.9789L52.7737 106.688V97.1489L45.4112 95.3413L44.1834 99.9789Z" fill="#D8E5E4"/>
</svg>
