<svg width="1345" height="279" viewBox="0 0 1345 279" fill="none" xmlns="http://www.w3.org/2000/svg">
<g clip-path="url(#clip0_358_7582)">
<path d="M1091.75 71.5361L1124.01 103.55C1125.43 104.961 1125.15 107.336 1123.43 108.372C1122.35 109.026 1120.97 108.945 1119.97 108.169L1085.53 81.4733L1091.75 71.5412V71.5361Z" fill="#9B8A78"/>
<path d="M1106.78 82.9755C1106.78 82.9755 1105.26 83.1176 1105.07 80.8135" stroke="#2C2721" stroke-width="1.43" stroke-linecap="round" stroke-linejoin="round"/>
<path d="M1036.4 135.741C1053.14 140.538 1063.51 128.753 1068.18 115.304L1081.47 80.3564C1083.7 83.8634 1086.97 90.2225 1086.38 96.6375C1085.48 106.235 1080.18 114.487 1078.63 118.938C1077.96 120.881 1076.27 122.531 1073.89 123.51C1062.45 149.409 1042.9 147.841 1033.71 145.369C1030.9 144.613 1029.33 141.639 1030.28 138.893C1031.15 136.376 1033.84 135.006 1036.4 135.736V135.741Z" fill="#2C2721"/>
<path d="M1030.28 138.899C1031.15 136.381 1033.84 135.011 1036.4 135.742C1039.86 136.732 1043.04 137.006 1045.97 136.711C1046.98 139.482 1047.34 143.263 1044.1 146.643C1040.05 146.755 1036.43 146.105 1033.71 145.375C1030.9 144.618 1029.33 141.644 1030.28 138.899Z" fill="#D6E1E1"/>
<path d="M1094.29 64.776C1097.32 62.3856 1101.28 61.9847 1104.61 63.3753C1106.58 62.3856 1110.06 61.1574 1113.01 62.817L1108.56 66.329C1108.6 66.3848 1108.65 66.4406 1108.69 66.4965L1110.3 68.5418C1111.34 70.4145 1111.57 71.9624 1111.48 73.3175C1109.67 75.2257 1107.21 77.3268 1105.62 76.7178C1102.85 75.6571 1101.74 75.2003 1099.27 73.9468C1097.77 73.1906 1092.83 71.1758 1089.16 69.704L1094.28 64.776H1094.29Z" fill="#2C2721"/>
<path d="M1106.11 74.0995C1105.9 73.9295 1106 73.4494 1106.34 73.0273C1106.68 72.6051 1107.12 72.4006 1107.33 72.5706C1107.54 72.7406 1107.44 73.2207 1107.1 73.6429C1106.77 74.065 1106.32 74.2695 1106.11 74.0995Z" fill="#FFFF00"/>
<path d="M1078.63 118.943C1080.18 114.492 1085.48 106.235 1086.38 96.6428C1086.97 90.2227 1083.7 83.8686 1081.47 80.3617C1082.75 76.9918 1084.75 73.9518 1087.35 71.4548L1089.16 69.709C1092.84 71.1808 1097.78 73.1956 1099.27 73.9518C1101.74 75.2054 1102.86 75.6621 1105.63 76.7228C1107.21 77.3319 1109.67 75.2307 1111.48 73.3225C1111.38 74.7029 1110.96 75.8804 1110.72 76.9918C1110.58 77.6211 1110.71 78.2809 1111.03 78.8341C1111.76 79.7933 1111.59 81.1585 1110.64 81.9046C1110.64 81.9046 1110.75 83.9397 1103.22 83.6606C1103.22 83.6606 1089.97 107.889 1096.36 114.649C1107.26 126.185 1093.71 133.635 1097.49 139.299C1101.27 144.963 1109.16 149.302 1109.38 152.748C1109.6 156.195 1103.92 158.641 1093.38 148.242C1082.84 137.848 1073.63 139.35 1068.51 127.469C1068.16 126.48 1067.89 125.47 1067.71 124.449C1073.27 124.805 1077.47 122.313 1078.63 118.948V118.943Z" fill="#D6E1E1"/>
<path d="M1103.22 83.6455L1117.55 117.938C1118.42 119.74 1117.37 121.887 1115.4 122.293C1114.16 122.552 1112.89 122.014 1112.2 120.948L1088.59 84.3053L1103.22 83.6506V83.6455Z" fill="#D6E1E1"/>
<path d="M1110.64 81.8947C1110.64 81.8947 1109.16 81.0725 1111.03 78.8242L1111.5 79.2353C1112.03 79.9103 1111.92 80.8898 1111.24 81.4227L1110.64 81.8947H1110.64Z" fill="#2C2721"/>
<path d="M1104.19 79.1592L1098.7 77.0073" stroke="#2C2721" stroke-width="0.73" stroke-linecap="round" stroke-linejoin="round"/>
<path d="M1104.08 80.7627L1098.42 82.4223" stroke="#2C2721" stroke-width="0.73" stroke-linecap="round" stroke-linejoin="round"/>
<path d="M1129.18 95.5977L1132.68 109.148L1139.21 107.321V95.5977H1129.18Z" fill="#EDCD9F"/>
<path d="M1123.48 88.2539C1124.67 87.183 1125.52 85.7417 1125.72 84.1481C1126.69 76.5455 1133.72 72.1149 1142.73 74.6728C1148.64 76.3476 1151.22 81.6461 1149.54 87.5688C1149.12 90.9387 1139.75 98.592 1139.75 98.592C1136.42 98.6427 1126.37 97.2268 1125.25 96.9882C1124.13 96.7497 1124.97 90.7356 1124.97 90.7356L1123.15 90.0556C1122.62 89.8526 1122.48 89.1522 1122.91 88.7665L1123.48 88.2539Z" fill="#EDCD9F"/>
<path d="M1136.35 86.2695L1151.32 89.543C1151.32 91.8319 1139.75 98.592 1139.75 98.592C1135.42 95.2779 1136.35 86.2695 1136.35 86.2695Z" fill="#2C2721"/>
<path d="M1139.21 104.859C1133.46 104.859 1119.54 115.055 1120.43 123.338C1121.92 137.259 1129.95 150.201 1129.95 150.201L1153.31 147.46C1153.31 147.46 1150.55 134.696 1150.15 124.358C1149.74 114.025 1148.68 104.864 1139.21 104.859Z" fill="#672622"/>
<path d="M1128.26 87.1525C1127.91 87.1525 1127.63 86.589 1127.63 85.8939C1127.63 85.1988 1127.91 84.6353 1128.26 84.6353C1128.6 84.6353 1128.89 85.1988 1128.89 85.8939C1128.89 86.589 1128.6 87.1525 1128.26 87.1525Z" fill="#2C2721"/>
<path d="M1129.49 92.126C1129.49 92.126 1128.44 94.9731 1125.77 92.5066" stroke="#2C2721" stroke-width="0.73" stroke-linecap="round" stroke-linejoin="round"/>
<path d="M1136.35 92.8165C1135.16 92.8165 1134.2 91.3509 1134.2 89.543C1134.2 87.7351 1135.16 86.2695 1136.35 86.2695C1137.54 86.2695 1138.5 87.7351 1138.5 89.543C1138.5 91.3509 1137.54 92.8165 1136.35 92.8165Z" fill="#EDCD9F"/>
<path d="M1127.32 79.4227C1127.32 79.4227 1123.68 71.1807 1125.77 69.9018C1127.87 68.6228 1147.37 66.8719 1147.99 78.0068C1147.99 78.0068 1127.63 73.9467 1127.32 79.4227H1127.32Z" fill="#2C2721"/>
<path d="M1129.49 76.8296C1129.49 76.8296 1133.4 73.8251 1134.2 78.007C1134.99 82.1889 1132.55 89.1723 1141.14 91.0501C1149.72 92.9279 1154.81 89.5428 1154.81 89.5428C1154.81 89.5428 1151.65 83.4069 1152.3 76.9869C1152.94 70.5668 1136.07 64.8928 1129.49 76.8296Z" fill="#2C2721"/>
<path d="M1129.96 150.196L1142.15 180.322L1151.31 250.283L1182.34 250.501C1182.34 250.501 1174.69 216.751 1169.06 187.143C1165.68 169.38 1160.44 151.429 1153.31 147.455L1129.96 150.196Z" fill="#207970"/>
<path d="M1130.04 150.436L1097.71 250.573L1131.97 250.741C1131.97 250.741 1135.81 226.791 1140.74 199.324C1143.83 182.15 1158.82 164.083 1153.39 147.69L1130.04 150.431L1130.04 150.436Z" fill="#57A69D"/>
<path d="M1139.75 98.5918C1139.75 98.5918 1152.09 104.027 1159.94 127.53C1167.79 151.033 1174.21 173.181 1174.21 173.181C1174.21 173.181 1161.41 175.653 1147.45 176.236C1132.7 176.851 1120.4 165.041 1120.41 150.257L1120.43 123.338C1120.43 123.338 1121.16 101.002 1139.75 98.5918Z" fill="#E08645"/>
<path d="M1147.44 176.236C1132.69 176.851 1120.4 165.041 1120.41 150.257" stroke="#2C2721" stroke-width="2" stroke-linecap="round" stroke-linejoin="round"/>
<path d="M1088.26 86.1172C1088.26 86.1172 1087.97 80.4229 1086.58 78.8446C1085.19 77.2713 1082.48 78.2558 1081.6 79.007C1080.1 80.2656 1078.97 80.7274 1079.56 83.3361C1080.24 86.3304 1084.18 89.2892 1084.18 89.2892L1088.26 86.1172Z" fill="#EDCD9F"/>
<path d="M1145 106.565C1142.59 102.256 1135.51 100.683 1123.97 101.495C1112.43 102.307 1100.31 97.937 1091.75 89.5529L1088.25 86.1221L1084.17 89.294C1084.17 89.294 1090.38 111.082 1105.94 117.177C1120.73 122.973 1151.52 118.207 1145 106.57V106.565Z" fill="#E08645"/>
<path d="M1084.18 89.2891C1084.18 89.2891 1090.38 111.077 1105.94 117.172C1113.23 120.024 1122.62 120.004 1129.49 117.857" fill="#E08645"/>
<path d="M1084.18 89.2891C1084.18 89.2891 1090.38 111.077 1105.94 117.172C1113.23 120.024 1122.62 120.004 1129.49 117.857" stroke="#2C2721" stroke-width="2" stroke-linecap="round" stroke-linejoin="round"/>
<path d="M1129.96 150.196L1145.9 148.328L1146.48 151.353L1130.53 153.292L1129.96 150.196Z" stroke="#2C2721" stroke-width="2" stroke-linecap="round" stroke-linejoin="round"/>
<path d="M1149.94 250.339L1173.53 250.465L1176.61 263.844H1135C1135.59 258.814 1138.3 250.369 1149.94 250.333V250.339Z" fill="#663C3B"/>
<path d="M1177.44 267.498H1134.89C1134.89 267.498 1134.76 265.975 1135 263.849H1176.61L1177.44 267.498Z" fill="#C69C6D"/>
<path d="M1119.72 263.844L1118.92 267.493H1076.36C1076.36 267.493 1076.23 265.97 1076.48 263.844H1119.72Z" fill="#C69C6D"/>
<path d="M1091.4 250.339L1122.65 250.465L1119.71 263.844H1076.47C1077.05 258.814 1079.76 250.369 1091.4 250.333L1091.4 250.339Z" fill="#663C3B"/>
</g>
<g clip-path="url(#clip1_358_7582)">
<path d="M165 90.0801C165 79.3648 159.281 69.9185 150.596 64.3659C147.798 62.577 147.798 58.4666 150.596 56.6715C159.281 51.1127 165 41.6726 165 30.9573C165 13.8599 150.448 0 132.497 0C114.546 0 100 13.8599 100 30.9573C100 41.6726 105.719 51.1189 114.404 56.6715C117.202 58.4605 117.202 62.5708 114.404 64.3659C105.719 69.9185 100 79.3648 100 90.0801C100 100.795 106.128 110.892 115.326 116.358C118.285 118.116 118.285 122.474 115.326 124.232C106.128 129.691 100 139.416 100 150.509C100 167.606 114.552 181.466 132.497 181.466C150.441 181.466 164.994 167.606 164.994 150.509C164.994 139.416 158.866 129.698 149.668 124.232C146.709 122.474 146.709 118.116 149.668 116.358C158.872 110.892 164.994 101.173 164.994 90.0801H165Z" fill="#568E8D"/>
<path d="M132.497 41.3135V265.381" stroke="#317165" stroke-width="2" stroke-linecap="round" stroke-linejoin="round"/>
</g>
<g clip-path="url(#clip2_358_7582)">
<path d="M86 140.343C86 132.689 81.8644 125.942 75.5849 121.976C73.5618 120.698 73.5618 117.762 75.5849 116.48C81.8644 112.509 86 105.766 86 98.1124C86 85.8999 75.4775 76 62.4978 76C49.518 76 39 85.8999 39 98.1124C39 105.766 43.1356 112.513 49.4151 116.48C51.4381 117.757 51.4381 120.693 49.4151 121.976C43.1356 125.942 39 132.689 39 140.343C39 147.997 43.431 155.208 50.082 159.113C52.2214 160.368 52.2214 163.481 50.082 164.737C43.431 168.637 39 175.583 39 183.506C39 195.719 49.5225 205.619 62.4978 205.619C75.473 205.619 85.9955 195.719 85.9955 183.506C85.9955 175.583 81.5645 168.641 74.9135 164.737C72.7741 163.481 72.7741 160.368 74.9135 159.113C81.569 155.208 85.9955 148.266 85.9955 140.343H86Z" fill="#7E9F89"/>
<path d="M62.4978 105.51V265.558" stroke="#317165" stroke-width="2" stroke-linecap="round" stroke-linejoin="round"/>
</g>
<g clip-path="url(#clip3_358_7582)">
<path d="M34.832 249.578C15.5938 249.578 0 256.93 0 266H69.664C69.664 256.93 54.0702 249.578 34.832 249.578Z" fill="#6BAAA7"/>
<path d="M109.857 240C79.4022 240 54.715 251.64 54.715 266H165C165 251.64 140.313 240 109.857 240Z" fill="#568E8D"/>
</g>
<g clip-path="url(#clip4_358_7582)">
<path d="M1258.18 160.284C1258.18 153.946 1255.3 148.358 1250.92 145.074C1249.51 144.015 1249.51 141.584 1250.92 140.522C1255.3 137.234 1258.18 131.65 1258.18 125.312C1258.18 115.198 1250.85 107 1241.8 107C1232.75 107 1225.42 115.198 1225.42 125.312C1225.42 131.65 1228.31 137.238 1232.68 140.522C1234.09 141.58 1234.09 144.012 1232.68 145.074C1228.31 148.358 1225.42 153.946 1225.42 160.284C1225.42 166.622 1228.51 172.594 1233.15 175.828C1234.64 176.868 1234.64 179.445 1233.15 180.485C1228.51 183.715 1225.42 189.467 1225.42 196.029C1225.42 206.142 1232.76 214.341 1241.8 214.341C1250.84 214.341 1258.18 206.142 1258.18 196.029C1258.18 189.467 1255.09 183.718 1250.45 180.485C1248.96 179.445 1248.96 176.868 1250.45 175.828C1255.09 172.594 1258.18 166.846 1258.18 160.284H1258.18Z" fill="#7DBBBA"/>
<path d="M1241.8 131.438V263.977" stroke="#317165" stroke-width="2" stroke-linecap="round" stroke-linejoin="round"/>
</g>
<g clip-path="url(#clip5_358_7582)">
<path d="M1232.28 252.401C1218.87 252.401 1208 258.489 1208 266H1256.55C1256.55 258.489 1245.69 252.401 1232.28 252.401Z" fill="#6BAAA7"/>
<path d="M1284.57 244.469C1263.34 244.469 1246.13 254.108 1246.13 266H1323C1323 254.108 1305.79 244.469 1284.57 244.469Z" fill="#568E8D"/>
</g>
<g clip-path="url(#clip6_358_7582)">
<path d="M1303 176.694C1326.19 176.694 1344.99 140.721 1344.99 96.3469C1344.99 51.9725 1326.19 16 1303 16C1279.8 16 1261 51.9725 1261 96.3469C1261 140.721 1279.8 176.694 1303 176.694Z" fill="#568E8D"/>
<path d="M1303 33.6191V262.368" stroke="#317165" stroke-width="2" stroke-linecap="round" stroke-linejoin="round"/>
</g>
<g clip-path="url(#clip7_358_7582)">
<path d="M805.292 242C779.724 242 759 251.849 759 264H851.583C851.583 251.849 830.859 242 805.292 242Z" fill="#6BAAA7"/>
<path d="M868.358 246.584C848.123 246.584 831.716 254.381 831.716 264H905C905 254.381 888.593 246.584 868.358 246.584Z" fill="#568E8D"/>
</g>
<g clip-path="url(#clip8_358_7582)">
<path d="M221.998 195.562C240.222 195.562 254.995 167.454 254.995 132.781C254.995 98.1081 240.222 70 221.998 70C203.773 70 189 98.1081 189 132.781C189 167.454 203.773 195.562 221.998 195.562Z" fill="#8DCBCA"/>
<path d="M221.998 83.7671V262.506" stroke="#317165" stroke-width="2" stroke-linecap="round" stroke-linejoin="round"/>
</g>
<g clip-path="url(#clip9_358_7582)">
<path d="M479.536 258.962L475.405 261.12C474.174 261.763 472.73 261.875 471.433 261.42C468.401 260.37 467.292 256.775 469.199 254.195C480.945 240.83 489.501 225.123 494.237 208.24L494.491 207.335L518.43 215.643C511.324 234.162 497.467 249.598 479.536 258.957V258.962Z" fill="#A86243"/>
<path d="M567.238 260.616L570.118 263.467C570.977 264.313 572.173 264.778 573.409 264.739C576.298 264.652 578.302 261.967 577.443 259.344C571.389 245.272 568.744 230.088 569.69 214.913L569.741 214.1L546.916 214.801C547.501 231.941 554.74 248.263 567.238 260.621V260.616Z" fill="#A86243"/>
<path d="M488.275 207.993C488.275 207.993 478.803 199.616 491.663 191.981C491.663 191.981 468.665 190.674 472.786 207.122C475.924 219.655 535.944 234.52 535.944 234.52L488.275 207.998V207.993Z" fill="#EB9669"/>
<path d="M494.761 264.599L491.419 268.233C490.422 269.317 489.003 269.932 487.517 269.932C484.043 269.932 481.53 266.69 482.456 263.409C489.15 245.766 491.709 226.87 489.949 208.129L489.852 207.122H511.832L529.58 207.34C529.58 228.573 509.269 248.834 494.761 264.599Z" fill="#EB9669"/>
<path d="M529.58 207.34C529.58 228.573 509.269 248.834 494.761 264.599" stroke="#2C2721" stroke-width="2" stroke-linecap="round" stroke-linejoin="round"/>
<path d="M579.396 258.366L583.979 261.091C585.343 261.904 587.006 262.126 588.552 261.705C592.164 260.723 593.797 256.736 591.838 253.687C579.518 237.772 571.12 219.422 567.264 200.004L567.055 198.963L539.444 209.837C545.889 231.268 559.522 246.564 579.396 258.376V258.366Z" fill="#EB9669"/>
<path d="M487.248 206.633L569.538 198.958L571.318 192.058L579.533 192.271C583.608 191.971 584.112 194.115 585.037 197.904C585.465 199.66 587.311 200.749 589.158 200.342L597.963 198.392L599.281 203.778C600.008 206.754 598.065 209.725 594.936 210.417L580.393 213.635C572.803 233.934 547.471 242.412 528.192 231.108L518.817 225.611L505.698 226.574C497.36 227.184 490.081 221.251 489.44 213.32L487.253 206.638L487.248 206.633Z" fill="#EB9669"/>
<path d="M575.235 223.376L580.708 215.885L565.936 198.958L553.789 200.28L575.235 223.376Z" fill="#5BB2CA"/>
<path d="M592.067 199.675L597.963 198.37L598.584 200.91L595.354 201.625C593.882 201.951 592.406 201.081 592.062 199.676L592.067 199.675Z" fill="#2C2721"/>
<path d="M574.547 191.876C576.994 195.255 575.32 199.927 571.395 200.673C563.504 202.173 551.651 202.51 545.018 193.465C535.929 181.065 563.501 187.593 571.318 189.644C572.608 189.983 573.746 190.774 574.549 191.881L574.547 191.876Z" fill="#2C2721"/>
<path d="M582.352 200.464C582.721 200.383 582.882 199.747 582.71 199.044C582.538 198.341 582.099 197.838 581.729 197.919C581.36 198.001 581.2 198.637 581.372 199.34C581.544 200.043 581.983 200.546 582.352 200.464Z" fill="#2C2721"/>
<path d="M396.956 166.891C396.956 166.891 382.667 207.354 374.365 216.335C366.063 225.316 327.948 247.217 327.948 247.217C327.948 247.217 323.212 241.052 320.536 237.215L361.653 206.584C361.653 206.584 362.345 173.878 376.771 164.026L396.961 166.891H396.956Z" fill="#1090B4"/>
<path d="M396.956 166.891C396.956 166.891 420.544 206.067 424.099 211.622C430.87 222.195 448.389 262.721 448.389 262.721C448.389 262.721 440.962 267.13 435.972 265.929L405.314 217.1C405.314 217.1 355.442 178.601 377.087 162.695L396.956 166.896V166.891Z" fill="#5BB2CA"/>
<path d="M435.972 265.929L405.314 217.1C405.314 217.1 355.442 178.601 377.087 162.695" stroke="#2C2721" stroke-width="2" stroke-linecap="round" stroke-linejoin="round"/>
<path d="M446.568 258.473C446.568 258.473 451.523 260.892 456.035 259.881C460.547 258.87 472.068 256.131 476.687 259.983L442.366 278.143L435.494 264.701L446.568 258.468V258.473Z" fill="#295756"/>
<path d="M327.948 247.217C327.948 247.217 325.806 252.105 327.225 256.305C328.645 260.505 332.429 271.209 328.762 275.898L307 244.803L320.536 237.215L327.948 247.217Z" fill="#2F4F4D"/>
<path d="M397.729 114.833L394.219 127.749L387.672 126.007V114.833H397.729Z" fill="#FFDAA4"/>
<path d="M403.457 107.831C402.256 106.81 401.407 105.436 401.203 103.916C400.237 96.6677 393.176 92.4433 384.137 94.8821C378.201 96.479 375.617 101.531 377.295 107.178C377.717 110.391 384.051 117.645 387.123 117.688C390.465 117.736 400.552 116.386 401.677 116.159C402.801 115.932 401.961 110.197 401.961 110.197L403.783 109.549C404.322 109.355 404.459 108.688 404.027 108.32L403.457 107.831Z" fill="#FFDAA4"/>
<path d="M387.672 123.66C393.441 123.66 407.409 133.381 406.519 141.278C405.019 154.552 396.961 166.891 396.961 166.891L373.521 164.278C373.521 164.278 376.283 152.108 376.69 142.251C377.097 132.399 378.165 123.665 387.672 123.66Z" fill="#B2C3C5"/>
<path d="M418.677 166.165C418.677 166.165 424.313 165.255 426.16 166.233C428.006 167.205 427.625 169.925 427.08 170.912C426.175 172.562 425.966 173.718 423.285 173.699C420.203 173.675 416.459 170.621 416.459 170.621L418.677 166.16V166.165Z" fill="#FFDAA4"/>
<path d="M389.209 124.052C396.015 126.007 396.529 131.509 397.358 152.931L418.672 166.16L416.454 170.622C416.454 170.622 393.787 169.33 384.447 156.086C375.566 143.49 376.405 120.374 389.209 124.052Z" fill="#B2C3C5"/>
<path d="M416.459 170.622C416.459 170.622 393.792 169.33 384.452 156.086C375.571 143.49 376.41 120.374 389.214 124.052" stroke="#2C2721" stroke-width="2" stroke-linecap="round" stroke-linejoin="round"/>
<path d="M400.573 99.857C400.496 99.2473 400.308 98.6763 400.054 98.1489C399.108 96.1843 397.195 94.8052 395.023 94.1761C389.921 92.7002 378.002 90.6146 374.716 102.006C370.993 114.926 370.967 122.91 353.26 134.727C349.145 137.475 351.174 143.635 356.2 143.635H371.491C373.694 143.635 375.805 142.759 377.275 141.201C380.998 137.252 385.648 131.562 387.672 126.007C390.048 119.489 393.456 108.233 395.532 101.212L400.573 99.857Z" fill="#2C2721"/>
<path d="M398.66 106.777C399.008 106.777 399.291 106.239 399.291 105.577C399.291 104.914 399.008 104.376 398.66 104.376C398.312 104.376 398.029 104.914 398.029 105.577C398.029 106.239 398.312 106.777 398.66 106.777Z" fill="#2C2721"/>
<path d="M397.424 111.519C397.424 111.519 398.477 114.233 401.153 111.881" stroke="#2C2721" stroke-width="0.73" stroke-linecap="round" stroke-linejoin="round"/>
<path d="M392.698 112.177C393.889 112.177 394.855 110.779 394.855 109.056C394.855 107.332 393.889 105.935 392.698 105.935C391.507 105.935 390.541 107.332 390.541 109.056C390.541 110.779 391.507 112.177 392.698 112.177Z" fill="#FFDAA4"/>
<path d="M391.971 116.401C393.564 116.401 394.855 115.173 394.855 113.657C394.855 112.142 393.564 110.914 391.971 110.914C390.378 110.914 389.087 112.142 389.087 113.657C389.087 115.173 390.378 116.401 391.971 116.401Z" fill="white"/>
<path d="M423.286 173.699C423.286 173.699 422.411 168.492 426.16 166.232C431.887 162.773 441.537 166.702 445.347 178.069C449.483 190.398 454.926 201.242 460.343 208.506C466.493 216.756 480.095 217.864 481.998 212.546C485.254 203.444 457.779 202.786 456.096 216.838C454.417 230.895 491.22 237.239 511.08 221.73C549.073 192.058 563.489 199.616 563.489 199.616" stroke="#2C2721" stroke-width="2" stroke-linecap="round" stroke-linejoin="round"/>
<path d="M582.173 221.159C583.346 220.689 583.728 219.026 583.028 217.445C582.327 215.864 580.808 214.964 579.636 215.434C578.463 215.904 578.08 217.567 578.781 219.148C579.482 220.729 581 221.63 582.173 221.159Z" fill="#FFB54A"/>
<path d="M584.234 207.339C584.234 207.339 585.693 210.64 591.528 211.167" stroke="#2C2721" stroke-width="2" stroke-linecap="round" stroke-linejoin="round"/>
<path d="M352.053 131.586C352.053 131.586 371.357 123.568 375.717 102.005" stroke="#2C2721" stroke-width="2" stroke-linecap="round" stroke-linejoin="round"/>
</g>
<g clip-path="url(#clip10_358_7582)">
<path d="M752.727 220.176L741.098 266.019C740.587 268.038 742.117 270 744.21 270C745.535 270 746.723 269.189 747.2 267.959L763.636 225.681L752.727 220.176Z" fill="#31211A"/>
<path d="M765.805 220.176L754.18 266.019C753.669 268.038 755.198 270 757.292 270C758.616 270 759.805 269.189 760.282 267.959L776.718 225.681L765.808 220.176H765.805Z" fill="#615751"/>
<path d="M800.091 248.218L783.08 199.779V187.516C783.08 184.117 780.317 181.362 776.907 181.362H767.565C765.93 181.362 764.605 182.683 764.605 184.313C764.605 185.92 763.31 187.233 761.698 187.263L748.181 187.505V189.761C748.181 195.134 752.553 199.492 757.943 199.492H761.084C761.084 199.492 750.085 207.691 752.723 220.18C754.4 228.119 770.835 236.272 769.503 245.864C768.027 256.485 777.035 259.3 784.428 262.39H772.171C770.355 262.39 768.799 263.68 768.469 265.457L768.451 265.567C768.019 267.876 769.798 270.008 772.153 270.008H788.486C794.046 270.008 798.623 267.698 800.565 260.862C801.742 256.715 801.515 252.293 800.088 248.225L800.091 248.218Z" fill="#615751"/>
<path d="M755.196 212.42C755.974 210.581 755.549 208.646 754.246 208.098C752.944 207.551 751.258 208.599 750.48 210.438C749.702 212.278 750.127 214.213 751.429 214.76C752.731 215.307 754.418 214.26 755.196 212.42Z" fill="#FFB54A"/>
<path d="M752.522 198.707L787.415 199.488V207.672H751.595L752.522 198.707Z" fill="#5BB2CA"/>
<path d="M779.348 181.011C776.252 180.773 773.95 183.8 775.014 186.709C777.153 192.557 781.578 200.556 789.898 201.246C801.303 202.19 786.381 186.58 782.024 182.237C781.305 181.521 780.359 181.09 779.344 181.011H779.348Z" fill="#2C2721"/>
<path d="M755.009 187.38C755.009 189.459 753.317 191.142 751.235 191.142H748.184V187.501L755.009 187.38Z" fill="#2C2721"/>
<path d="M768.53 187.496C768.658 186.948 768.539 186.452 768.264 186.388C767.989 186.325 767.663 186.717 767.535 187.265C767.407 187.813 767.526 188.309 767.801 188.373C768.076 188.437 768.402 188.044 768.53 187.496Z" fill="#2C2721"/>
<path d="M755.009 198.707C759.355 198.296 760.437 195.723 760.437 195.723" stroke="#2C2721" stroke-width="2" stroke-linecap="round" stroke-linejoin="round"/>
<path d="M799.997 256.077C799.997 256.077 813.313 258.152 806.125 245.146C806.125 245.146 810.459 243.528 813.654 246.112C818.862 250.323 817.469 257.617 813.007 260.495C804.899 265.725 798.914 260.092 798.914 260.092L799.997 256.077Z" fill="#615751"/>
<path d="M781.494 230.141C781.494 230.141 766.834 240.457 769.507 251.421" stroke="#2C2721" stroke-width="2" stroke-linecap="round" stroke-linejoin="round"/>
</g>
<defs>
<clipPath id="clip0_358_7582">
<rect width="152.338" height="205.498" fill="white" transform="matrix(-1 0 0 1 1182.34 62)"/>
</clipPath>
<clipPath id="clip1_358_7582">
<rect width="65" height="266" fill="white" transform="translate(100)"/>
</clipPath>
<clipPath id="clip2_358_7582">
<rect width="47" height="190" fill="white" transform="translate(39 76)"/>
</clipPath>
<clipPath id="clip3_358_7582">
<rect width="165" height="26" fill="white" transform="translate(0 240)"/>
</clipPath>
<clipPath id="clip4_358_7582">
<rect width="32.7576" height="157.344" fill="white" transform="translate(1225.42 107)"/>
</clipPath>
<clipPath id="clip5_358_7582">
<rect width="115" height="21.5312" fill="white" transform="translate(1208 244.469)"/>
</clipPath>
<clipPath id="clip6_358_7582">
<rect width="84" height="247" fill="white" transform="translate(1261 16)"/>
</clipPath>
<clipPath id="clip7_358_7582">
<rect width="146" height="22" fill="white" transform="translate(759 242)"/>
</clipPath>
<clipPath id="clip8_358_7582">
<rect width="66" height="193" fill="white" transform="translate(189 70)"/>
</clipPath>
<clipPath id="clip9_358_7582">
<rect width="292.433" height="185.148" fill="white" transform="translate(307 93)"/>
</clipPath>
<clipPath id="clip10_358_7582">
<rect width="76" height="89" fill="white" transform="translate(741 181)"/>
</clipPath>
</defs>
</svg>
