<svg width="134" height="135" viewBox="0 0 134 135" fill="none" xmlns="http://www.w3.org/2000/svg">
<circle cx="67" cy="67.9819" r="67" fill="#57A69D"/>
<path d="M69.802 106.291C69.802 106.291 78.8616 106.384 85.1356 106.291C91.4095 106.199 95.7744 97.8699 91.4298 97.8699C87.0853 97.8699 80.6736 97.9354 69.802 97.8699C58.9305 97.8045 57.7218 99.1407 52.7696 104.894C47.8173 110.648 43.8297 115.85 43.8297 115.85L69.802 125.59C69.802 125.59 73.383 119.884 78.8413 119.884C83.8614 119.884 116.453 117.541 121.652 102.192C122.373 100.066 120.737 97.8699 118.491 97.8699H112.084C108.46 97.8699 105.207 106.291 95.1712 106.291H69.802Z" fill="#FFDAA4"/>
<path d="M69.8021 105.982H95.1689" stroke="#2C2721" stroke-linecap="round" stroke-linejoin="round"/>
<path d="M30.6967 110.742L69.8021 125.281L64.7436 134.673H13L30.6967 110.742Z" fill="#496868"/>
<path d="M69 48.9819C60.1634 48.9819 53 56.2245 53 65.1587C53 74.0929 60.1634 81.3355 69 81.3355C77.8366 81.3355 85 74.0929 85 65.1587C85 56.2245 77.8353 48.9819 69 48.9819ZM69 77.8459C62.0688 77.8459 56.4515 72.1652 56.4515 65.1587C56.4515 58.1522 62.0688 52.4703 69 52.4703C75.9312 52.4703 81.5485 58.1509 81.5485 65.1574C81.5485 72.1639 75.9299 77.8446 69 77.8446V77.8459Z" fill="white"/>
<path d="M67.5296 71.1639C66.9484 71.1081 66.4043 71.0199 65.8949 70.8979C65.3856 70.776 64.9609 70.6216 64.6208 70.4322V67.7741C65.2123 68.0842 65.8282 68.3164 66.4698 68.4721C67.1113 68.6277 67.7208 68.7043 68.302 68.7043C68.8281 68.7043 69.2143 68.6238 69.4606 68.463C69.707 68.3021 69.8302 68.0673 69.8302 67.7573C69.8302 67.5134 69.7647 67.3149 69.6326 67.1592C69.5017 67.0049 69.3015 66.8583 69.0334 66.7195C68.7652 66.5807 68.3289 66.3848 67.7272 66.1292C66.6648 65.6752 65.8924 65.1654 65.4099 64.601C64.9275 64.0367 64.6876 63.344 64.6876 62.5241C64.6876 61.7043 64.9416 61.0427 65.451 60.4719C65.9604 59.9011 66.6532 59.5054 67.5296 59.2836V57.6387H70.1753V59.15C70.9862 59.2382 71.7586 59.4548 72.4925 59.7973V62.3892C71.5289 61.8794 70.5589 61.6251 69.5838 61.6251C69.0911 61.6251 68.6959 61.7082 68.4008 61.8742C68.1044 62.0403 67.9569 62.2841 67.9569 62.6046C67.9569 62.8264 68.0313 63.0145 68.1788 63.1689C68.3264 63.3245 68.5342 63.4685 68.8037 63.6009C69.0719 63.7332 69.5017 63.9161 70.0932 64.1496C70.8707 64.4713 71.4763 64.7891 71.9087 65.1044C72.3411 65.4196 72.6568 65.788 72.8531 66.2096C73.0507 66.6313 73.1482 67.1566 73.1482 67.7884C73.1482 68.6524 72.9018 69.3646 72.4091 69.9237C71.9164 70.4828 71.171 70.8629 70.174 71.0614V72.6726H67.5283V71.1613L67.5296 71.1639Z" fill="white"/>
<g clip-path="url(#clip0_233_1215)">
<path d="M120.079 77.9819H111.511V70.4481H105.814V77.9819H96.9214V65.1858H90L108.5 46.9819L127 65.1858H120.079V77.9819ZM114.193 75.0933H117.397V62.2971H120.088L108.5 50.8947L96.9128 62.2971H99.6045V75.0933H103.132V67.5595H114.194V75.0933H114.193Z" fill="white"/>
</g>
<g clip-path="url(#clip1_233_1215)">
<path d="M30.9994 46.9819L17 50.633V61.8279C17 68.3051 19.9596 74.4082 24.9963 78.3197L30.9994 82.9819L37.0024 78.3197C42.0404 74.4069 44.9987 68.3038 44.9987 61.8279V50.633L30.9994 46.9819ZM41.5695 62.2456C41.5695 67.1948 39.335 71.8583 35.5316 74.8471L30.9994 78.4096L26.4671 74.8471C22.6637 71.857 20.4292 67.1948 20.4292 62.2456V53.3745L30.9994 50.5854L41.5695 53.3759V62.2456Z" fill="white"/>
<path d="M38.2074 60.5283H24.4274V65.0967H38.2074V60.5283Z" fill="white"/>
<path d="M33.5474 69.8714V55.7524H29.0887V69.8714H33.5474Z" fill="white"/>
</g>
<defs>
<clipPath id="clip0_233_1215">
<rect width="37" height="34" fill="white" transform="translate(90 46.9819)"/>
</clipPath>
<clipPath id="clip1_233_1215">
<rect width="28" height="36" fill="white" transform="translate(17 46.9819)"/>
</clipPath>
</defs>
</svg>
