<svg width="240" height="188" viewBox="0 0 240 188" fill="none" xmlns="http://www.w3.org/2000/svg">
<g opacity="0.5">
<ellipse cx="72.9614" cy="179.378" rx="72.9614" ry="7.83001" fill="#D2CAC8"/>
<ellipse cx="175.463" cy="179.378" rx="51.6069" ry="7.83001" fill="#D2CAC8"/>
</g>
<g clip-path="url(#clip0_224_1145)">
<path d="M145.863 107.565L128.982 174.296C128.24 177.234 130.46 180.09 133.499 180.09C135.422 180.09 137.148 178.909 137.84 177.119L161.7 115.578L145.863 107.565Z" fill="#A86243"/>
<path d="M164.849 107.565L147.973 174.296C147.231 177.234 149.452 180.09 152.49 180.09C154.414 180.09 156.139 178.909 156.832 177.119L180.692 115.578L164.854 107.565H164.849Z" fill="#EB9669"/>
<path d="M214.624 148.384L189.929 77.8743V60.0245C189.929 55.076 185.917 51.0667 180.966 51.0667H167.404C165.03 51.0667 163.107 52.9889 163.107 55.3616C163.107 57.7013 161.228 59.6126 158.887 59.6565L139.263 60.008V63.2924C139.263 71.1133 145.61 77.4569 153.436 77.4569H157.996C157.996 77.4569 142.028 89.3915 145.858 107.571C148.292 119.127 172.152 130.995 170.218 144.957C168.075 160.417 181.153 164.514 191.885 169.013H174.092C171.454 169.013 169.196 170.891 168.718 173.478L168.69 173.637C168.064 176.998 170.646 180.101 174.064 180.101H197.776C205.848 180.101 212.492 176.74 215.311 166.788C217.02 160.752 216.69 154.315 214.619 148.395L214.624 148.384Z" fill="#EB9669"/>
<path d="M149.447 96.2749C150.577 93.5972 149.96 90.7808 148.069 89.9842C146.179 89.1877 143.731 90.7126 142.601 93.3902C141.472 96.0679 142.089 98.8843 143.979 99.6809C145.87 100.477 148.318 98.9525 149.447 96.2749Z" fill="#FFB54A"/>
<path d="M145.566 76.3145L196.221 77.4513V89.364H144.22L145.566 76.3145Z" fill="#5BB2CA"/>
<path d="M184.511 50.5558C180.016 50.2098 176.675 54.6145 178.219 58.8491C181.323 67.362 187.747 79.0056 199.826 80.0107C216.383 81.3837 194.721 58.6623 188.396 52.3407C187.352 51.2972 185.978 50.6711 184.505 50.5558H184.511Z" fill="#2C2721"/>
<path d="M149.177 59.8267C149.177 62.8529 146.72 65.3024 143.698 65.3024H139.269V60.0024L149.177 59.8267Z" fill="#2C2721"/>
<path d="M168.805 59.9953C168.991 59.1976 168.818 58.4757 168.419 58.3829C168.02 58.2901 167.546 58.8615 167.36 59.6592C167.175 60.4569 167.348 61.1788 167.747 61.2716C168.146 61.3644 168.62 60.793 168.805 59.9953Z" fill="#2C2721"/>
<path d="M149.177 76.3143C155.485 75.7157 157.057 71.97 157.057 71.97" stroke="#2C2721" stroke-width="2" stroke-linecap="round" stroke-linejoin="round"/>
<path d="M214.487 159.824C214.487 159.824 233.819 162.845 223.383 143.913C223.383 143.913 229.675 141.557 234.313 145.319C241.875 151.448 239.852 162.065 233.374 166.255C221.603 173.868 212.915 165.668 212.915 165.668L214.487 159.824Z" fill="#EB9669"/>
<path d="M187.626 122.07C187.626 122.07 166.344 137.086 170.223 153.047" stroke="#2C2721" stroke-width="2" stroke-linecap="round" stroke-linejoin="round"/>
</g>
<g clip-path="url(#clip1_224_1145)">
<path d="M87.2133 32.7671L78.5328 49.4112L70.5597 45.0331L74.1195 29.7144L87.2133 32.7671Z" fill="#FFDAA4"/>
<path d="M88.3178 153.786C88.3178 153.786 93.0642 161.098 100.024 163.164C106.98 165.229 124.856 170.275 127.983 179.378L65.2382 178.638L68.1956 154.079L88.3178 153.786Z" fill="#295756"/>
<path d="M61.7787 45.6455C61.7787 45.6455 21.3655 64.273 21.3655 114.85H73.476C73.476 114.85 103.716 68.5642 123.921 45.6455H61.7787Z" fill="#B2C3C5"/>
<path d="M104.319 45.6455H162.49V56.8741C162.49 56.8741 110.334 75.0445 85.9628 76.9502C61.7742 78.8377 61.8746 73.381 61.8746 73.381L61.7787 45.6455H104.319Z" fill="#B2C3C5"/>
<path d="M21.3655 114.849C21.3655 114.849 0.8736 148.764 23.3279 163.306C45.7823 177.847 67.9263 155.162 67.9263 155.162H89.8421C89.8421 155.162 120.594 127.847 123.925 100.664C125.5 87.8132 109.695 73.0063 84.3381 84.8472C63.0521 94.7825 51.0445 114.854 51.0445 114.854H21.3655V114.849Z" fill="#5BB2CA"/>
<path d="M67.9263 155.157L86.1225 113.479" stroke="#2C2721" stroke-width="2" stroke-linecap="round" stroke-linejoin="round"/>
<path d="M84.3335 84.8425C84.3335 84.8425 54.4537 99.7545 46.1383 125.475" stroke="#2C2721" stroke-width="2" stroke-linecap="round" stroke-linejoin="round"/>
<path d="M61.8746 73.381C61.8746 73.381 69.8842 88.9419 162.49 56.874" stroke="#2C2721" stroke-width="2" stroke-linecap="round" stroke-linejoin="round"/>
<path d="M96.907 24.9066C95.6748 23.1426 95.0039 20.9992 95.2229 18.8559C96.2726 8.6236 88.4227 0.694597 75.872 1.29327C67.6342 1.68629 62.6596 7.82385 63.0475 16.0728C62.5729 20.6062 68.5105 32.4655 72.4993 33.4617C76.835 34.5448 90.4035 35.7513 91.9369 35.7833C93.4704 35.8153 94.2052 27.6943 94.2052 27.6943L96.7838 27.3607C97.5505 27.2602 97.9384 26.3827 97.4958 25.7475L96.907 24.9066Z" fill="#FFDAA4"/>
<path d="M95.2868 16.0408C95.3507 14.6789 95.8984 10.8858 93.5526 6.66306C92.1971 4.22266 88.0759 2.59116 85.4151 1.75484C78.8021 -0.319952 62.3903 -3.63322 57.9268 12.6681C52.9476 30.8568 11.188 50.2931 26.8011 84.8426L51.081 72.8874C60.1996 68.3996 67.8168 61.2658 72.6317 52.3085C73.6722 50.3708 74.5668 48.4057 75.2468 46.4543C78.4233 37.2823 82.9826 21.438 85.7574 11.5576L95.2823 16.0408H95.2868Z" fill="#2C2721"/>
<path d="M92.1998 20.5542C92.4112 19.6446 92.2144 18.8215 91.7602 18.7157C91.306 18.6098 90.7665 19.2614 90.5551 20.171C90.3437 21.0805 90.5406 21.9037 90.9947 22.0095C91.4489 22.1153 91.9884 21.4638 92.1998 20.5542Z" fill="#2C2721"/>
<path d="M87.8751 28.1331C87.8751 28.1331 88.3862 32.173 92.6124 29.7646" stroke="#2C2721" stroke-width="1.08" stroke-linecap="round" stroke-linejoin="round"/>
<path d="M85.3179 23.9812C85.8675 21.6163 85.0552 19.4061 83.5037 19.0446C81.9521 18.683 80.2488 20.307 79.6993 22.6719C79.1497 25.0368 79.9619 27.2469 81.5135 27.6085C83.065 27.97 84.7683 26.346 85.3179 23.9812Z" fill="#FFDAA4"/>
<path d="M80.0891 33.2697C82.219 33.2697 83.9456 31.5408 83.9456 29.4081C83.9456 27.2753 82.219 25.5464 80.0891 25.5464C77.9592 25.5464 76.2326 27.2753 76.2326 29.4081C76.2326 31.5408 77.9592 33.2697 80.0891 33.2697Z" fill="white"/>
<path d="M162.49 45.6454C162.49 45.6454 183.461 45.1153 185.378 48.9084C187.56 53.2317 189.061 58.4004 186.797 60.3701C184.534 62.3397 182.206 56.7049 179.486 55.5075C176.766 54.3102 162.49 55.3659 162.49 55.3659V45.65V45.6454Z" fill="#FFDAA4"/>
</g>
<defs>
<clipPath id="clip0_224_1145">
<rect width="110.332" height="129.551" fill="white" transform="translate(128.839 50.5393)"/>
</clipPath>
<clipPath id="clip1_224_1145">
<rect width="175.107" height="179.378" fill="white" transform="translate(12.8127)"/>
</clipPath>
</defs>
</svg>
