<svg width="134" height="135" viewBox="0 0 134 135" fill="none" xmlns="http://www.w3.org/2000/svg">
<circle cx="67" cy="67.9819" r="67" fill="#5BB2CA"/>
<g clip-path="url(#clip0_320_2787)">
<path d="M75.7734 81.5213H63.4647C61.2219 81.5213 59.3243 79.8654 59.0256 77.6444L56.3934 58.1004C56.031 55.4171 58.1221 53.0298 60.8326 53.0298H78.9638C81.7257 53.0298 83.829 55.5027 83.3834 58.2252L80.193 77.7691C79.8404 79.9339 77.9673 81.5238 75.7734 81.5238V81.5213Z" fill="#EDCD9F"/>
<path d="M85.1448 69.1772C85.5011 66.6352 84.1245 64.3417 82.0701 64.0543C80.0158 63.767 78.0616 65.5947 77.7053 68.1367C77.3491 70.6786 78.7257 72.9722 80.78 73.2595C82.8344 73.5469 84.7886 71.7191 85.1448 69.1772Z" fill="#EDCD9F"/>
<path d="M58.511 73.2611C60.5653 72.9738 61.9419 70.6802 61.5856 68.1382C61.2294 65.5963 59.2752 63.7686 57.2209 64.0559C55.1665 64.3432 53.7899 66.6368 54.1462 69.1788C54.5024 71.7207 56.4566 73.5484 58.511 73.2611Z" fill="#EDCD9F"/>
<path d="M60.8326 53.0271C60.8326 53.0271 71.0306 64.0221 82.3256 64.0099C82.3256 64.0099 88.4567 56.5201 88.9733 46.7237C88.9733 46.7237 84.6443 45.892 79.8232 42.0566C74.7964 38.0598 65.2448 36.9737 60.6195 44.9185L60.8326 53.0271Z" fill="#2C2721"/>
<path d="M60.8326 53.729L57.8772 65.5997C57.8772 65.5997 53.0953 61.8597 52.0644 54.9423C51.0312 48.0273 56.2685 42.4528 60.6195 44.96L60.8326 53.7266V53.729Z" fill="#2C2721"/>
<path d="M78.3786 93.6461C77.1666 93.0688 76.3757 91.8433 76.3757 90.4736V80.2148H63.1538V90.4736C63.1538 91.8531 62.3482 93.0859 61.1215 93.6583L69.7427 100.414L78.3786 93.6461Z" fill="#EDCD9F"/>
<path d="M64.6571 68.6573C65.2846 68.6573 65.7932 67.6169 65.7932 66.3335C65.7932 65.0501 65.2846 64.0098 64.6571 64.0098C64.0297 64.0098 63.521 65.0501 63.521 66.3335C63.521 67.6169 64.0297 68.6573 64.6571 68.6573Z" fill="#2C2721"/>
<path d="M75.9644 68.6573C76.5918 68.6573 77.1005 67.6169 77.1005 66.3335C77.1005 65.0501 76.5918 64.0098 75.9644 64.0098C75.3369 64.0098 74.8282 65.0501 74.8282 66.3335C74.8282 67.6169 75.3369 68.6573 75.9644 68.6573Z" fill="#2C2721"/>
<path d="M66.7898 74.3005C66.7898 74.3005 71.3857 77.6883 74.7964 71.8643" stroke="#2C2721" stroke-width="1.08" stroke-linecap="round" stroke-linejoin="round"/>
<path d="M101.975 101.562C99.4628 100.544 87.8225 96.1413 82.1861 94.3117L74.7964 105.417L69.7427 100.417L67.5072 102.922L57.3018 94.3142C57.3018 94.3142 51.9347 95.0382 44.9368 93.2452C35.3264 90.7821 26.3526 84.6107 28.9946 60.3948L18.3754 55.0918C18.3754 55.0918 7.98878 73.354 9.08082 90.0042C9.52644 96.8018 12.0876 103.13 15.6232 108.765C25.9241 125.186 44.119 134.982 63.5161 134.982H116C116 134.982 107.134 103.646 101.975 101.559V101.562Z" fill="#D0E2E1"/>
<path d="M84.2256 115.854L87.0169 130.946L90.4718 125.21L97.7341 127.433L92.7342 112.324L84.2256 115.854Z" fill="#FFB54A"/>
<path d="M60.5877 93.2402L57.2993 94.3092L57.6495 94.7959L65.2742 105.414L69.7427 100.414L61.1215 93.6585L60.5877 93.2402Z" fill="white"/>
<path d="M78.8952 93.2402L78.3786 93.6463L69.7427 100.414L74.7964 105.414L81.8653 94.791L82.186 94.3092L78.8952 93.2402Z" fill="white"/>
<path d="M20.3611 56.0798C20.3611 56.0798 20.1456 49.5782 21.8767 46.6429C23.6078 43.7077 25.8605 41.1467 30.8799 41.9954C35.8994 42.8442 36.2471 45.6107 35.728 47.861C35.2089 50.1114 36.247 52.2713 35.035 53.2668C33.823 54.2624 28.9872 60.3921 28.9872 60.3921L20.3587 56.0822L20.3611 56.0798Z" fill="#EDCD9F"/>
<path d="M87.6927 119.941C91.8239 119.941 95.1729 116.596 95.1729 112.469C95.1729 108.342 91.8239 104.996 87.6927 104.996C83.5615 104.996 80.2125 108.342 80.2125 112.469C80.2125 116.596 83.5615 119.941 87.6927 119.941Z" fill="#D15E59"/>
<path d="M87.6927 117.507C90.4784 117.507 92.7367 115.251 92.7367 112.469C92.7367 109.686 90.4784 107.43 87.6927 107.43C84.9071 107.43 82.6488 109.686 82.6488 112.469C82.6488 115.251 84.9071 117.507 87.6927 117.507Z" fill="#672622"/>
</g>
<defs>
<clipPath id="clip0_320_2787">
<rect width="107" height="96" fill="white" transform="translate(9 38.9819)"/>
</clipPath>
</defs>
</svg>
