<svg width="1849" height="1679" viewBox="0 0 1849 1679" fill="none" xmlns="http://www.w3.org/2000/svg">
<g opacity="0.5">
<path d="M194.814 1095.3C186.839 1090.09 183.665 1084.5 176.636 1086.08C176.55 1086.1 176.451 1086.13 176.364 1086.15C176.278 1086.16 176.179 1086.19 176.092 1086.21C169.052 1087.74 168.131 1094.17 162.985 1102.28C154.608 1115.52 151.114 1122.93 156.719 1129.72C161.856 1135.96 172.482 1132.6 180.673 1125.65C182.842 1123.8 185.797 1123.14 188.523 1123.9C198.633 1126.68 209.067 1125.03 211.971 1117.45C215.556 1108.1 207.814 1103.79 194.804 1095.31L194.814 1095.3Z" fill="#D2CAC8"/>
<path d="M217.08 1072.09C216.101 1065.14 211.29 1060.09 206.335 1060.82C201.38 1061.55 198.157 1067.78 199.136 1074.74C200.115 1081.69 204.925 1086.74 209.88 1086.01C214.835 1085.28 218.059 1079.05 217.08 1072.09Z" fill="#D2CAC8"/>
<path d="M193.306 1059.09C192.327 1052.13 187.516 1047.08 182.561 1047.81C177.606 1048.54 174.383 1054.78 175.362 1061.73C176.341 1068.69 181.151 1073.74 186.107 1073C191.062 1072.27 194.285 1066.04 193.306 1059.09Z" fill="#D2CAC8"/>
<path d="M146.371 1100.08C151.173 1098.64 153.491 1092.01 151.548 1085.27C149.605 1078.52 144.136 1074.22 139.334 1075.66C134.531 1077.1 132.213 1083.74 134.156 1090.48C136.1 1097.22 141.568 1101.52 146.371 1100.08Z" fill="#D2CAC8"/>
<path d="M162.688 1078.21C167.491 1076.77 169.808 1070.13 167.865 1063.39C165.922 1056.65 160.453 1052.35 155.651 1053.79C150.848 1055.23 148.53 1061.86 150.474 1068.6C152.417 1075.34 157.886 1079.64 162.688 1078.21Z" fill="#D2CAC8"/>
<path d="M179.347 1087.33L179.349 1087.33C182.594 1086.07 185.149 1086.64 188.059 1088.09C189.28 1088.69 190.541 1089.44 191.94 1090.27C192.233 1090.44 192.532 1090.62 192.839 1090.8C194.433 1091.74 196.192 1092.75 198.201 1093.71L198.191 1093.73L198.813 1094.02C199.659 1094.41 200.484 1094.78 201.285 1095.15C207.446 1097.97 212.266 1100.18 215.45 1102.7C217.23 1104.11 218.447 1105.58 219.098 1107.26C219.746 1108.94 219.858 1110.9 219.307 1113.33C218.443 1117.14 215.579 1119.87 211.523 1121.49C207.462 1123.12 202.274 1123.61 196.967 1122.97C193.829 1122.57 190.665 1123.78 188.559 1126.19C184.922 1130.31 180.566 1133.59 176.405 1135.15C172.247 1136.71 168.402 1136.52 165.567 1133.95L165.566 1133.95C163.954 1132.49 162.918 1130.94 162.349 1129.21C161.778 1127.48 161.662 1125.54 161.957 1123.29C162.552 1118.75 164.79 1113.09 168.119 1105.65C169.152 1103.35 169.926 1101.2 170.611 1099.24C170.69 1099.01 170.768 1098.79 170.845 1098.57C171.437 1096.87 171.968 1095.35 172.568 1093.98C173.908 1090.93 175.543 1088.77 178.804 1087.54L178.806 1087.54L178.807 1087.54L178.807 1087.54L178.808 1087.54L178.808 1087.54L178.809 1087.54L178.809 1087.54L178.81 1087.54L178.81 1087.54L178.811 1087.54L178.811 1087.54L178.812 1087.54L178.812 1087.54L178.813 1087.53L178.813 1087.53L178.814 1087.53L178.814 1087.53L178.815 1087.53L178.815 1087.53L178.816 1087.53L178.816 1087.53L178.817 1087.53L178.817 1087.53L178.818 1087.53L178.818 1087.53L178.819 1087.53L178.819 1087.53L178.82 1087.53L178.821 1087.53L178.821 1087.53L178.822 1087.53L178.822 1087.53L178.823 1087.53L178.823 1087.53L178.824 1087.53L178.824 1087.53L178.825 1087.53L178.825 1087.53L178.826 1087.53L178.826 1087.53L178.827 1087.53L178.827 1087.53L178.828 1087.53L178.828 1087.53L178.829 1087.53L178.829 1087.53L178.83 1087.53L178.83 1087.53L178.831 1087.53L178.831 1087.53L178.832 1087.53L178.832 1087.53L178.833 1087.53L178.833 1087.53L178.834 1087.53L178.834 1087.53L178.835 1087.53L178.835 1087.53L178.836 1087.53L178.836 1087.53L178.837 1087.53L178.838 1087.53L178.838 1087.53L178.839 1087.53L178.839 1087.52L178.84 1087.52L178.84 1087.52L178.841 1087.52L178.841 1087.52L178.842 1087.52L178.842 1087.52L178.843 1087.52L178.843 1087.52L178.844 1087.52L178.844 1087.52L178.845 1087.52L178.845 1087.52L178.846 1087.52L178.846 1087.52L178.847 1087.52L178.847 1087.52L178.848 1087.52L178.848 1087.52L178.849 1087.52L178.85 1087.52L178.85 1087.52L178.851 1087.52L178.851 1087.52L178.852 1087.52L178.852 1087.52L178.853 1087.52L178.853 1087.52L178.854 1087.52L178.854 1087.52L178.855 1087.52L178.855 1087.52L178.856 1087.52L178.856 1087.52L178.857 1087.52L178.857 1087.52L178.858 1087.52L178.858 1087.52L178.859 1087.52L178.859 1087.52L178.86 1087.52L178.861 1087.52L178.861 1087.52L178.862 1087.52L178.862 1087.52L178.863 1087.52L178.863 1087.52L178.864 1087.52L178.864 1087.52L178.865 1087.52L178.865 1087.51L178.866 1087.51L178.866 1087.51L178.867 1087.51L178.867 1087.51L178.868 1087.51L178.868 1087.51L178.869 1087.51L178.87 1087.51L178.87 1087.51L178.871 1087.51L178.871 1087.51L178.872 1087.51L178.872 1087.51L178.873 1087.51L178.873 1087.51L178.874 1087.51L178.874 1087.51L178.875 1087.51L178.875 1087.51L178.876 1087.51L178.876 1087.51L178.877 1087.51L178.877 1087.51L178.878 1087.51L178.879 1087.51L178.879 1087.51L178.88 1087.51L178.88 1087.51L178.881 1087.51L178.881 1087.51L178.882 1087.51L178.882 1087.51L178.883 1087.51L178.883 1087.51L178.884 1087.51L178.884 1087.51L178.885 1087.51L178.885 1087.51L178.886 1087.51L178.887 1087.51L178.887 1087.51L178.888 1087.51L178.888 1087.51L178.889 1087.51L178.889 1087.51L178.89 1087.51L178.89 1087.51L178.891 1087.51L178.891 1087.5L178.892 1087.5L178.892 1087.5L178.893 1087.5L178.893 1087.5L178.894 1087.5L178.895 1087.5L178.895 1087.5L178.896 1087.5L178.896 1087.5L178.897 1087.5L178.897 1087.5L178.898 1087.5L178.898 1087.5L178.899 1087.5L178.899 1087.5L178.9 1087.5L178.9 1087.5L178.901 1087.5L178.902 1087.5L178.902 1087.5L178.903 1087.5L178.903 1087.5L178.904 1087.5L178.904 1087.5L178.905 1087.5L178.905 1087.5L178.906 1087.5L178.906 1087.5L178.907 1087.5L178.907 1087.5L178.908 1087.5L178.909 1087.5L178.909 1087.5L178.91 1087.5L178.91 1087.5L178.911 1087.5L178.911 1087.5L178.912 1087.5L178.912 1087.5L178.913 1087.5L178.913 1087.5L178.914 1087.5L178.914 1087.5L178.915 1087.5L178.916 1087.5L178.916 1087.5L178.917 1087.5L178.917 1087.5L178.918 1087.49L178.918 1087.49L178.919 1087.49L178.919 1087.49L178.92 1087.49L178.92 1087.49L178.921 1087.49L178.921 1087.49L178.922 1087.49L178.923 1087.49L178.923 1087.49L178.924 1087.49L178.924 1087.49L178.925 1087.49L178.925 1087.49L178.926 1087.49L178.926 1087.49L178.927 1087.49L178.927 1087.49L178.928 1087.49L178.928 1087.49L178.929 1087.49L178.93 1087.49L178.93 1087.49L178.931 1087.49L178.931 1087.49L178.932 1087.49L178.932 1087.49L178.933 1087.49L178.933 1087.49L178.934 1087.49L178.934 1087.49L178.935 1087.49L178.935 1087.49L178.936 1087.49L178.937 1087.49L178.937 1087.49L178.938 1087.49L178.938 1087.49L178.939 1087.49L178.939 1087.49L178.94 1087.49L178.94 1087.49L178.941 1087.49L178.941 1087.49L178.942 1087.49L178.942 1087.49L178.943 1087.49L178.944 1087.48L178.944 1087.48L178.945 1087.48L178.945 1087.48L178.946 1087.48L178.946 1087.48L178.947 1087.48L178.947 1087.48L178.948 1087.48L178.948 1087.48L178.949 1087.48L178.949 1087.48L178.95 1087.48L178.951 1087.48L178.951 1087.48L178.952 1087.48L178.952 1087.48L178.953 1087.48L178.953 1087.48L178.954 1087.48L178.954 1087.48L178.955 1087.48L178.955 1087.48L178.956 1087.48L178.957 1087.48L178.957 1087.48L178.958 1087.48L178.958 1087.48L178.959 1087.48L178.959 1087.48L178.96 1087.48L178.96 1087.48L178.961 1087.48L178.961 1087.48L178.962 1087.48L178.962 1087.48L178.963 1087.48L178.964 1087.48L178.964 1087.48L178.965 1087.48L178.965 1087.48L178.966 1087.48L178.966 1087.48L178.967 1087.48L178.967 1087.48L178.968 1087.48L178.968 1087.48L178.969 1087.48L178.969 1087.47L178.97 1087.47L178.971 1087.47L178.971 1087.47L178.972 1087.47L178.972 1087.47L178.973 1087.47L178.973 1087.47L178.974 1087.47L178.974 1087.47L178.975 1087.47L178.975 1087.47L178.976 1087.47L178.976 1087.47L178.977 1087.47L178.977 1087.47L178.978 1087.47L178.979 1087.47L178.979 1087.47L178.98 1087.47L178.98 1087.47L178.981 1087.47L178.981 1087.47L178.982 1087.47L178.982 1087.47L178.983 1087.47L178.983 1087.47L178.984 1087.47L178.984 1087.47L178.985 1087.47L178.986 1087.47L178.986 1087.47L178.987 1087.47L178.987 1087.47L178.988 1087.47L178.988 1087.47L178.989 1087.47L178.989 1087.47L178.99 1087.47L178.99 1087.47L178.991 1087.47L178.991 1087.47L178.992 1087.47L178.993 1087.47L178.993 1087.47L178.994 1087.47L178.994 1087.47L178.995 1087.47L178.995 1087.47L178.996 1087.46L178.996 1087.46L178.997 1087.46L178.997 1087.46L178.998 1087.46L178.998 1087.46L178.999 1087.46L178.999 1087.46L179 1087.46L179.001 1087.46L179.001 1087.46L179.002 1087.46L179.002 1087.46L179.003 1087.46L179.003 1087.46L179.004 1087.46L179.004 1087.46L179.005 1087.46L179.005 1087.46L179.006 1087.46L179.006 1087.46L179.007 1087.46L179.007 1087.46L179.008 1087.46L179.008 1087.46L179.009 1087.46L179.01 1087.46L179.01 1087.46L179.011 1087.46L179.011 1087.46L179.012 1087.46L179.012 1087.46L179.013 1087.46L179.013 1087.46L179.014 1087.46L179.014 1087.46L179.015 1087.46L179.015 1087.46L179.016 1087.46L179.016 1087.46L179.017 1087.46L179.018 1087.46L179.018 1087.46L179.019 1087.46L179.019 1087.46L179.02 1087.46L179.02 1087.46L179.021 1087.46L179.021 1087.46L179.022 1087.45L179.022 1087.45L179.023 1087.45L179.023 1087.45L179.024 1087.45L179.024 1087.45L179.025 1087.45L179.025 1087.45L179.026 1087.45L179.026 1087.45L179.027 1087.45L179.028 1087.45L179.028 1087.45L179.029 1087.45L179.029 1087.45L179.03 1087.45L179.03 1087.45L179.031 1087.45L179.031 1087.45L179.032 1087.45L179.032 1087.45L179.033 1087.45L179.033 1087.45L179.034 1087.45L179.034 1087.45L179.035 1087.45L179.035 1087.45L179.036 1087.45L179.036 1087.45L179.037 1087.45L179.037 1087.45L179.038 1087.45L179.039 1087.45L179.039 1087.45L179.04 1087.45L179.04 1087.45L179.041 1087.45L179.041 1087.45L179.042 1087.45L179.042 1087.45L179.043 1087.45L179.043 1087.45L179.044 1087.45L179.044 1087.45L179.045 1087.45L179.045 1087.45L179.046 1087.45L179.046 1087.45L179.047 1087.45L179.047 1087.45L179.048 1087.44L179.048 1087.44L179.049 1087.44L179.049 1087.44L179.05 1087.44L179.05 1087.44L179.051 1087.44L179.051 1087.44L179.052 1087.44L179.053 1087.44L179.053 1087.44L179.054 1087.44L179.054 1087.44L179.055 1087.44L179.055 1087.44L179.056 1087.44L179.056 1087.44L179.057 1087.44L179.057 1087.44L179.058 1087.44L179.058 1087.44L179.059 1087.44L179.059 1087.44L179.06 1087.44L179.06 1087.44L179.061 1087.44L179.061 1087.44L179.062 1087.44L179.062 1087.44L179.063 1087.44L179.063 1087.44L179.064 1087.44L179.064 1087.44L179.065 1087.44L179.065 1087.44L179.066 1087.44L179.066 1087.44L179.067 1087.44L179.067 1087.44L179.068 1087.44L179.068 1087.44L179.069 1087.44L179.069 1087.44L179.07 1087.44L179.07 1087.44L179.071 1087.44L179.071 1087.44L179.072 1087.44L179.072 1087.44L179.073 1087.44L179.073 1087.44L179.074 1087.43L179.074 1087.43L179.075 1087.43L179.075 1087.43L179.076 1087.43L179.076 1087.43L179.077 1087.43L179.077 1087.43L179.078 1087.43L179.078 1087.43L179.079 1087.43L179.08 1087.43L179.08 1087.43L179.081 1087.43L179.081 1087.43L179.082 1087.43L179.082 1087.43L179.083 1087.43L179.083 1087.43L179.084 1087.43L179.084 1087.43L179.085 1087.43L179.085 1087.43L179.086 1087.43L179.086 1087.43L179.087 1087.43L179.087 1087.43L179.088 1087.43L179.088 1087.43L179.089 1087.43L179.089 1087.43L179.09 1087.43L179.09 1087.43L179.091 1087.43L179.091 1087.43L179.092 1087.43L179.092 1087.43L179.093 1087.43L179.093 1087.43L179.094 1087.43L179.094 1087.43L179.095 1087.43L179.095 1087.43L179.096 1087.43L179.096 1087.43L179.097 1087.43L179.097 1087.43L179.098 1087.43L179.098 1087.43L179.099 1087.43L179.099 1087.43L179.1 1087.43L179.1 1087.42L179.101 1087.42L179.101 1087.42L179.102 1087.42L179.103 1087.42L179.103 1087.42L179.104 1087.42L179.104 1087.42L179.105 1087.42L179.105 1087.42L179.106 1087.42L179.106 1087.42L179.107 1087.42L179.107 1087.42L179.108 1087.42L179.108 1087.42L179.109 1087.42L179.109 1087.42L179.11 1087.42L179.11 1087.42L179.111 1087.42L179.111 1087.42L179.112 1087.42L179.112 1087.42L179.113 1087.42L179.113 1087.42L179.114 1087.42L179.114 1087.42L179.115 1087.42L179.115 1087.42L179.116 1087.42L179.117 1087.42L179.117 1087.42L179.118 1087.42L179.118 1087.42L179.119 1087.42L179.119 1087.42L179.12 1087.42L179.12 1087.42L179.121 1087.42L179.121 1087.42L179.122 1087.42L179.122 1087.42L179.123 1087.42L179.123 1087.42L179.124 1087.42L179.124 1087.42L179.125 1087.42L179.125 1087.42L179.126 1087.42L179.126 1087.41L179.127 1087.41L179.128 1087.41L179.128 1087.41L179.129 1087.41L179.129 1087.41L179.13 1087.41L179.13 1087.41L179.131 1087.41L179.131 1087.41L179.132 1087.41L179.132 1087.41L179.133 1087.41L179.133 1087.41L179.134 1087.41L179.134 1087.41L179.135 1087.41L179.135 1087.41L179.136 1087.41L179.137 1087.41L179.137 1087.41L179.138 1087.41L179.138 1087.41L179.139 1087.41L179.139 1087.41L179.14 1087.41L179.14 1087.41L179.141 1087.41L179.141 1087.41L179.142 1087.41L179.142 1087.41L179.143 1087.41L179.143 1087.41L179.144 1087.41L179.144 1087.41L179.145 1087.41L179.146 1087.41L179.146 1087.41L179.147 1087.41L179.147 1087.41L179.148 1087.41L179.148 1087.41L179.149 1087.41L179.149 1087.41L179.15 1087.41L179.15 1087.41L179.151 1087.41L179.151 1087.41L179.152 1087.41L179.152 1087.4L179.153 1087.4L179.154 1087.4L179.154 1087.4L179.155 1087.4L179.155 1087.4L179.156 1087.4L179.156 1087.4L179.157 1087.4L179.157 1087.4L179.158 1087.4L179.158 1087.4L179.159 1087.4L179.159 1087.4L179.16 1087.4L179.16 1087.4L179.161 1087.4L179.162 1087.4L179.162 1087.4L179.163 1087.4L179.163 1087.4L179.164 1087.4L179.164 1087.4L179.165 1087.4L179.165 1087.4L179.166 1087.4L179.166 1087.4L179.167 1087.4L179.167 1087.4L179.168 1087.4L179.168 1087.4L179.169 1087.4L179.17 1087.4L179.17 1087.4L179.171 1087.4L179.171 1087.4L179.172 1087.4L179.172 1087.4L179.173 1087.4L179.173 1087.4L179.174 1087.4L179.174 1087.4L179.175 1087.4L179.175 1087.4L179.176 1087.4L179.177 1087.4L179.177 1087.4L179.178 1087.4L179.178 1087.4L179.179 1087.39L179.179 1087.39L179.18 1087.39L179.18 1087.39L179.181 1087.39L179.181 1087.39L179.182 1087.39L179.182 1087.39L179.183 1087.39L179.184 1087.39L179.184 1087.39L179.185 1087.39L179.185 1087.39L179.186 1087.39L179.186 1087.39L179.187 1087.39L179.187 1087.39L179.188 1087.39L179.188 1087.39L179.189 1087.39L179.189 1087.39L179.19 1087.39L179.191 1087.39L179.191 1087.39L179.192 1087.39L179.192 1087.39L179.193 1087.39L179.193 1087.39L179.194 1087.39L179.194 1087.39L179.195 1087.39L179.195 1087.39L179.196 1087.39L179.196 1087.39L179.197 1087.39L179.198 1087.39L179.198 1087.39L179.199 1087.39L179.199 1087.39L179.2 1087.39L179.2 1087.39L179.201 1087.39L179.201 1087.39L179.202 1087.39L179.202 1087.39L179.203 1087.39L179.203 1087.39L179.204 1087.39L179.205 1087.39L179.205 1087.38L179.206 1087.38L179.206 1087.38L179.207 1087.38L179.207 1087.38L179.208 1087.38L179.208 1087.38L179.209 1087.38L179.209 1087.38L179.21 1087.38L179.21 1087.38L179.211 1087.38L179.212 1087.38L179.212 1087.38L179.213 1087.38L179.213 1087.38L179.214 1087.38L179.214 1087.38L179.215 1087.38L179.215 1087.38L179.216 1087.38L179.216 1087.38L179.217 1087.38L179.218 1087.38L179.218 1087.38L179.219 1087.38L179.219 1087.38L179.22 1087.38L179.22 1087.38L179.221 1087.38L179.221 1087.38L179.222 1087.38L179.222 1087.38L179.223 1087.38L179.223 1087.38L179.224 1087.38L179.225 1087.38L179.225 1087.38L179.226 1087.38L179.226 1087.38L179.227 1087.38L179.227 1087.38L179.228 1087.38L179.228 1087.38L179.229 1087.38L179.229 1087.38L179.23 1087.38L179.23 1087.38L179.231 1087.37L179.232 1087.37L179.232 1087.37L179.233 1087.37L179.233 1087.37L179.234 1087.37L179.234 1087.37L179.235 1087.37L179.235 1087.37L179.236 1087.37L179.236 1087.37L179.237 1087.37L179.237 1087.37L179.238 1087.37L179.239 1087.37L179.239 1087.37L179.24 1087.37L179.24 1087.37L179.241 1087.37L179.241 1087.37L179.242 1087.37L179.242 1087.37L179.243 1087.37L179.243 1087.37L179.244 1087.37L179.244 1087.37L179.245 1087.37L179.246 1087.37L179.246 1087.37L179.247 1087.37L179.247 1087.37L179.248 1087.37L179.248 1087.37L179.249 1087.37L179.249 1087.37L179.25 1087.37L179.25 1087.37L179.251 1087.37L179.251 1087.37L179.252 1087.37L179.253 1087.37L179.253 1087.37L179.254 1087.37L179.254 1087.37L179.255 1087.37L179.255 1087.37L179.256 1087.37L179.256 1087.37L179.257 1087.37L179.257 1087.36L179.258 1087.36L179.258 1087.36L179.259 1087.36L179.259 1087.36L179.26 1087.36L179.261 1087.36L179.261 1087.36L179.262 1087.36L179.262 1087.36L179.263 1087.36L179.263 1087.36L179.264 1087.36L179.264 1087.36L179.265 1087.36L179.265 1087.36L179.266 1087.36L179.266 1087.36L179.267 1087.36L179.267 1087.36L179.268 1087.36L179.269 1087.36L179.269 1087.36L179.27 1087.36L179.27 1087.36L179.271 1087.36L179.271 1087.36L179.272 1087.36L179.272 1087.36L179.273 1087.36L179.273 1087.36L179.274 1087.36L179.274 1087.36L179.275 1087.36L179.275 1087.36L179.276 1087.36L179.277 1087.36L179.277 1087.36L179.278 1087.36L179.278 1087.36L179.279 1087.36L179.279 1087.36L179.28 1087.36L179.28 1087.36L179.281 1087.36L179.281 1087.36L179.282 1087.36L179.282 1087.36L179.283 1087.36L179.283 1087.35L179.284 1087.35L179.285 1087.35L179.285 1087.35L179.286 1087.35L179.286 1087.35L179.287 1087.35L179.287 1087.35L179.288 1087.35L179.288 1087.35L179.289 1087.35L179.289 1087.35L179.29 1087.35L179.29 1087.35L179.291 1087.35L179.291 1087.35L179.292 1087.35L179.292 1087.35L179.293 1087.35L179.293 1087.35L179.294 1087.35L179.295 1087.35L179.295 1087.35L179.296 1087.35L179.296 1087.35L179.297 1087.35L179.297 1087.35L179.298 1087.35L179.298 1087.35L179.299 1087.35L179.299 1087.35L179.3 1087.35L179.3 1087.35L179.301 1087.35L179.301 1087.35L179.302 1087.35L179.302 1087.35L179.303 1087.35L179.303 1087.35L179.304 1087.35L179.305 1087.35L179.305 1087.35L179.306 1087.35L179.306 1087.35L179.307 1087.35L179.307 1087.35L179.308 1087.35L179.308 1087.35L179.309 1087.35L179.309 1087.34L179.31 1087.34L179.31 1087.34L179.311 1087.34L179.311 1087.34L179.312 1087.34L179.312 1087.34L179.313 1087.34L179.313 1087.34L179.314 1087.34L179.314 1087.34L179.315 1087.34L179.315 1087.34L179.316 1087.34L179.316 1087.34L179.317 1087.34L179.318 1087.34L179.318 1087.34L179.319 1087.34L179.319 1087.34L179.32 1087.34L179.32 1087.34L179.321 1087.34L179.321 1087.34L179.322 1087.34L179.322 1087.34L179.323 1087.34L179.323 1087.34L179.324 1087.34L179.324 1087.34L179.325 1087.34L179.325 1087.34L179.326 1087.34L179.326 1087.34L179.327 1087.34L179.327 1087.34L179.328 1087.34L179.328 1087.34L179.329 1087.34L179.329 1087.34L179.33 1087.34L179.33 1087.34L179.331 1087.34L179.331 1087.34L179.332 1087.34L179.332 1087.34L179.333 1087.34L179.333 1087.34L179.334 1087.34L179.334 1087.34L179.335 1087.34L179.336 1087.33L179.336 1087.33L179.337 1087.33L179.337 1087.33L179.338 1087.33L179.338 1087.33L179.339 1087.33L179.339 1087.33L179.34 1087.33L179.34 1087.33L179.341 1087.33L179.341 1087.33L179.342 1087.33L179.342 1087.33L179.343 1087.33L179.343 1087.33L179.344 1087.33L179.344 1087.33L179.345 1087.33L179.345 1087.33L179.346 1087.33L179.346 1087.33L179.347 1087.33Z" stroke="#8B8686" stroke-width="1.39559"/>
<path d="M206.054 1056.9C208.27 1056.23 210.705 1056.87 212.876 1058.57C215.045 1060.26 216.897 1062.99 217.876 1066.36C218.855 1069.73 218.76 1073.05 217.847 1075.68C216.934 1078.31 215.231 1080.2 213.015 1080.86C210.799 1081.53 208.363 1080.9 206.193 1079.2C204.024 1077.5 202.171 1074.77 201.193 1071.4C200.214 1068.03 200.309 1064.71 201.222 1062.09C202.134 1059.46 203.838 1057.57 206.054 1056.9Z" stroke="#8B8686" stroke-width="1.39559"/>
<path d="M179.749 1047.18C181.965 1046.51 184.4 1047.14 186.571 1048.84C188.74 1050.54 190.592 1053.27 191.571 1056.64C192.55 1060.01 192.454 1063.33 191.542 1065.96C190.629 1068.59 188.926 1070.47 186.71 1071.14C184.494 1071.81 182.058 1071.18 179.888 1069.48C177.718 1067.78 175.866 1065.05 174.887 1061.68C173.908 1058.31 174.004 1054.99 174.916 1052.36C175.829 1049.73 177.533 1047.85 179.749 1047.18Z" stroke="#8B8686" stroke-width="1.39559"/>
<path d="M152.618 1089.96C154.059 1093.15 154.428 1096.45 153.893 1099.18C153.358 1101.92 151.936 1104.03 149.835 1105.01C147.733 1105.99 145.233 1105.72 142.847 1104.35C140.462 1102.98 138.247 1100.55 136.806 1097.36C135.366 1094.16 134.996 1090.87 135.531 1088.13C136.067 1085.4 137.489 1083.29 139.59 1082.3C141.691 1081.32 144.191 1081.6 146.578 1082.96C148.962 1084.33 151.178 1086.76 152.618 1089.96Z" stroke="#8B8686" stroke-width="1.39559"/>
<path d="M166.14 1065.03C167.58 1068.22 167.95 1071.52 167.415 1074.25C166.879 1076.98 165.457 1079.1 163.356 1080.08C161.255 1081.06 158.754 1080.79 156.368 1079.42C153.983 1078.05 151.768 1075.62 150.328 1072.43C148.887 1069.23 148.517 1065.94 149.052 1063.2C149.588 1060.47 151.01 1058.36 153.111 1057.37C155.212 1056.39 157.713 1056.67 160.099 1058.03C162.484 1059.4 164.699 1061.83 166.14 1065.03Z" stroke="#8B8686" stroke-width="1.39559"/>
</g>
<g opacity="0.5">
<g clip-path="url(#clip0_240_3621)">
<g opacity="0.38">
<path d="M149.903 567.638C142.641 566.31 135.889 562.311 131.168 556.548C126.452 550.785 123.809 543.306 123.844 535.803C123.855 533.574 124.112 531.283 125.163 529.326C127.363 525.234 132.664 523.65 137.133 524.677C141.601 525.704 145.328 528.808 148.446 532.221C146.736 528.343 149.467 523.477 153.403 522.025C157.338 520.574 161.847 521.938 165.204 524.47C167.961 526.55 170.181 529.462 171.102 532.824C172.36 537.424 171.092 542.439 168.712 546.557C166.333 550.676 162.921 554.069 159.558 557.407C156.194 560.741 152.831 564.075 149.467 567.409" fill="#D15E59"/>
</g>
<path d="M144.847 566.995C135.876 561.674 126.863 555.166 122.645 545.139C121.631 542.73 120.943 540.172 120.672 537.566C120.402 534.96 120.504 532.343 121.299 529.925C122.037 527.686 123.525 525.937 125.686 525.031C127.679 524.192 130.006 524.139 132.084 524.65C137.486 525.972 141.051 530.935 143.888 535.431C144.197 535.92 145.082 535.862 145.08 535.17C145.079 532.926 145.255 530.661 145.808 528.485C146.31 526.499 147.118 524.49 148.542 522.996C150.066 521.396 152.154 520.576 154.344 520.755C156.766 520.949 159.022 522.227 160.636 524.04C164.016 527.833 164.583 533.539 163.451 538.362C162.191 543.722 159.068 548.389 155.957 552.807C151.837 558.66 147.681 564.486 143.54 570.326C143.064 571 144.124 571.693 144.601 571.024C148.528 565.485 152.46 559.944 156.383 554.402C159.714 549.698 163.134 544.783 164.571 539.091C165.861 533.974 165.392 528.059 162.092 523.805C158.982 519.794 153.109 517.891 148.777 521.09C144.444 524.29 143.812 530.279 143.819 535.104L145.011 534.843C142.271 530.502 138.992 525.915 134.095 523.952C129.824 522.242 124.176 522.853 121.369 526.907C119.863 529.082 119.39 531.868 119.305 534.481C119.219 537.239 119.619 540.01 120.409 542.642C122.038 548.063 125.182 552.873 129.096 556.87C133.509 561.372 138.779 564.884 144.159 568.074C144.859 568.491 145.551 567.411 144.847 566.995Z" fill="#D15E59"/>
</g>
</g>
<g opacity="0.5">
<g clip-path="url(#clip1_240_3621)">
<g opacity="0.38">
<path d="M1727.86 1194.95C1723.93 1188.58 1722.28 1180.8 1723.27 1173.36C1724.27 1165.92 1727.91 1158.89 1733.37 1153.87C1734.99 1152.38 1736.82 1151.03 1738.95 1150.5C1743.4 1149.41 1748.12 1152.34 1750.39 1156.4C1752.65 1160.46 1752.92 1165.36 1752.54 1170.01C1754.2 1166.11 1759.57 1164.89 1763.27 1166.88C1766.98 1168.87 1769.03 1173.19 1769.46 1177.42C1769.81 1180.9 1769.19 1184.53 1767.38 1187.49C1764.89 1191.54 1760.4 1193.96 1755.81 1194.93C1751.23 1195.91 1746.47 1195.63 1741.78 1195.34C1737.1 1195.05 1732.42 1194.76 1727.73 1194.46" fill="#D15E59"/>
</g>
<path d="M1724.92 1190.7C1722.73 1180.36 1721.37 1169.18 1725.79 1159.25C1726.86 1156.87 1728.25 1154.62 1729.95 1152.67C1731.66 1150.71 1733.62 1149.02 1735.91 1147.99C1738.03 1147.04 1740.3 1146.99 1742.42 1148.01C1744.37 1148.94 1745.97 1150.66 1747 1152.57C1749.69 1157.54 1748.49 1163.56 1747.15 1168.73C1747 1169.29 1747.64 1169.92 1748.14 1169.45C1749.76 1167.94 1751.52 1166.55 1753.47 1165.5C1755.25 1164.54 1757.25 1163.8 1759.29 1163.87C1761.48 1163.94 1763.48 1164.96 1764.83 1166.73C1766.32 1168.69 1766.91 1171.25 1766.69 1173.69C1766.22 1178.79 1762.47 1183.06 1758.21 1185.45C1753.47 1188.11 1747.99 1188.9 1742.69 1189.53C1735.67 1190.36 1728.65 1191.15 1721.62 1191.96C1720.82 1192.05 1721.03 1193.32 1721.83 1193.23C1728.49 1192.46 1735.16 1191.7 1741.82 1190.92C1747.47 1190.27 1753.34 1189.53 1758.43 1186.79C1763.01 1184.31 1766.98 1179.98 1767.84 1174.63C1768.65 1169.58 1766.07 1163.87 1760.83 1162.76C1755.6 1161.65 1750.83 1165.2 1747.34 1168.46L1748.33 1169.18C1749.63 1164.19 1750.74 1158.63 1748.87 1153.62C1747.23 1149.25 1742.98 1145.4 1738.15 1146.02C1735.56 1146.34 1733.22 1147.86 1731.27 1149.56C1729.21 1151.35 1727.47 1153.52 1726.1 1155.88C1723.27 1160.76 1721.9 1166.37 1721.64 1172.01C1721.35 1178.37 1722.36 1184.71 1723.67 1190.91C1723.84 1191.72 1725.09 1191.51 1724.92 1190.7Z" fill="#D15E59"/>
</g>
</g>
<g opacity="0.5">
<path d="M181.892 124.613C174.606 122.47 170.93 118.92 165.869 121.769C165.807 121.804 165.736 121.843 165.673 121.878C165.611 121.913 165.539 121.953 165.477 121.988C160.397 124.8 161.103 129.939 158.929 137.351C155.396 149.441 154.34 155.937 160.15 159.84C165.477 163.427 172.917 158.385 177.691 151.158C178.954 149.236 181.084 148.047 183.35 147.998C191.744 147.78 199.413 144.095 199.98 137.615C200.678 129.611 193.771 128.11 181.888 124.627L181.892 124.613Z" fill="#D2CAC8"/>
<path d="M193.826 101.64C191.537 96.5306 186.716 93.7754 183.058 95.4859C179.4 97.1964 178.29 102.725 180.58 107.834C182.869 112.944 187.69 115.699 191.348 113.988C195.006 112.278 196.115 106.749 193.826 101.64Z" fill="#D2CAC8"/>
<path d="M172.663 97.115C170.374 92.0057 165.553 89.2505 161.895 90.961C158.237 92.6715 157.127 98.2001 159.416 103.309C161.706 108.419 166.527 111.174 170.185 109.463C173.843 107.753 174.952 102.224 172.663 97.115Z" fill="#D2CAC8"/>
<path d="M145.666 139.419C149.048 137.199 149.372 131.57 146.389 126.846C143.406 122.122 138.245 120.093 134.862 122.313C131.48 124.534 131.156 130.163 134.139 134.887C137.122 139.61 142.283 141.64 145.666 139.419Z" fill="#D2CAC8"/>
<path d="M153.343 118.85C156.726 116.63 157.049 111.001 154.066 106.277C151.083 101.553 145.922 99.5237 142.539 101.744C139.157 103.964 138.833 109.593 141.816 114.317C144.8 119.041 149.96 121.07 153.343 118.85Z" fill="#D2CAC8"/>
<path d="M168.837 122.047L168.839 122.046C171.219 120.665 173.27 120.784 175.725 121.545C176.759 121.866 177.841 122.293 179.048 122.77C179.302 122.87 179.56 122.972 179.825 123.076C181.165 123.601 182.64 124.158 184.297 124.653L184.291 124.674L184.955 124.859C185.672 125.059 186.369 125.251 187.047 125.439C192.269 126.881 196.332 128.004 199.139 129.582C200.704 130.461 201.82 131.453 202.518 132.671C203.213 133.882 203.532 135.383 203.386 137.353C203.158 140.414 201.25 142.896 198.253 144.684C195.252 146.475 191.222 147.521 186.957 147.688C184.38 147.779 181.976 149.162 180.568 151.367C178.185 155.077 175.138 158.203 172.049 159.953C168.963 161.701 165.952 162.025 163.458 160.393L163.458 160.393C162.024 159.457 161.037 158.378 160.394 157.113C159.749 155.844 159.43 154.347 159.396 152.545C159.329 148.91 160.424 144.176 162.179 137.871C162.726 135.912 163.085 134.109 163.395 132.475C163.431 132.286 163.466 132.099 163.501 131.916C163.769 130.5 164.008 129.234 164.32 128.084C165.013 125.527 166.036 123.649 168.432 122.281L168.434 122.28L168.434 122.28L168.434 122.279L168.435 122.279L168.435 122.279L168.436 122.279L168.436 122.278L168.436 122.278L168.437 122.278L168.437 122.278L168.437 122.278L168.438 122.277L168.438 122.277L168.439 122.277L168.439 122.277L168.439 122.276L168.44 122.276L168.44 122.276L168.441 122.276L168.441 122.276L168.441 122.275L168.442 122.275L168.442 122.275L168.442 122.275L168.443 122.275L168.443 122.274L168.444 122.274L168.444 122.274L168.444 122.274L168.445 122.273L168.445 122.273L168.445 122.273L168.446 122.273L168.446 122.273L168.447 122.272L168.447 122.272L168.447 122.272L168.448 122.272L168.448 122.271L168.449 122.271L168.449 122.271L168.449 122.271L168.45 122.271L168.45 122.27L168.45 122.27L168.451 122.27L168.451 122.27L168.452 122.269L168.452 122.269L168.452 122.269L168.453 122.269L168.453 122.269L168.454 122.268L168.454 122.268L168.454 122.268L168.455 122.268L168.455 122.267L168.455 122.267L168.456 122.267L168.456 122.267L168.457 122.267L168.457 122.266L168.457 122.266L168.458 122.266L168.458 122.266L168.459 122.265L168.459 122.265L168.459 122.265L168.46 122.265L168.46 122.265L168.461 122.264L168.461 122.264L168.461 122.264L168.462 122.264L168.462 122.263L168.462 122.263L168.463 122.263L168.463 122.263L168.464 122.263L168.464 122.262L168.464 122.262L168.465 122.262L168.465 122.262L168.466 122.261L168.466 122.261L168.466 122.261L168.467 122.261L168.467 122.26L168.468 122.26L168.468 122.26L168.468 122.26L168.469 122.26L168.469 122.259L168.47 122.259L168.47 122.259L168.47 122.259L168.471 122.258L168.471 122.258L168.471 122.258L168.472 122.258L168.472 122.258L168.473 122.257L168.473 122.257L168.473 122.257L168.474 122.257L168.474 122.256L168.475 122.256L168.475 122.256L168.475 122.256L168.476 122.256L168.476 122.255L168.477 122.255L168.477 122.255L168.477 122.255L168.478 122.254L168.478 122.254L168.479 122.254L168.479 122.254L168.479 122.253L168.48 122.253L168.48 122.253L168.481 122.253L168.481 122.253L168.481 122.252L168.482 122.252L168.482 122.252L168.483 122.252L168.483 122.251L168.483 122.251L168.484 122.251L168.484 122.251L168.485 122.251L168.485 122.25L168.485 122.25L168.486 122.25L168.486 122.25L168.486 122.249L168.487 122.249L168.487 122.249L168.488 122.249L168.488 122.248L168.488 122.248L168.489 122.248L168.489 122.248L168.49 122.248L168.49 122.247L168.49 122.247L168.491 122.247L168.491 122.247L168.492 122.246L168.492 122.246L168.492 122.246L168.493 122.246L168.493 122.245L168.494 122.245L168.494 122.245L168.494 122.245L168.495 122.245L168.495 122.244L168.496 122.244L168.496 122.244L168.496 122.244L168.497 122.243L168.497 122.243L168.498 122.243L168.498 122.243L168.498 122.242L168.499 122.242L168.499 122.242L168.5 122.242L168.5 122.242L168.5 122.241L168.501 122.241L168.501 122.241L168.502 122.241L168.502 122.24L168.502 122.24L168.503 122.24L168.503 122.24L168.504 122.239L168.504 122.239L168.504 122.239L168.505 122.239L168.505 122.239L168.506 122.238L168.506 122.238L168.506 122.238L168.507 122.238L168.507 122.237L168.508 122.237L168.508 122.237L168.508 122.237L168.509 122.236L168.509 122.236L168.51 122.236L168.51 122.236L168.51 122.236L168.511 122.235L168.511 122.235L168.512 122.235L168.512 122.235L168.512 122.234L168.513 122.234L168.513 122.234L168.514 122.234L168.514 122.233L168.514 122.233L168.515 122.233L168.515 122.233L168.516 122.233L168.516 122.232L168.517 122.232L168.517 122.232L168.517 122.232L168.518 122.231L168.518 122.231L168.519 122.231L168.519 122.231L168.519 122.23L168.52 122.23L168.52 122.23L168.521 122.23L168.521 122.23L168.521 122.229L168.522 122.229L168.522 122.229L168.523 122.229L168.523 122.228L168.523 122.228L168.524 122.228L168.524 122.228L168.525 122.227L168.525 122.227L168.525 122.227L168.526 122.227L168.526 122.227L168.527 122.226L168.527 122.226L168.527 122.226L168.528 122.226L168.528 122.225L168.529 122.225L168.529 122.225L168.529 122.225L168.53 122.224L168.53 122.224L168.531 122.224L168.531 122.224L168.531 122.224L168.532 122.223L168.532 122.223L168.533 122.223L168.533 122.223L168.533 122.222L168.534 122.222L168.534 122.222L168.535 122.222L168.535 122.221L168.535 122.221L168.536 122.221L168.536 122.221L168.537 122.22L168.537 122.22L168.537 122.22L168.538 122.22L168.538 122.22L168.539 122.219L168.539 122.219L168.539 122.219L168.54 122.219L168.54 122.218L168.541 122.218L168.541 122.218L168.541 122.218L168.542 122.217L168.542 122.217L168.543 122.217L168.543 122.217L168.543 122.217L168.544 122.216L168.544 122.216L168.545 122.216L168.545 122.216L168.546 122.215L168.546 122.215L168.546 122.215L168.547 122.215L168.547 122.214L168.548 122.214L168.548 122.214L168.548 122.214L168.549 122.214L168.549 122.213L168.55 122.213L168.55 122.213L168.55 122.213L168.551 122.212L168.551 122.212L168.552 122.212L168.552 122.212L168.552 122.211L168.553 122.211L168.553 122.211L168.554 122.211L168.554 122.211L168.554 122.21L168.555 122.21L168.555 122.21L168.556 122.21L168.556 122.209L168.556 122.209L168.557 122.209L168.557 122.209L168.558 122.208L168.558 122.208L168.558 122.208L168.559 122.208L168.559 122.208L168.56 122.207L168.56 122.207L168.56 122.207L168.561 122.207L168.561 122.206L168.562 122.206L168.562 122.206L168.562 122.206L168.563 122.205L168.563 122.205L168.564 122.205L168.564 122.205L168.564 122.205L168.565 122.204L168.565 122.204L168.566 122.204L168.566 122.204L168.566 122.203L168.567 122.203L168.567 122.203L168.568 122.203L168.568 122.202L168.568 122.202L168.569 122.202L168.569 122.202L168.57 122.202L168.57 122.201L168.57 122.201L168.571 122.201L168.571 122.201L168.572 122.2L168.572 122.2L168.572 122.2L168.573 122.2L168.573 122.199L168.574 122.199L168.574 122.199L168.574 122.199L168.575 122.199L168.575 122.198L168.576 122.198L168.576 122.198L168.576 122.198L168.577 122.197L168.577 122.197L168.578 122.197L168.578 122.197L168.578 122.196L168.579 122.196L168.579 122.196L168.58 122.196L168.58 122.196L168.58 122.195L168.581 122.195L168.581 122.195L168.582 122.195L168.582 122.194L168.582 122.194L168.583 122.194L168.583 122.194L168.584 122.193L168.584 122.193L168.584 122.193L168.585 122.193L168.585 122.193L168.586 122.192L168.586 122.192L168.586 122.192L168.587 122.192L168.587 122.191L168.588 122.191L168.588 122.191L168.588 122.191L168.589 122.191L168.589 122.19L168.59 122.19L168.59 122.19L168.59 122.19L168.591 122.189L168.591 122.189L168.591 122.189L168.592 122.189L168.592 122.188L168.593 122.188L168.593 122.188L168.593 122.188L168.594 122.188L168.594 122.187L168.595 122.187L168.595 122.187L168.595 122.187L168.596 122.186L168.596 122.186L168.597 122.186L168.597 122.186L168.597 122.186L168.598 122.185L168.598 122.185L168.599 122.185L168.599 122.185L168.599 122.184L168.6 122.184L168.6 122.184L168.601 122.184L168.601 122.184L168.601 122.183L168.602 122.183L168.602 122.183L168.602 122.183L168.603 122.182L168.603 122.182L168.604 122.182L168.604 122.182L168.604 122.181L168.605 122.181L168.605 122.181L168.606 122.181L168.606 122.181L168.606 122.18L168.607 122.18L168.607 122.18L168.608 122.18L168.608 122.179L168.608 122.179L168.609 122.179L168.609 122.179L168.61 122.179L168.61 122.178L168.61 122.178L168.611 122.178L168.611 122.178L168.611 122.177L168.612 122.177L168.612 122.177L168.613 122.177L168.613 122.177L168.613 122.176L168.614 122.176L168.614 122.176L168.615 122.176L168.615 122.175L168.615 122.175L168.616 122.175L168.616 122.175L168.616 122.175L168.617 122.174L168.617 122.174L168.618 122.174L168.618 122.174L168.618 122.173L168.619 122.173L168.619 122.173L168.62 122.173L168.62 122.173L168.62 122.172L168.621 122.172L168.621 122.172L168.621 122.172L168.622 122.171L168.622 122.171L168.623 122.171L168.623 122.171L168.623 122.171L168.624 122.17L168.624 122.17L168.625 122.17L168.625 122.17L168.625 122.169L168.626 122.169L168.626 122.169L168.626 122.169L168.627 122.169L168.627 122.168L168.628 122.168L168.628 122.168L168.628 122.168L168.629 122.167L168.629 122.167L168.629 122.167L168.63 122.167L168.63 122.167L168.631 122.166L168.631 122.166L168.631 122.166L168.632 122.166L168.632 122.166L168.633 122.165L168.633 122.165L168.633 122.165L168.634 122.165L168.634 122.164L168.634 122.164L168.635 122.164L168.635 122.164L168.636 122.164L168.636 122.163L168.636 122.163L168.637 122.163L168.637 122.163L168.637 122.162L168.638 122.162L168.638 122.162L168.639 122.162L168.639 122.162L168.639 122.161L168.64 122.161L168.64 122.161L168.64 122.161L168.641 122.161L168.641 122.16L168.642 122.16L168.642 122.16L168.642 122.16L168.643 122.159L168.643 122.159L168.643 122.159L168.644 122.159L168.644 122.159L168.645 122.158L168.645 122.158L168.645 122.158L168.646 122.158L168.646 122.157L168.647 122.157L168.647 122.157L168.647 122.157L168.648 122.157L168.648 122.156L168.648 122.156L168.649 122.156L168.649 122.156L168.65 122.155L168.65 122.155L168.65 122.155L168.651 122.155L168.651 122.155L168.652 122.154L168.652 122.154L168.652 122.154L168.653 122.154L168.653 122.153L168.653 122.153L168.654 122.153L168.654 122.153L168.655 122.153L168.655 122.152L168.655 122.152L168.656 122.152L168.656 122.152L168.657 122.151L168.657 122.151L168.657 122.151L168.658 122.151L168.658 122.151L168.658 122.15L168.659 122.15L168.659 122.15L168.66 122.15L168.66 122.149L168.66 122.149L168.661 122.149L168.661 122.149L168.662 122.149L168.662 122.148L168.662 122.148L168.663 122.148L168.663 122.148L168.664 122.147L168.664 122.147L168.664 122.147L168.665 122.147L168.665 122.147L168.665 122.146L168.666 122.146L168.666 122.146L168.667 122.146L168.667 122.145L168.667 122.145L168.668 122.145L168.668 122.145L168.669 122.145L168.669 122.144L168.669 122.144L168.67 122.144L168.67 122.144L168.671 122.143L168.671 122.143L168.671 122.143L168.672 122.143L168.672 122.143L168.672 122.142L168.673 122.142L168.673 122.142L168.674 122.142L168.674 122.141L168.674 122.141L168.675 122.141L168.675 122.141L168.676 122.14L168.676 122.14L168.676 122.14L168.677 122.14L168.677 122.14L168.678 122.139L168.678 122.139L168.678 122.139L168.679 122.139L168.679 122.138L168.68 122.138L168.68 122.138L168.68 122.138L168.681 122.138L168.681 122.137L168.682 122.137L168.682 122.137L168.682 122.137L168.683 122.136L168.683 122.136L168.684 122.136L168.684 122.136L168.684 122.135L168.685 122.135L168.685 122.135L168.686 122.135L168.686 122.135L168.686 122.134L168.687 122.134L168.687 122.134L168.688 122.134L168.688 122.133L168.688 122.133L168.689 122.133L168.689 122.133L168.689 122.133L168.69 122.132L168.69 122.132L168.691 122.132L168.691 122.132L168.691 122.131L168.692 122.131L168.692 122.131L168.693 122.131L168.693 122.13L168.693 122.13L168.694 122.13L168.694 122.13L168.695 122.13L168.695 122.129L168.695 122.129L168.696 122.129L168.696 122.129L168.697 122.128L168.697 122.128L168.697 122.128L168.698 122.128L168.698 122.127L168.699 122.127L168.699 122.127L168.699 122.127L168.7 122.127L168.7 122.126L168.701 122.126L168.701 122.126L168.701 122.126L168.702 122.125L168.702 122.125L168.703 122.125L168.703 122.125L168.703 122.124L168.704 122.124L168.704 122.124L168.705 122.124L168.705 122.124L168.705 122.123L168.706 122.123L168.706 122.123L168.707 122.123L168.707 122.122L168.707 122.122L168.708 122.122L168.708 122.122L168.709 122.121L168.709 122.121L168.709 122.121L168.71 122.121L168.71 122.121L168.711 122.12L168.711 122.12L168.711 122.12L168.712 122.12L168.712 122.119L168.713 122.119L168.713 122.119L168.713 122.119L168.714 122.118L168.714 122.118L168.715 122.118L168.715 122.118L168.715 122.118L168.716 122.117L168.716 122.117L168.717 122.117L168.717 122.117L168.718 122.116L168.718 122.116L168.718 122.116L168.719 122.116L168.719 122.115L168.72 122.115L168.72 122.115L168.72 122.115L168.721 122.115L168.721 122.114L168.722 122.114L168.722 122.114L168.722 122.114L168.723 122.113L168.723 122.113L168.724 122.113L168.724 122.113L168.724 122.112L168.725 122.112L168.725 122.112L168.726 122.112L168.726 122.112L168.726 122.111L168.727 122.111L168.727 122.111L168.728 122.111L168.728 122.11L168.728 122.11L168.729 122.11L168.729 122.11L168.73 122.109L168.73 122.109L168.73 122.109L168.731 122.109L168.731 122.109L168.732 122.108L168.732 122.108L168.732 122.108L168.733 122.108L168.733 122.107L168.734 122.107L168.734 122.107L168.734 122.107L168.735 122.106L168.735 122.106L168.736 122.106L168.736 122.106L168.736 122.105L168.737 122.105L168.737 122.105L168.738 122.105L168.738 122.105L168.738 122.104L168.739 122.104L168.739 122.104L168.74 122.104L168.74 122.103L168.74 122.103L168.741 122.103L168.741 122.103L168.742 122.102L168.742 122.102L168.742 122.102L168.743 122.102L168.743 122.102L168.744 122.101L168.744 122.101L168.744 122.101L168.745 122.101L168.745 122.1L168.746 122.1L168.746 122.1L168.747 122.1L168.747 122.099L168.747 122.099L168.748 122.099L168.748 122.099L168.749 122.099L168.749 122.098L168.749 122.098L168.75 122.098L168.75 122.098L168.751 122.097L168.751 122.097L168.751 122.097L168.752 122.097L168.752 122.096L168.753 122.096L168.753 122.096L168.753 122.096L168.754 122.096L168.754 122.095L168.755 122.095L168.755 122.095L168.755 122.095L168.756 122.094L168.756 122.094L168.757 122.094L168.757 122.094L168.757 122.093L168.758 122.093L168.758 122.093L168.759 122.093L168.759 122.093L168.759 122.092L168.76 122.092L168.76 122.092L168.761 122.092L168.761 122.091L168.761 122.091L168.762 122.091L168.762 122.091L168.763 122.09L168.763 122.09L168.763 122.09L168.764 122.09L168.764 122.09L168.765 122.089L168.765 122.089L168.765 122.089L168.766 122.089L168.766 122.088L168.767 122.088L168.767 122.088L168.767 122.088L168.768 122.087L168.768 122.087L168.769 122.087L168.769 122.087L168.769 122.087L168.77 122.086L168.77 122.086L168.771 122.086L168.771 122.086L168.771 122.085L168.772 122.085L168.772 122.085L168.773 122.085L168.773 122.084L168.773 122.084L168.774 122.084L168.774 122.084L168.775 122.084L168.775 122.083L168.775 122.083L168.776 122.083L168.776 122.083L168.777 122.082L168.777 122.082L168.777 122.082L168.778 122.082L168.778 122.081L168.779 122.081L168.779 122.081L168.779 122.081L168.78 122.081L168.78 122.08L168.781 122.08L168.781 122.08L168.781 122.08L168.782 122.079L168.782 122.079L168.783 122.079L168.783 122.079L168.783 122.078L168.784 122.078L168.784 122.078L168.785 122.078L168.785 122.078L168.785 122.077L168.786 122.077L168.786 122.077L168.787 122.077L168.787 122.076L168.787 122.076L168.788 122.076L168.788 122.076L168.789 122.076L168.789 122.075L168.789 122.075L168.79 122.075L168.79 122.075L168.791 122.074L168.791 122.074L168.791 122.074L168.792 122.074L168.792 122.073L168.792 122.073L168.793 122.073L168.793 122.073L168.794 122.073L168.794 122.072L168.794 122.072L168.795 122.072L168.795 122.072L168.796 122.071L168.796 122.071L168.796 122.071L168.797 122.071L168.797 122.071L168.798 122.07L168.798 122.07L168.798 122.07L168.799 122.07L168.799 122.069L168.8 122.069L168.8 122.069L168.8 122.069L168.801 122.068L168.801 122.068L168.802 122.068L168.802 122.068L168.802 122.068L168.803 122.067L168.803 122.067L168.804 122.067L168.804 122.067L168.804 122.066L168.805 122.066L168.805 122.066L168.805 122.066L168.806 122.066L168.806 122.065L168.807 122.065L168.807 122.065L168.807 122.065L168.808 122.064L168.808 122.064L168.809 122.064L168.809 122.064L168.809 122.064L168.81 122.063L168.81 122.063L168.811 122.063L168.811 122.063L168.811 122.062L168.812 122.062L168.812 122.062L168.812 122.062L168.813 122.062L168.813 122.061L168.814 122.061L168.814 122.061L168.814 122.061L168.815 122.06L168.815 122.06L168.816 122.06L168.816 122.06L168.816 122.06L168.817 122.059L168.817 122.059L168.818 122.059L168.818 122.059L168.818 122.058L168.819 122.058L168.819 122.058L168.819 122.058L168.82 122.058L168.82 122.057L168.821 122.057L168.821 122.057L168.821 122.057L168.822 122.056L168.822 122.056L168.823 122.056L168.823 122.056L168.823 122.056L168.824 122.055L168.824 122.055L168.824 122.055L168.825 122.055L168.825 122.054L168.826 122.054L168.826 122.054L168.826 122.054L168.827 122.054L168.827 122.053L168.827 122.053L168.828 122.053L168.828 122.053L168.829 122.052L168.829 122.052L168.829 122.052L168.83 122.052L168.83 122.052L168.831 122.051L168.831 122.051L168.831 122.051L168.832 122.051L168.832 122.05L168.832 122.05L168.833 122.05L168.833 122.05L168.834 122.05L168.834 122.049L168.834 122.049L168.835 122.049L168.835 122.049L168.835 122.049L168.836 122.048L168.836 122.048L168.837 122.048L168.837 122.048L168.837 122.047Z" stroke="#8B8686" stroke-width="1.39559"/>
<path d="M186.265 94.5856C187.896 93.7965 189.858 93.9768 191.754 95.0273C193.649 96.0772 195.423 97.9745 196.589 100.489C197.755 103.004 198.068 105.609 197.663 107.771C197.258 109.935 196.151 111.599 194.52 112.388C192.889 113.177 190.927 112.997 189.031 111.946C187.136 110.897 185.362 108.999 184.196 106.484C183.029 103.969 182.716 101.365 183.122 99.2028C183.527 97.0392 184.634 95.3747 186.265 94.5856Z" stroke="#8B8686" stroke-width="1.39559"/>
<path d="M164.264 90.1852C165.895 89.3961 167.857 89.5764 169.753 90.6269C171.648 91.6768 173.422 93.5741 174.588 96.089C175.755 98.604 176.067 101.208 175.662 103.371C175.257 105.534 174.15 107.199 172.519 107.988C170.888 108.777 168.926 108.597 167.03 107.546C165.135 106.496 163.361 104.599 162.195 102.084C161.029 99.569 160.716 96.9648 161.121 94.8025C161.526 92.6388 162.633 90.9743 164.264 90.1852Z" stroke="#8B8686" stroke-width="1.39559"/>
<path d="M147.793 127.362C149.3 129.681 149.975 132.212 149.877 134.409C149.779 136.608 148.917 138.415 147.411 139.431C145.906 140.448 143.937 140.552 141.913 139.787C139.89 139.022 137.866 137.402 136.359 135.082C134.852 132.763 134.177 130.232 134.275 128.035C134.373 125.836 135.236 124.029 136.741 123.013C138.246 121.997 140.215 121.892 142.239 122.657C144.263 123.422 146.286 125.043 147.793 127.362Z" stroke="#8B8686" stroke-width="1.39559"/>
<path d="M155.479 105.931C156.986 108.25 157.661 110.781 157.563 112.978C157.465 115.177 156.602 116.983 155.097 118C153.592 119.016 151.623 119.121 149.599 118.356C147.575 117.591 145.552 115.97 144.045 113.651C142.538 111.332 141.863 108.801 141.961 106.604C142.059 104.405 142.922 102.598 144.427 101.582C145.932 100.565 147.901 100.461 149.925 101.226C151.949 101.991 153.972 103.611 155.479 105.931Z" stroke="#8B8686" stroke-width="1.39559"/>
</g>
<g opacity="0.5">
<path d="M1818.07 691.064C1815.47 683.889 1816.09 678.802 1810.9 676.395C1810.84 676.365 1810.76 676.331 1810.7 676.301C1810.64 676.271 1810.56 676.237 1810.5 676.207C1805.33 673.764 1801.74 677.389 1794.69 680.032C1783.19 684.354 1777.51 687.359 1777.87 694.384C1778.19 700.832 1786.48 703.862 1794.92 703.435C1797.15 703.316 1799.33 704.335 1800.69 706.142C1805.78 712.811 1813.15 716.834 1818.53 713.442C1825.18 709.252 1822.3 702.765 1818.06 691.069L1818.07 691.064Z" fill="#D2CAC8"/>
<path d="M1843.04 687.193C1845.68 682.309 1845 676.776 1841.53 674.834C1838.06 672.891 1833.11 675.275 1830.47 680.159C1827.83 685.042 1828.5 690.575 1831.97 692.517C1835.45 694.46 1840.4 692.076 1843.04 687.193Z" fill="#D2CAC8"/>
<path d="M1834.09 667.427C1836.73 662.544 1836.06 657.011 1832.59 655.069C1829.12 653.126 1824.16 655.51 1821.52 660.394C1818.88 665.277 1819.56 670.81 1823.03 672.752C1826.5 674.695 1831.45 672.311 1834.09 667.427Z" fill="#D2CAC8"/>
<path d="M1785.19 670.605C1788.9 672.025 1793.47 668.948 1795.4 663.732C1797.33 658.517 1795.89 653.137 1792.18 651.717C1788.47 650.297 1783.9 653.374 1781.97 658.59C1780.04 663.805 1781.48 669.185 1785.19 670.605Z" fill="#D2CAC8"/>
<path d="M1805.77 664.679C1809.48 666.099 1814.05 663.022 1815.98 657.806C1817.91 652.59 1816.47 647.211 1812.76 645.791C1809.05 644.371 1804.48 647.448 1802.55 652.664C1800.62 657.879 1802.06 663.259 1805.77 664.679Z" fill="#D2CAC8"/>
<path d="M1812.39 680.597L1812.4 680.598C1814.76 681.556 1815.86 683.146 1816.74 685.425C1817.11 686.386 1817.43 687.446 1817.79 688.63C1817.86 688.878 1817.94 689.132 1818.02 689.392C1818.42 690.695 1818.88 692.116 1819.48 693.636L1819.46 693.645L1819.73 694.284C1820 694.938 1820.27 695.573 1820.53 696.19C1822.53 700.948 1824.08 704.644 1824.58 707.669C1824.86 709.354 1824.79 710.767 1824.33 712C1823.86 713.226 1822.97 714.345 1821.48 715.393C1819.16 717.017 1816.28 717.056 1813.26 715.874C1810.23 714.689 1807.14 712.298 1804.54 709.211C1802.97 707.324 1800.56 706.335 1798.14 706.584C1794.08 706.989 1790.07 706.554 1787.02 705.28C1783.98 704.007 1782.01 701.958 1781.74 699.151L1781.74 699.15C1781.58 697.532 1781.78 696.163 1782.31 694.943C1782.84 693.718 1783.73 692.6 1785.01 691.515C1787.58 689.325 1791.61 687.355 1797.17 684.949C1798.9 684.202 1800.41 683.406 1801.76 682.675C1801.92 682.59 1802.08 682.507 1802.23 682.424C1803.4 681.789 1804.45 681.223 1805.46 680.778C1807.7 679.791 1809.63 679.453 1811.99 680.431L1811.99 680.432L1811.99 680.432L1811.99 680.432L1811.99 680.433L1811.99 680.433L1811.99 680.433L1811.99 680.433L1811.99 680.433L1811.99 680.433L1812 680.434L1812 680.434L1812 680.434L1812 680.434L1812 680.434L1812 680.434L1812 680.434L1812 680.435L1812 680.435L1812 680.435L1812 680.435L1812 680.435L1812 680.435L1812 680.436L1812 680.436L1812 680.436L1812 680.436L1812 680.436L1812 680.436L1812 680.436L1812 680.437L1812 680.437L1812 680.437L1812 680.437L1812 680.437L1812 680.437L1812.01 680.438L1812.01 680.438L1812.01 680.438L1812.01 680.438L1812.01 680.438L1812.01 680.438L1812.01 680.438L1812.01 680.439L1812.01 680.439L1812.01 680.439L1812.01 680.439L1812.01 680.439L1812.01 680.439L1812.01 680.44L1812.01 680.44L1812.01 680.44L1812.01 680.44L1812.01 680.44L1812.01 680.44L1812.01 680.441L1812.01 680.441L1812.01 680.441L1812.01 680.441L1812.01 680.441L1812.01 680.441L1812.01 680.441L1812.02 680.442L1812.02 680.442L1812.02 680.442L1812.02 680.442L1812.02 680.442L1812.02 680.442L1812.02 680.443L1812.02 680.443L1812.02 680.443L1812.02 680.443L1812.02 680.443L1812.02 680.443L1812.02 680.444L1812.02 680.444L1812.02 680.444L1812.02 680.444L1812.02 680.444L1812.02 680.444L1812.02 680.445L1812.02 680.445L1812.02 680.445L1812.02 680.445L1812.02 680.445L1812.02 680.445L1812.02 680.445L1812.02 680.446L1812.03 680.446L1812.03 680.446L1812.03 680.446L1812.03 680.446L1812.03 680.446L1812.03 680.447L1812.03 680.447L1812.03 680.447L1812.03 680.447L1812.03 680.447L1812.03 680.447L1812.03 680.448L1812.03 680.448L1812.03 680.448L1812.03 680.448L1812.03 680.448L1812.03 680.448L1812.03 680.449L1812.03 680.449L1812.03 680.449L1812.03 680.449L1812.03 680.449L1812.03 680.449L1812.03 680.449L1812.03 680.45L1812.04 680.45L1812.04 680.45L1812.04 680.45L1812.04 680.45L1812.04 680.45L1812.04 680.451L1812.04 680.451L1812.04 680.451L1812.04 680.451L1812.04 680.451L1812.04 680.451L1812.04 680.452L1812.04 680.452L1812.04 680.452L1812.04 680.452L1812.04 680.452L1812.04 680.452L1812.04 680.453L1812.04 680.453L1812.04 680.453L1812.04 680.453L1812.04 680.453L1812.04 680.453L1812.04 680.454L1812.04 680.454L1812.04 680.454L1812.05 680.454L1812.05 680.454L1812.05 680.454L1812.05 680.454L1812.05 680.455L1812.05 680.455L1812.05 680.455L1812.05 680.455L1812.05 680.455L1812.05 680.455L1812.05 680.456L1812.05 680.456L1812.05 680.456L1812.05 680.456L1812.05 680.456L1812.05 680.456L1812.05 680.457L1812.05 680.457L1812.05 680.457L1812.05 680.457L1812.05 680.457L1812.05 680.457L1812.05 680.458L1812.05 680.458L1812.05 680.458L1812.06 680.458L1812.06 680.458L1812.06 680.458L1812.06 680.459L1812.06 680.459L1812.06 680.459L1812.06 680.459L1812.06 680.459L1812.06 680.459L1812.06 680.46L1812.06 680.46L1812.06 680.46L1812.06 680.46L1812.06 680.46L1812.06 680.46L1812.06 680.461L1812.06 680.461L1812.06 680.461L1812.06 680.461L1812.06 680.461L1812.06 680.461L1812.06 680.462L1812.06 680.462L1812.06 680.462L1812.06 680.462L1812.07 680.462L1812.07 680.462L1812.07 680.462L1812.07 680.463L1812.07 680.463L1812.07 680.463L1812.07 680.463L1812.07 680.463L1812.07 680.463L1812.07 680.464L1812.07 680.464L1812.07 680.464L1812.07 680.464L1812.07 680.464L1812.07 680.464L1812.07 680.465L1812.07 680.465L1812.07 680.465L1812.07 680.465L1812.07 680.465L1812.07 680.465L1812.07 680.466L1812.07 680.466L1812.07 680.466L1812.07 680.466L1812.08 680.466L1812.08 680.466L1812.08 680.467L1812.08 680.467L1812.08 680.467L1812.08 680.467L1812.08 680.467L1812.08 680.467L1812.08 680.468L1812.08 680.468L1812.08 680.468L1812.08 680.468L1812.08 680.468L1812.08 680.468L1812.08 680.469L1812.08 680.469L1812.08 680.469L1812.08 680.469L1812.08 680.469L1812.08 680.469L1812.08 680.47L1812.08 680.47L1812.08 680.47L1812.08 680.47L1812.08 680.47L1812.09 680.47L1812.09 680.471L1812.09 680.471L1812.09 680.471L1812.09 680.471L1812.09 680.471L1812.09 680.471L1812.09 680.472L1812.09 680.472L1812.09 680.472L1812.09 680.472L1812.09 680.472L1812.09 680.472L1812.09 680.473L1812.09 680.473L1812.09 680.473L1812.09 680.473L1812.09 680.473L1812.09 680.473L1812.09 680.474L1812.09 680.474L1812.09 680.474L1812.09 680.474L1812.09 680.474L1812.09 680.474L1812.1 680.474L1812.1 680.475L1812.1 680.475L1812.1 680.475L1812.1 680.475L1812.1 680.475L1812.1 680.475L1812.1 680.476L1812.1 680.476L1812.1 680.476L1812.1 680.476L1812.1 680.476L1812.1 680.476L1812.1 680.477L1812.1 680.477L1812.1 680.477L1812.1 680.477L1812.1 680.477L1812.1 680.477L1812.1 680.478L1812.1 680.478L1812.1 680.478L1812.1 680.478L1812.1 680.478L1812.1 680.478L1812.11 680.479L1812.11 680.479L1812.11 680.479L1812.11 680.479L1812.11 680.479L1812.11 680.479L1812.11 680.48L1812.11 680.48L1812.11 680.48L1812.11 680.48L1812.11 680.48L1812.11 680.48L1812.11 680.481L1812.11 680.481L1812.11 680.481L1812.11 680.481L1812.11 680.481L1812.11 680.481L1812.11 680.482L1812.11 680.482L1812.11 680.482L1812.11 680.482L1812.11 680.482L1812.11 680.482L1812.11 680.483L1812.12 680.483L1812.12 680.483L1812.12 680.483L1812.12 680.483L1812.12 680.483L1812.12 680.484L1812.12 680.484L1812.12 680.484L1812.12 680.484L1812.12 680.484L1812.12 680.484L1812.12 680.485L1812.12 680.485L1812.12 680.485L1812.12 680.485L1812.12 680.485L1812.12 680.485L1812.12 680.486L1812.12 680.486L1812.12 680.486L1812.12 680.486L1812.12 680.486L1812.12 680.486L1812.12 680.486L1812.12 680.487L1812.13 680.487L1812.13 680.487L1812.13 680.487L1812.13 680.487L1812.13 680.487L1812.13 680.488L1812.13 680.488L1812.13 680.488L1812.13 680.488L1812.13 680.488L1812.13 680.488L1812.13 680.489L1812.13 680.489L1812.13 680.489L1812.13 680.489L1812.13 680.489L1812.13 680.489L1812.13 680.49L1812.13 680.49L1812.13 680.49L1812.13 680.49L1812.13 680.49L1812.13 680.49L1812.13 680.491L1812.13 680.491L1812.14 680.491L1812.14 680.491L1812.14 680.491L1812.14 680.491L1812.14 680.492L1812.14 680.492L1812.14 680.492L1812.14 680.492L1812.14 680.492L1812.14 680.492L1812.14 680.493L1812.14 680.493L1812.14 680.493L1812.14 680.493L1812.14 680.493L1812.14 680.493L1812.14 680.493L1812.14 680.494L1812.14 680.494L1812.14 680.494L1812.14 680.494L1812.14 680.494L1812.14 680.494L1812.14 680.495L1812.14 680.495L1812.15 680.495L1812.15 680.495L1812.15 680.495L1812.15 680.495L1812.15 680.496L1812.15 680.496L1812.15 680.496L1812.15 680.496L1812.15 680.496L1812.15 680.496L1812.15 680.497L1812.15 680.497L1812.15 680.497L1812.15 680.497L1812.15 680.497L1812.15 680.497L1812.15 680.498L1812.15 680.498L1812.15 680.498L1812.15 680.498L1812.15 680.498L1812.15 680.498L1812.15 680.498L1812.15 680.499L1812.15 680.499L1812.16 680.499L1812.16 680.499L1812.16 680.499L1812.16 680.499L1812.16 680.5L1812.16 680.5L1812.16 680.5L1812.16 680.5L1812.16 680.5L1812.16 680.5L1812.16 680.501L1812.16 680.501L1812.16 680.501L1812.16 680.501L1812.16 680.501L1812.16 680.501L1812.16 680.502L1812.16 680.502L1812.16 680.502L1812.16 680.502L1812.16 680.502L1812.16 680.502L1812.16 680.502L1812.16 680.503L1812.16 680.503L1812.16 680.503L1812.17 680.503L1812.17 680.503L1812.17 680.503L1812.17 680.504L1812.17 680.504L1812.17 680.504L1812.17 680.504L1812.17 680.504L1812.17 680.504L1812.17 680.505L1812.17 680.505L1812.17 680.505L1812.17 680.505L1812.17 680.505L1812.17 680.505L1812.17 680.506L1812.17 680.506L1812.17 680.506L1812.17 680.506L1812.17 680.506L1812.17 680.506L1812.17 680.506L1812.17 680.507L1812.17 680.507L1812.17 680.507L1812.17 680.507L1812.18 680.507L1812.18 680.507L1812.18 680.508L1812.18 680.508L1812.18 680.508L1812.18 680.508L1812.18 680.508L1812.18 680.508L1812.18 680.509L1812.18 680.509L1812.18 680.509L1812.18 680.509L1812.18 680.509L1812.18 680.509L1812.18 680.509L1812.18 680.51L1812.18 680.51L1812.18 680.51L1812.18 680.51L1812.18 680.51L1812.18 680.51L1812.18 680.511L1812.18 680.511L1812.18 680.511L1812.18 680.511L1812.18 680.511L1812.19 680.511L1812.19 680.511L1812.19 680.512L1812.19 680.512L1812.19 680.512L1812.19 680.512L1812.19 680.512L1812.19 680.512L1812.19 680.513L1812.19 680.513L1812.19 680.513L1812.19 680.513L1812.19 680.513L1812.19 680.513L1812.19 680.513L1812.19 680.514L1812.19 680.514L1812.19 680.514L1812.19 680.514L1812.19 680.514L1812.19 680.514L1812.19 680.515L1812.19 680.515L1812.19 680.515L1812.19 680.515L1812.19 680.515L1812.19 680.515L1812.2 680.515L1812.2 680.516L1812.2 680.516L1812.2 680.516L1812.2 680.516L1812.2 680.516L1812.2 680.516L1812.2 680.517L1812.2 680.517L1812.2 680.517L1812.2 680.517L1812.2 680.517L1812.2 680.517L1812.2 680.517L1812.2 680.518L1812.2 680.518L1812.2 680.518L1812.2 680.518L1812.2 680.518L1812.2 680.518L1812.2 680.519L1812.2 680.519L1812.2 680.519L1812.2 680.519L1812.2 680.519L1812.2 680.519L1812.21 680.52L1812.21 680.52L1812.21 680.52L1812.21 680.52L1812.21 680.52L1812.21 680.52L1812.21 680.52L1812.21 680.521L1812.21 680.521L1812.21 680.521L1812.21 680.521L1812.21 680.521L1812.21 680.521L1812.21 680.522L1812.21 680.522L1812.21 680.522L1812.21 680.522L1812.21 680.522L1812.21 680.522L1812.21 680.522L1812.21 680.523L1812.21 680.523L1812.21 680.523L1812.21 680.523L1812.21 680.523L1812.21 680.523L1812.22 680.524L1812.22 680.524L1812.22 680.524L1812.22 680.524L1812.22 680.524L1812.22 680.524L1812.22 680.525L1812.22 680.525L1812.22 680.525L1812.22 680.525L1812.22 680.525L1812.22 680.525L1812.22 680.526L1812.22 680.526L1812.22 680.526L1812.22 680.526L1812.22 680.526L1812.22 680.526L1812.22 680.526L1812.22 680.527L1812.22 680.527L1812.22 680.527L1812.22 680.527L1812.22 680.527L1812.22 680.527L1812.22 680.528L1812.23 680.528L1812.23 680.528L1812.23 680.528L1812.23 680.528L1812.23 680.528L1812.23 680.529L1812.23 680.529L1812.23 680.529L1812.23 680.529L1812.23 680.529L1812.23 680.529L1812.23 680.529L1812.23 680.53L1812.23 680.53L1812.23 680.53L1812.23 680.53L1812.23 680.53L1812.23 680.53L1812.23 680.531L1812.23 680.531L1812.23 680.531L1812.23 680.531L1812.23 680.531L1812.23 680.531L1812.23 680.532L1812.23 680.532L1812.24 680.532L1812.24 680.532L1812.24 680.532L1812.24 680.532L1812.24 680.533L1812.24 680.533L1812.24 680.533L1812.24 680.533L1812.24 680.533L1812.24 680.533L1812.24 680.534L1812.24 680.534L1812.24 680.534L1812.24 680.534L1812.24 680.534L1812.24 680.534L1812.24 680.534L1812.24 680.535L1812.24 680.535L1812.24 680.535L1812.24 680.535L1812.24 680.535L1812.24 680.535L1812.24 680.536L1812.24 680.536L1812.25 680.536L1812.25 680.536L1812.25 680.536L1812.25 680.536L1812.25 680.537L1812.25 680.537L1812.25 680.537L1812.25 680.537L1812.25 680.537L1812.25 680.537L1812.25 680.538L1812.25 680.538L1812.25 680.538L1812.25 680.538L1812.25 680.538L1812.25 680.538L1812.25 680.539L1812.25 680.539L1812.25 680.539L1812.25 680.539L1812.25 680.539L1812.25 680.539L1812.25 680.54L1812.25 680.54L1812.25 680.54L1812.26 680.54L1812.26 680.54L1812.26 680.54L1812.26 680.541L1812.26 680.541L1812.26 680.541L1812.26 680.541L1812.26 680.541L1812.26 680.541L1812.26 680.541L1812.26 680.542L1812.26 680.542L1812.26 680.542L1812.26 680.542L1812.26 680.542L1812.26 680.542L1812.26 680.543L1812.26 680.543L1812.26 680.543L1812.26 680.543L1812.26 680.543L1812.26 680.543L1812.26 680.544L1812.26 680.544L1812.26 680.544L1812.27 680.544L1812.27 680.544L1812.27 680.544L1812.27 680.545L1812.27 680.545L1812.27 680.545L1812.27 680.545L1812.27 680.545L1812.27 680.545L1812.27 680.546L1812.27 680.546L1812.27 680.546L1812.27 680.546L1812.27 680.546L1812.27 680.546L1812.27 680.547L1812.27 680.547L1812.27 680.547L1812.27 680.547L1812.27 680.547L1812.27 680.547L1812.27 680.548L1812.27 680.548L1812.27 680.548L1812.27 680.548L1812.28 680.548L1812.28 680.548L1812.28 680.549L1812.28 680.549L1812.28 680.549L1812.28 680.549L1812.28 680.549L1812.28 680.549L1812.28 680.55L1812.28 680.55L1812.28 680.55L1812.28 680.55L1812.28 680.55L1812.28 680.55L1812.28 680.551L1812.28 680.551L1812.28 680.551L1812.28 680.551L1812.28 680.551L1812.28 680.551L1812.28 680.551L1812.28 680.552L1812.28 680.552L1812.28 680.552L1812.28 680.552L1812.29 680.552L1812.29 680.552L1812.29 680.553L1812.29 680.553L1812.29 680.553L1812.29 680.553L1812.29 680.553L1812.29 680.553L1812.29 680.554L1812.29 680.554L1812.29 680.554L1812.29 680.554L1812.29 680.554L1812.29 680.554L1812.29 680.555L1812.29 680.555L1812.29 680.555L1812.29 680.555L1812.29 680.555L1812.29 680.555L1812.29 680.556L1812.29 680.556L1812.29 680.556L1812.29 680.556L1812.29 680.556L1812.3 680.556L1812.3 680.557L1812.3 680.557L1812.3 680.557L1812.3 680.557L1812.3 680.557L1812.3 680.557L1812.3 680.558L1812.3 680.558L1812.3 680.558L1812.3 680.558L1812.3 680.558L1812.3 680.558L1812.3 680.559L1812.3 680.559L1812.3 680.559L1812.3 680.559L1812.3 680.559L1812.3 680.559L1812.3 680.56L1812.3 680.56L1812.3 680.56L1812.3 680.56L1812.3 680.56L1812.3 680.56L1812.31 680.561L1812.31 680.561L1812.31 680.561L1812.31 680.561L1812.31 680.561L1812.31 680.561L1812.31 680.562L1812.31 680.562L1812.31 680.562L1812.31 680.562L1812.31 680.562L1812.31 680.562L1812.31 680.563L1812.31 680.563L1812.31 680.563L1812.31 680.563L1812.31 680.563L1812.31 680.563L1812.31 680.564L1812.31 680.564L1812.31 680.564L1812.31 680.564L1812.31 680.564L1812.31 680.564L1812.31 680.564L1812.32 680.565L1812.32 680.565L1812.32 680.565L1812.32 680.565L1812.32 680.565L1812.32 680.565L1812.32 680.566L1812.32 680.566L1812.32 680.566L1812.32 680.566L1812.32 680.566L1812.32 680.566L1812.32 680.567L1812.32 680.567L1812.32 680.567L1812.32 680.567L1812.32 680.567L1812.32 680.567L1812.32 680.568L1812.32 680.568L1812.32 680.568L1812.32 680.568L1812.32 680.568L1812.32 680.568L1812.32 680.569L1812.33 680.569L1812.33 680.569L1812.33 680.569L1812.33 680.569L1812.33 680.569L1812.33 680.57L1812.33 680.57L1812.33 680.57L1812.33 680.57L1812.33 680.57L1812.33 680.57L1812.33 680.571L1812.33 680.571L1812.33 680.571L1812.33 680.571L1812.33 680.571L1812.33 680.571L1812.33 680.572L1812.33 680.572L1812.33 680.572L1812.33 680.572L1812.33 680.572L1812.33 680.572L1812.33 680.573L1812.33 680.573L1812.34 680.573L1812.34 680.573L1812.34 680.573L1812.34 680.573L1812.34 680.573L1812.34 680.574L1812.34 680.574L1812.34 680.574L1812.34 680.574L1812.34 680.574L1812.34 680.574L1812.34 680.575L1812.34 680.575L1812.34 680.575L1812.34 680.575L1812.34 680.575L1812.34 680.575L1812.34 680.576L1812.34 680.576L1812.34 680.576L1812.34 680.576L1812.34 680.576L1812.34 680.576L1812.34 680.577L1812.34 680.577L1812.35 680.577L1812.35 680.577L1812.35 680.577L1812.35 680.577L1812.35 680.578L1812.35 680.578L1812.35 680.578L1812.35 680.578L1812.35 680.578L1812.35 680.578L1812.35 680.579L1812.35 680.579L1812.35 680.579L1812.35 680.579L1812.35 680.579L1812.35 680.579L1812.35 680.579L1812.35 680.58L1812.35 680.58L1812.35 680.58L1812.35 680.58L1812.35 680.58L1812.35 680.58L1812.35 680.581L1812.35 680.581L1812.35 680.581L1812.36 680.581L1812.36 680.581L1812.36 680.581L1812.36 680.582L1812.36 680.582L1812.36 680.582L1812.36 680.582L1812.36 680.582L1812.36 680.582L1812.36 680.583L1812.36 680.583L1812.36 680.583L1812.36 680.583L1812.36 680.583L1812.36 680.583L1812.36 680.583L1812.36 680.584L1812.36 680.584L1812.36 680.584L1812.36 680.584L1812.36 680.584L1812.36 680.584L1812.36 680.585L1812.36 680.585L1812.36 680.585L1812.37 680.585L1812.37 680.585L1812.37 680.585L1812.37 680.586L1812.37 680.586L1812.37 680.586L1812.37 680.586L1812.37 680.586L1812.37 680.586L1812.37 680.587L1812.37 680.587L1812.37 680.587L1812.37 680.587L1812.37 680.587L1812.37 680.587L1812.37 680.587L1812.37 680.588L1812.37 680.588L1812.37 680.588L1812.37 680.588L1812.37 680.588L1812.37 680.588L1812.37 680.589L1812.37 680.589L1812.37 680.589L1812.37 680.589L1812.38 680.589L1812.38 680.589L1812.38 680.59L1812.38 680.59L1812.38 680.59L1812.38 680.59L1812.38 680.59L1812.38 680.59L1812.38 680.59L1812.38 680.591L1812.38 680.591L1812.38 680.591L1812.38 680.591L1812.38 680.591L1812.38 680.591L1812.38 680.592L1812.38 680.592L1812.38 680.592L1812.38 680.592L1812.38 680.592L1812.38 680.592L1812.38 680.593L1812.38 680.593L1812.38 680.593L1812.38 680.593L1812.38 680.593L1812.38 680.593L1812.39 680.593L1812.39 680.594L1812.39 680.594L1812.39 680.594L1812.39 680.594L1812.39 680.594L1812.39 680.594L1812.39 680.595L1812.39 680.595L1812.39 680.595L1812.39 680.595L1812.39 680.595L1812.39 680.595L1812.39 680.595L1812.39 680.596L1812.39 680.596L1812.39 680.596L1812.39 680.596L1812.39 680.596L1812.39 680.596L1812.39 680.597L1812.39 680.597L1812.39 680.597L1812.39 680.597Z" stroke="#8B8686" stroke-width="1.39559"/>
<path d="M1842.37 677.564C1843.86 678.308 1844.87 679.863 1845.21 681.888C1845.56 683.911 1845.23 686.345 1844.1 688.691C1842.97 691.037 1841.29 692.798 1839.51 693.765C1837.73 694.732 1835.9 694.882 1834.41 694.138C1832.91 693.394 1831.91 691.839 1831.56 689.814C1831.22 687.79 1831.55 685.356 1832.67 683.01C1833.8 680.665 1835.48 678.904 1837.26 677.937C1839.05 676.969 1840.87 676.82 1842.37 677.564Z" stroke="#8B8686" stroke-width="1.39559"/>
<path d="M1832.66 658.581C1834.15 659.325 1835.16 660.88 1835.5 662.905C1835.85 664.929 1835.52 667.363 1834.39 669.709C1833.26 672.054 1831.58 673.815 1829.8 674.782C1828.01 675.75 1826.19 675.899 1824.7 675.155C1823.2 674.411 1822.19 672.856 1821.85 670.831C1821.51 668.808 1821.84 666.374 1822.96 664.028C1824.09 661.682 1825.77 659.921 1827.55 658.954C1829.34 657.987 1831.16 657.837 1832.66 658.581Z" stroke="#8B8686" stroke-width="1.39559"/>
<path d="M1796.17 668.042C1795.38 670.527 1793.96 672.515 1792.33 673.73C1790.7 674.946 1788.92 675.357 1787.34 674.838C1785.75 674.318 1784.54 672.925 1783.92 670.97C1783.29 669.017 1783.28 666.559 1784.07 664.074C1784.86 661.588 1786.28 659.6 1787.9 658.386C1789.53 657.17 1791.32 656.758 1792.9 657.278C1794.48 657.797 1795.69 659.19 1796.32 661.145C1796.94 663.098 1796.96 665.556 1796.17 668.042Z" stroke="#8B8686" stroke-width="1.39559"/>
<path d="M1816.11 661.227C1815.32 663.712 1813.9 665.7 1812.27 666.915C1810.64 668.131 1808.86 668.542 1807.28 668.023C1805.69 667.503 1804.48 666.11 1803.86 664.156C1803.23 662.202 1803.22 659.744 1804.01 657.259C1804.79 654.773 1806.22 652.786 1807.84 651.571C1809.47 650.355 1811.25 649.943 1812.84 650.463C1814.42 650.982 1815.63 652.375 1816.26 654.33C1816.88 656.283 1816.9 658.741 1816.11 661.227Z" stroke="#8B8686" stroke-width="1.39559"/>
<g clip-path="url(#clip2_240_3621)">
<g opacity="0.38">
<path d="M1751.58 471.502C1744.52 467.025 1734.03 464.15 1728.45 459.25C1722.88 454.347 1719.06 447.42 1717.86 440.032C1717.5 437.837 1717.37 435.54 1718.08 433.444C1719.56 429.059 1724.49 426.638 1729.03 426.92C1733.58 427.202 1737.74 429.649 1741.36 432.499C1739.04 428.962 1740.91 423.729 1744.53 421.66C1748.14 419.59 1752.78 420.198 1756.49 422.143C1759.53 423.74 1762.19 426.243 1763.64 429.401C1765.64 433.722 1765.22 438.863 1763.57 443.303C1761.92 447.743 1760.23 451.732 1757.99 458.014C1755.61 463.408 1753.83 467.42 1751.58 471.502Z" fill="#D15E59"/>
</g>
<path d="M1752.66 474.333C1741.61 470.017 1730.28 464.372 1723.67 453.873C1722.08 451.351 1720.82 448.6 1720.03 445.718C1719.23 442.836 1718.85 439.871 1719.29 437.002C1719.69 434.344 1721.03 432.098 1723.28 430.676C1725.35 429.36 1727.95 428.867 1730.37 429.054C1736.67 429.536 1741.6 434.457 1745.63 438.988C1746.07 439.481 1747.05 439.251 1746.92 438.473C1746.49 435.947 1746.26 433.365 1746.47 430.813C1746.66 428.485 1747.18 426.073 1748.5 424.126C1749.9 422.041 1752.08 420.729 1754.57 420.523C1757.32 420.29 1760.09 421.307 1762.24 423.047C1766.74 426.686 1768.45 433.002 1768.1 438.641C1767.7 444.909 1765.08 450.743 1762.43 456.295C1758.92 463.65 1755.36 470.982 1751.83 478.326C1751.42 479.173 1752.74 479.756 1753.15 478.913C1756.5 471.947 1759.86 464.979 1763.21 458.01C1766.05 452.096 1768.95 445.927 1769.49 439.253C1769.97 433.254 1768.33 426.684 1763.83 422.511C1759.59 418.577 1752.65 417.529 1748.4 421.938C1744.15 426.346 1744.57 433.205 1745.49 438.633L1746.78 438.118C1742.89 433.742 1738.35 429.191 1732.49 427.894C1727.39 426.766 1721.17 428.506 1718.8 433.592C1717.52 436.32 1717.52 439.543 1717.91 442.501C1718.34 445.621 1719.31 448.664 1720.69 451.48C1723.54 457.277 1727.97 462.104 1733.11 465.873C1738.9 470.117 1745.47 473.088 1752.1 475.676C1752.96 476.015 1753.53 474.67 1752.66 474.333Z" fill="#D15E59"/>
</g>
</g>
<g opacity="0.5">
<path d="M1742.78 148.546C1740.8 141.94 1741.61 137.396 1737.05 134.937C1737 134.906 1736.93 134.871 1736.88 134.841C1736.82 134.811 1736.76 134.776 1736.7 134.745C1732.16 132.254 1728.74 135.314 1722.25 137.295C1711.66 140.536 1706.39 142.92 1706.36 149.264C1706.33 155.086 1713.65 158.281 1721.28 158.373C1723.3 158.393 1725.21 159.433 1726.35 161.136C1730.6 167.427 1737.04 171.464 1742.07 168.715C1748.27 165.319 1746.01 159.318 1742.77 148.55L1742.78 148.546Z" fill="#D2CAC8"/>
<path d="M1765.5 146.395C1768.12 142.145 1767.8 137.121 1764.76 135.174C1761.73 133.228 1757.14 135.096 1754.51 139.347C1751.88 143.598 1752.21 148.621 1755.24 150.568C1758.28 152.514 1762.87 150.646 1765.5 146.395Z" fill="#D2CAC8"/>
<path d="M1758.47 128.094C1761.1 123.843 1760.77 118.819 1757.74 116.873C1754.7 114.927 1750.11 116.795 1747.48 121.045C1744.86 125.296 1745.18 130.32 1748.22 132.266C1751.25 134.213 1755.84 132.345 1758.47 128.094Z" fill="#D2CAC8"/>
<path d="M1714.23 128.274C1717.5 129.762 1721.78 127.249 1723.79 122.66C1725.8 118.071 1724.77 113.145 1721.49 111.656C1718.22 110.167 1713.94 112.68 1711.93 117.269C1709.92 121.858 1710.95 126.785 1714.23 128.274Z" fill="#D2CAC8"/>
<path d="M1733.09 124.052C1736.36 125.54 1740.64 123.027 1742.65 118.438C1744.66 113.849 1743.63 108.922 1740.35 107.434C1737.08 105.945 1732.8 108.458 1730.79 113.047C1728.79 117.636 1729.81 122.563 1733.09 124.052Z" fill="#D2CAC8"/>
<path d="M1743.56 145.236C1743.99 146.449 1744.47 147.772 1745.09 149.182L1745.07 149.191L1745.37 149.829C1745.65 150.44 1745.93 151.034 1746.2 151.611C1748.28 156.064 1749.9 159.517 1750.48 162.369C1750.81 163.955 1750.8 165.291 1750.41 166.467C1750.01 167.637 1749.21 168.723 1747.83 169.766C1745.7 171.378 1742.97 171.515 1740.05 170.495C1737.14 169.473 1734.11 167.309 1731.52 164.468C1729.94 162.723 1727.61 161.863 1725.3 162.182C1721.47 162.704 1717.63 162.426 1714.69 161.321C1711.75 160.216 1709.81 158.341 1709.44 155.704L1709.44 155.703C1709.23 154.177 1709.37 152.879 1709.83 151.71C1710.29 150.537 1711.09 149.451 1712.26 148.38C1714.62 146.218 1718.38 144.212 1723.58 141.738C1725.2 140.969 1726.61 140.161 1727.87 139.421C1728.02 139.335 1728.17 139.25 1728.31 139.167C1729.4 138.524 1730.38 137.951 1731.32 137.496C1733.41 136.485 1735.22 136.1 1737.5 136.947L1737.5 136.947L1737.5 136.948L1737.5 136.948L1737.5 136.948L1737.51 136.948L1737.51 136.948L1737.51 136.948L1737.51 136.948L1737.51 136.948L1737.51 136.949L1737.51 136.949L1737.51 136.949L1737.51 136.949L1737.51 136.949L1737.51 136.949L1737.51 136.949L1737.51 136.95L1737.51 136.95L1737.51 136.95L1737.51 136.95L1737.51 136.95L1737.51 136.95L1737.51 136.95L1737.51 136.95L1737.51 136.951L1737.51 136.951L1737.51 136.951L1737.51 136.951L1737.51 136.951L1737.51 136.951L1737.51 136.951L1737.52 136.952L1737.52 136.952L1737.52 136.952L1737.52 136.952L1737.52 136.952L1737.52 136.952L1737.52 136.952L1737.52 136.953L1737.52 136.953L1737.52 136.953L1737.52 136.953L1737.52 136.953L1737.52 136.953L1737.52 136.953L1737.52 136.953L1737.52 136.954L1737.52 136.954L1737.52 136.954L1737.52 136.954L1737.52 136.954L1737.52 136.954L1737.52 136.954L1737.52 136.955L1737.52 136.955L1737.52 136.955L1737.52 136.955L1737.52 136.955L1737.53 136.955L1737.53 136.955L1737.53 136.956L1737.53 136.956L1737.53 136.956L1737.53 136.956L1737.53 136.956L1737.53 136.956L1737.53 136.956L1737.53 136.956L1737.53 136.957L1737.53 136.957L1737.53 136.957L1737.53 136.957L1737.53 136.957L1737.53 136.957L1737.53 136.957L1737.53 136.958L1737.53 136.958L1737.53 136.958L1737.53 136.958L1737.53 136.958L1737.53 136.958L1737.53 136.958L1737.53 136.959L1737.53 136.959L1737.53 136.959L1737.54 136.959L1737.54 136.959L1737.54 136.959L1737.54 136.959L1737.54 136.96L1737.54 136.96L1737.54 136.96L1737.54 136.96L1737.54 136.96L1737.54 136.96L1737.54 136.96L1737.54 136.96L1737.54 136.961L1737.54 136.961L1737.54 136.961L1737.54 136.961L1737.54 136.961L1737.54 136.961L1737.54 136.961L1737.54 136.962L1737.54 136.962L1737.54 136.962L1737.54 136.962L1737.54 136.962L1737.54 136.962L1737.54 136.962L1737.55 136.963L1737.55 136.963L1737.55 136.963L1737.55 136.963L1737.55 136.963L1737.55 136.963L1737.55 136.963L1737.55 136.964L1737.55 136.964L1737.55 136.964L1737.55 136.964L1737.55 136.964L1737.55 136.964L1737.55 136.964L1737.55 136.965L1737.55 136.965L1737.55 136.965L1737.55 136.965L1737.55 136.965L1737.55 136.965L1737.55 136.965L1737.55 136.966L1737.55 136.966L1737.55 136.966L1737.55 136.966L1737.55 136.966L1737.56 136.966L1737.56 136.966L1737.56 136.967L1737.56 136.967L1737.56 136.967L1737.56 136.967L1737.56 136.967L1737.56 136.967L1737.56 136.967L1737.56 136.967L1737.56 136.968L1737.56 136.968L1737.56 136.968L1737.56 136.968L1737.56 136.968L1737.56 136.968L1737.56 136.968L1737.56 136.969L1737.56 136.969L1737.56 136.969L1737.56 136.969L1737.56 136.969L1737.56 136.969L1737.56 136.969L1737.56 136.97L1737.56 136.97L1737.57 136.97L1737.57 136.97L1737.57 136.97L1737.57 136.97L1737.57 136.97L1737.57 136.971L1737.57 136.971L1737.57 136.971L1737.57 136.971L1737.57 136.971L1737.57 136.971L1737.57 136.971L1737.57 136.972L1737.57 136.972L1737.57 136.972L1737.57 136.972L1737.57 136.972L1737.57 136.972L1737.57 136.972L1737.57 136.973L1737.57 136.973L1737.57 136.973L1737.57 136.973L1737.57 136.973L1737.57 136.973L1737.57 136.973L1737.58 136.974L1737.58 136.974L1737.58 136.974L1737.58 136.974L1737.58 136.974L1737.58 136.974L1737.58 136.974L1737.58 136.975L1737.58 136.975L1737.58 136.975L1737.58 136.975L1737.58 136.975L1737.58 136.975L1737.58 136.975L1737.58 136.976L1737.58 136.976L1737.58 136.976L1737.58 136.976L1737.58 136.976L1737.58 136.976L1737.58 136.976L1737.58 136.977L1737.58 136.977L1737.58 136.977L1737.58 136.977L1737.58 136.977L1737.59 136.977L1737.59 136.977L1737.59 136.978L1737.59 136.978L1737.59 136.978L1737.59 136.978L1737.59 136.978L1737.59 136.978L1737.59 136.978L1737.59 136.979L1737.59 136.979L1737.59 136.979L1737.59 136.979L1737.59 136.979L1737.59 136.979L1737.59 136.979L1737.59 136.98L1737.59 136.98L1737.59 136.98L1737.59 136.98L1737.59 136.98L1737.59 136.98L1737.59 136.98L1737.59 136.981L1737.59 136.981L1737.59 136.981L1737.6 136.981L1737.6 136.981L1737.6 136.981L1737.6 136.981L1737.6 136.982L1737.6 136.982L1737.6 136.982L1737.6 136.982L1737.6 136.982L1737.6 136.982L1737.6 136.982L1737.6 136.983L1737.6 136.983L1737.6 136.983L1737.6 136.983L1737.6 136.983L1737.6 136.983L1737.6 136.983L1737.6 136.984L1737.6 136.984L1737.6 136.984L1737.6 136.984L1737.6 136.984L1737.6 136.984L1737.6 136.984L1737.6 136.985L1737.61 136.985L1737.61 136.985L1737.61 136.985L1737.61 136.985L1737.61 136.985L1737.61 136.985L1737.61 136.986L1737.61 136.986L1737.61 136.986L1737.61 136.986L1737.61 136.986L1737.61 136.986L1737.61 136.986L1737.61 136.987L1737.61 136.987L1737.61 136.987L1737.61 136.987L1737.61 136.987L1737.61 136.987L1737.61 136.987L1737.61 136.988L1737.61 136.988L1737.61 136.988L1737.61 136.988L1737.61 136.988L1737.61 136.988L1737.62 136.988L1737.62 136.989L1737.62 136.989L1737.62 136.989L1737.62 136.989L1737.62 136.989L1737.62 136.989L1737.62 136.989L1737.62 136.99L1737.62 136.99L1737.62 136.99L1737.62 136.99L1737.62 136.99L1737.62 136.99L1737.62 136.99L1737.62 136.991L1737.62 136.991L1737.62 136.991L1737.62 136.991L1737.62 136.991L1737.62 136.991L1737.62 136.991L1737.62 136.992L1737.62 136.992L1737.62 136.992L1737.63 136.992L1737.63 136.992L1737.63 136.992L1737.63 136.992L1737.63 136.993L1737.63 136.993L1737.63 136.993L1737.63 136.993L1737.63 136.993L1737.63 136.993L1737.63 136.993L1737.63 136.994L1737.63 136.994L1737.63 136.994L1737.63 136.994L1737.63 136.994L1737.63 136.994L1737.63 136.994L1737.63 136.995L1737.63 136.995L1737.63 136.995L1737.63 136.995L1737.63 136.995L1737.63 136.995L1737.63 136.995L1737.63 136.996L1737.64 136.996L1737.64 136.996L1737.64 136.996L1737.64 136.996L1737.64 136.996L1737.64 136.996L1737.64 136.997L1737.64 136.997L1737.64 136.997L1737.64 136.997L1737.64 136.997L1737.64 136.997L1737.64 136.997L1737.64 136.998L1737.64 136.998L1737.64 136.998L1737.64 136.998L1737.64 136.998L1737.64 136.998L1737.64 136.998L1737.64 136.999L1737.64 136.999L1737.64 136.999L1737.64 136.999L1737.64 136.999L1737.64 136.999L1737.65 136.999L1737.65 136.999L1737.65 137L1737.65 137L1737.65 137L1737.65 137L1737.65 137L1737.65 137L1737.65 137L1737.65 137.001L1737.65 137.001L1737.65 137.001L1737.65 137.001L1737.65 137.001L1737.65 137.001L1737.65 137.001L1737.65 137.002L1737.65 137.002L1737.65 137.002L1737.65 137.002L1737.65 137.002L1737.65 137.002L1737.65 137.002L1737.65 137.003L1737.65 137.003L1737.65 137.003L1737.66 137.003L1737.66 137.003L1737.66 137.003L1737.66 137.003L1737.66 137.004L1737.66 137.004L1737.66 137.004L1737.66 137.004L1737.66 137.004L1737.66 137.004L1737.66 137.004L1737.66 137.005L1737.66 137.005L1737.66 137.005L1737.66 137.005L1737.66 137.005L1737.66 137.005L1737.66 137.005L1737.66 137.006L1737.66 137.006L1737.66 137.006L1737.66 137.006L1737.66 137.006L1737.66 137.006L1737.66 137.006L1737.66 137.006L1737.66 137.007L1737.67 137.007L1737.67 137.007L1737.67 137.007L1737.67 137.007L1737.67 137.007L1737.67 137.007L1737.67 137.008L1737.67 137.008L1737.67 137.008L1737.67 137.008L1737.67 137.008L1737.67 137.008L1737.67 137.008L1737.67 137.009L1737.67 137.009L1737.67 137.009L1737.67 137.009L1737.67 137.009L1737.67 137.009L1737.67 137.009L1737.67 137.01L1737.67 137.01L1737.67 137.01L1737.67 137.01L1737.67 137.01L1737.67 137.01L1737.68 137.01L1737.68 137.01L1737.68 137.011L1737.68 137.011L1737.68 137.011L1737.68 137.011L1737.68 137.011L1737.68 137.011L1737.68 137.011L1737.68 137.012L1737.68 137.012L1737.68 137.012L1737.68 137.012L1737.68 137.012L1737.68 137.012L1737.68 137.012L1737.68 137.013L1737.68 137.013L1737.68 137.013L1737.68 137.013L1737.68 137.013L1737.68 137.013L1737.68 137.013L1737.68 137.013L1737.68 137.014L1737.68 137.014L1737.68 137.014L1737.69 137.014L1737.69 137.014L1737.69 137.014L1737.69 137.014L1737.69 137.015L1737.69 137.015L1737.69 137.015L1737.69 137.015L1737.69 137.015L1737.69 137.015L1737.69 137.015L1737.69 137.016L1737.69 137.016L1737.69 137.016L1737.69 137.016L1737.69 137.016L1737.69 137.016L1737.69 137.016L1737.69 137.016L1737.69 137.017L1737.69 137.017L1737.69 137.017L1737.69 137.017L1737.69 137.017L1737.69 137.017L1737.69 137.017L1737.69 137.018L1737.69 137.018L1737.7 137.018L1737.7 137.018L1737.7 137.018L1737.7 137.018L1737.7 137.018L1737.7 137.018L1737.7 137.019L1737.7 137.019L1737.7 137.019L1737.7 137.019L1737.7 137.019L1737.7 137.019L1737.7 137.019L1737.7 137.02L1737.7 137.02L1737.7 137.02L1737.7 137.02L1737.7 137.02L1737.7 137.02L1737.7 137.02L1737.7 137.02L1737.7 137.021L1737.7 137.021L1737.7 137.021L1737.7 137.021L1737.7 137.021L1737.7 137.021L1737.71 137.021L1737.71 137.022L1737.71 137.022L1737.71 137.022L1737.71 137.022L1737.71 137.022L1737.71 137.022L1737.71 137.022L1737.71 137.023L1737.71 137.023L1737.71 137.023L1737.71 137.023L1737.71 137.023L1737.71 137.023L1737.71 137.023L1737.71 137.023L1737.71 137.024L1737.71 137.024L1737.71 137.024L1737.71 137.024L1737.71 137.024L1737.71 137.024L1737.71 137.024L1737.71 137.025L1737.71 137.025L1737.71 137.025L1737.71 137.025L1737.72 137.025L1737.72 137.025L1737.72 137.025L1737.72 137.025L1737.72 137.026L1737.72 137.026L1737.72 137.026L1737.72 137.026L1737.72 137.026L1737.72 137.026L1737.72 137.026L1737.72 137.027L1737.72 137.027L1737.72 137.027L1737.72 137.027L1737.72 137.027L1737.72 137.027L1737.72 137.027L1737.72 137.028L1737.72 137.028L1737.72 137.028L1737.72 137.028L1737.72 137.028L1737.72 137.028L1737.72 137.028L1737.72 137.029L1737.72 137.029L1737.73 137.029L1737.73 137.029L1737.73 137.029L1737.73 137.029L1737.73 137.029L1737.73 137.029L1737.73 137.03L1737.73 137.03L1737.73 137.03L1737.73 137.03L1737.73 137.03L1737.73 137.03L1737.73 137.03L1737.73 137.031L1737.73 137.031L1737.73 137.031L1737.73 137.031L1737.73 137.031L1737.73 137.031L1737.73 137.031L1737.73 137.032L1737.73 137.032L1737.73 137.032L1737.73 137.032L1737.73 137.032L1737.73 137.032L1737.73 137.032L1737.74 137.033L1737.74 137.033L1737.74 137.033L1737.74 137.033L1737.74 137.033L1737.74 137.033L1737.74 137.033L1737.74 137.034L1737.74 137.034L1737.74 137.034L1737.74 137.034L1737.74 137.034L1737.74 137.034L1737.74 137.034L1737.74 137.034L1737.74 137.035L1737.74 137.035L1737.74 137.035L1737.74 137.035L1737.74 137.035L1737.74 137.035L1737.74 137.035L1737.74 137.036L1737.74 137.036L1737.74 137.036L1737.74 137.036L1737.75 137.036L1737.75 137.036L1737.75 137.036L1737.75 137.037L1737.75 137.037L1737.75 137.037L1737.75 137.037L1737.75 137.037L1737.75 137.037L1737.75 137.037L1737.75 137.038L1737.75 137.038L1737.75 137.038L1737.75 137.038L1737.75 137.038L1737.75 137.038L1737.75 137.038L1737.75 137.039L1737.75 137.039L1737.75 137.039L1737.75 137.039L1737.75 137.039L1737.75 137.039L1737.75 137.039L1737.75 137.04L1737.75 137.04L1737.76 137.04L1737.76 137.04L1737.76 137.04L1737.76 137.04L1737.76 137.04L1737.76 137.041L1737.76 137.041L1737.76 137.041L1737.76 137.041L1737.76 137.041L1737.76 137.041L1737.76 137.041L1737.76 137.042L1737.76 137.042L1737.76 137.042L1737.76 137.042L1737.76 137.042L1737.76 137.042L1737.76 137.042L1737.76 137.043L1737.76 137.043L1737.76 137.043L1737.76 137.043L1737.76 137.043L1737.76 137.043L1737.76 137.043L1737.77 137.044L1737.77 137.044L1737.77 137.044L1737.77 137.044L1737.77 137.044L1737.77 137.044L1737.77 137.044L1737.77 137.045L1737.77 137.045L1737.77 137.045L1737.77 137.045L1737.77 137.045L1737.77 137.045L1737.77 137.045L1737.77 137.046L1737.77 137.046L1737.77 137.046L1737.77 137.046L1737.77 137.046L1737.77 137.046L1737.77 137.046L1737.77 137.047L1737.77 137.047L1737.77 137.047L1737.77 137.047L1737.77 137.047L1737.78 137.047L1737.78 137.047L1737.78 137.047L1737.78 137.048L1737.78 137.048L1737.78 137.048L1737.78 137.048L1737.78 137.048L1737.78 137.048L1737.78 137.048L1737.78 137.049L1737.78 137.049L1737.78 137.049L1737.78 137.049L1737.78 137.049L1737.78 137.049L1737.78 137.049L1737.78 137.05L1737.78 137.05L1737.78 137.05L1737.78 137.05L1737.78 137.05L1737.78 137.05L1737.78 137.05L1737.78 137.051L1737.78 137.051L1737.79 137.051L1737.79 137.051L1737.79 137.051L1737.79 137.051L1737.79 137.051L1737.79 137.052L1737.79 137.052L1737.79 137.052L1737.79 137.052L1737.79 137.052L1737.79 137.052L1737.79 137.052L1737.79 137.053L1737.79 137.053L1737.79 137.053L1737.79 137.053L1737.79 137.053L1737.79 137.053L1737.79 137.053L1737.79 137.054L1737.79 137.054L1737.79 137.054L1737.79 137.054L1737.79 137.054L1737.79 137.054L1737.8 137.054L1737.8 137.055L1737.8 137.055L1737.8 137.055L1737.8 137.055L1737.8 137.055L1737.8 137.055L1737.8 137.055L1737.8 137.056L1737.8 137.056L1737.8 137.056L1737.8 137.056L1737.8 137.056L1737.8 137.056L1737.8 137.056L1737.8 137.057L1737.8 137.057L1737.8 137.057L1737.8 137.057L1737.8 137.057L1737.8 137.057L1737.8 137.057L1737.8 137.058L1737.8 137.058L1737.8 137.058L1737.8 137.058L1737.81 137.058L1737.81 137.058L1737.81 137.058L1737.81 137.059L1737.81 137.059L1737.81 137.059L1737.81 137.059L1737.81 137.059L1737.81 137.059L1737.81 137.059L1737.81 137.06L1737.81 137.06L1737.81 137.06L1737.81 137.06L1737.81 137.06L1737.81 137.06L1737.81 137.06L1737.81 137.061L1737.81 137.061L1737.81 137.061L1737.81 137.061L1737.81 137.061L1737.81 137.061L1737.81 137.061L1737.81 137.062L1737.81 137.062L1737.82 137.062L1737.82 137.062L1737.82 137.062L1737.82 137.062L1737.82 137.062L1737.82 137.063L1737.82 137.063L1737.82 137.063L1737.82 137.063L1737.82 137.063L1737.82 137.063L1737.82 137.063L1737.82 137.064L1737.82 137.064L1737.82 137.064L1737.82 137.064L1737.82 137.064L1737.82 137.064L1737.82 137.064L1737.82 137.065L1737.82 137.065L1737.82 137.065L1737.82 137.065L1737.82 137.065L1737.82 137.065L1737.82 137.065L1737.83 137.066L1737.83 137.066L1737.83 137.066L1737.83 137.066L1737.83 137.066L1737.83 137.066L1737.83 137.066L1737.83 137.067L1737.83 137.067L1737.83 137.067L1737.83 137.067L1737.83 137.067L1737.83 137.067L1737.83 137.067L1737.83 137.068L1737.83 137.068L1737.83 137.068L1737.83 137.068L1737.83 137.068L1737.83 137.068L1737.83 137.068L1737.83 137.069L1737.83 137.069L1737.83 137.069L1737.83 137.069L1737.83 137.069L1737.84 137.069L1737.84 137.069L1737.84 137.07L1737.84 137.07L1737.84 137.07L1737.84 137.07L1737.84 137.07L1737.84 137.07L1737.84 137.07L1737.84 137.071L1737.84 137.071L1737.84 137.071L1737.84 137.071L1737.84 137.071L1737.84 137.071L1737.84 137.071L1737.84 137.072L1737.84 137.072L1737.84 137.072L1737.84 137.072L1737.84 137.072L1737.84 137.072L1737.84 137.072L1737.84 137.073L1737.84 137.073L1737.84 137.073L1737.85 137.073L1737.85 137.073L1737.85 137.073L1737.85 137.073L1737.85 137.074L1737.85 137.074L1737.85 137.074L1737.85 137.074L1737.85 137.074L1737.85 137.074L1737.85 137.074L1737.85 137.074L1737.85 137.075L1737.85 137.075L1737.85 137.075L1737.85 137.075L1737.85 137.075L1737.85 137.075L1737.85 137.075L1737.85 137.076L1737.85 137.076L1737.85 137.076L1737.85 137.076L1737.85 137.076L1737.85 137.076L1737.85 137.076L1737.86 137.077L1737.86 137.077L1737.86 137.077L1737.86 137.077L1737.86 137.077L1737.86 137.077L1737.86 137.077L1737.86 137.078L1737.86 137.078L1737.86 137.078L1737.86 137.078L1737.86 137.078L1737.86 137.078L1737.86 137.078L1737.86 137.079L1737.86 137.079L1737.86 137.079L1737.86 137.079L1737.86 137.079L1737.86 137.079L1737.86 137.079L1737.86 137.08L1737.86 137.08L1737.86 137.08L1737.86 137.08L1737.86 137.08L1737.86 137.08L1737.87 137.08L1737.87 137.08L1737.87 137.081L1737.87 137.081L1737.87 137.081L1737.87 137.081L1737.87 137.081L1737.87 137.081L1737.87 137.081L1737.87 137.082L1737.87 137.082L1737.87 137.082L1737.87 137.082L1737.87 137.082L1737.87 137.082L1737.87 137.082L1737.87 137.083L1737.87 137.083L1737.87 137.083L1737.87 137.083L1737.87 137.083L1737.87 137.083L1737.87 137.083L1737.87 137.083L1737.87 137.084L1737.87 137.084L1737.88 137.084L1737.88 137.084L1737.88 137.084L1737.88 137.084L1737.88 137.084L1737.88 137.085L1737.88 137.085L1737.88 137.085L1737.88 137.085L1737.88 137.085L1737.88 137.085L1737.88 137.085L1737.88 137.086L1737.88 137.086L1737.88 137.086L1737.88 137.086L1737.88 137.086L1737.88 137.086L1737.88 137.086L1737.88 137.086L1737.88 137.087L1737.88 137.087L1737.88 137.087L1737.88 137.087L1737.88 137.087L1737.88 137.087L1737.88 137.087L1737.88 137.088L1737.89 137.088L1737.89 137.088L1737.89 137.088L1737.89 137.088L1737.89 137.088L1737.89 137.088L1737.89 137.089L1737.89 137.089L1737.89 137.089L1737.89 137.089L1737.89 137.089L1737.89 137.089L1737.89 137.089L1737.89 137.089L1737.89 137.09L1737.89 137.09L1737.89 137.09L1737.89 137.09L1737.89 137.09L1737.89 137.09L1737.89 137.09L1737.89 137.091C1740.17 137.919 1741.27 139.386 1742.19 141.515C1742.58 142.413 1742.93 143.408 1743.31 144.52C1743.39 144.753 1743.48 144.992 1743.56 145.236Z" stroke="#8B8686" stroke-width="1.39559"/>
<path d="M1766.31 133.094C1767.76 133.747 1768.77 135.184 1769.17 137.088C1769.57 138.992 1769.35 141.309 1768.37 143.57C1767.38 145.831 1765.85 147.555 1764.2 148.53C1762.54 149.506 1760.82 149.709 1759.38 149.056C1757.93 148.402 1756.92 146.966 1756.52 145.061C1756.12 143.157 1756.34 140.841 1757.33 138.58C1758.31 136.319 1759.84 134.594 1761.49 133.619C1763.15 132.643 1764.87 132.441 1766.31 133.094Z" stroke="#8B8686" stroke-width="1.39559"/>
<path d="M1756.41 115.388C1757.86 116.041 1758.87 117.478 1759.27 119.382C1759.67 121.286 1759.45 123.603 1758.46 125.864C1757.48 128.125 1755.95 129.849 1754.3 130.824C1752.64 131.8 1750.92 132.003 1749.48 131.35C1748.03 130.696 1747.02 129.26 1746.62 127.355C1746.22 125.451 1746.44 123.135 1747.42 120.874C1748.41 118.613 1749.94 116.888 1751.59 115.913C1753.25 114.937 1754.97 114.735 1756.41 115.388Z" stroke="#8B8686" stroke-width="1.39559"/>
<path d="M1722.05 125.667C1721.4 128.047 1720.12 129.976 1718.62 131.18C1717.12 132.385 1715.45 132.835 1713.92 132.396C1712.4 131.958 1711.2 130.681 1710.54 128.854C1709.87 127.027 1709.77 124.701 1710.42 122.321C1711.08 119.94 1712.35 118.011 1713.85 116.807C1715.35 115.602 1717.03 115.153 1718.55 115.591C1720.07 116.029 1721.27 117.306 1721.94 119.134C1722.6 120.96 1722.71 123.286 1722.05 125.667Z" stroke="#8B8686" stroke-width="1.39559"/>
<path d="M1740.78 118.462C1740.12 120.842 1738.85 122.771 1737.35 123.975C1735.85 125.18 1734.18 125.629 1732.65 125.191C1731.13 124.753 1729.93 123.476 1729.27 121.649C1728.6 119.822 1728.5 117.496 1729.15 115.115C1729.81 112.735 1731.08 110.806 1732.58 109.602C1734.08 108.397 1735.76 107.948 1737.28 108.386C1738.8 108.824 1740 110.101 1740.67 111.929C1741.33 113.755 1741.43 116.081 1740.78 118.462Z" stroke="#8B8686" stroke-width="1.39559"/>
</g>
<path d="M64.813 333.452C66.0928 330.577 74.5511 328.666 73.8013 323.586C73.0514 318.506 67.9349 316.611 64.3944 317.788C62.099 318.551 61.4953 320.009 57.9933 321.35C56.6505 321.864 55.1602 321.815 53.8537 321.213L26.5274 308.622C25.2209 308.02 24.2016 306.913 23.696 305.547C22.3769 301.983 23.0551 300.561 22.1047 298.303C20.6386 294.819 15.8625 292.156 11.6152 294.933C7.36784 297.711 11.5356 305.439 10.2558 308.314L9.75073 309.449C8.47094 312.324 0.0125833 314.235 0.762464 319.315C1.51234 324.395 6.62882 326.29 10.1693 325.113C12.4647 324.35 13.0684 322.892 16.5704 321.551C17.9132 321.037 19.4035 321.086 20.71 321.688L48.0363 334.279C49.3428 334.881 50.3621 335.988 50.8678 337.354C52.1868 340.918 51.5086 342.34 52.459 344.598C53.9252 348.082 58.6997 350.745 62.947 347.967C67.1943 345.19 63.0265 337.461 64.3063 334.586L64.8114 333.451L64.813 333.452Z" fill="#D2CAC8"/>
<path d="M1708.58 944.8C1706.82 942.203 1709.56 933.835 1704.9 931.874C1700.24 929.913 1696.01 933.404 1695.18 937.101C1694.64 939.498 1695.55 940.776 1694.88 944.523C1694.62 945.96 1693.81 947.236 1692.63 948.067L1667.96 965.44C1666.78 966.27 1665.33 966.59 1663.92 966.328C1660.24 965.645 1659.39 964.321 1657 963.988C1653.31 963.474 1648.61 966.272 1648.76 971.41C1648.91 976.548 1657.57 976.888 1659.33 979.486L1660.02 980.511C1661.78 983.109 1659.04 991.477 1663.7 993.437C1668.36 995.398 1672.59 991.907 1673.42 988.21C1673.96 985.814 1673.05 984.536 1673.72 980.789C1673.98 979.351 1674.79 978.076 1675.97 977.245L1700.64 959.872C1701.82 959.041 1703.27 958.721 1704.68 958.983C1708.36 959.667 1709.21 960.991 1711.6 961.324C1715.29 961.838 1719.99 959.04 1719.84 953.903C1719.69 948.765 1711.03 948.424 1709.27 945.827L1708.58 944.801L1708.58 944.8Z" fill="#D2CAC8"/>
<path d="M95.4386 817.486C95.6127 815.755 99.7044 813.25 98.4383 810.729C97.1723 808.207 94.1723 808.128 92.5244 809.374C91.4561 810.182 91.3915 811.051 89.7919 812.376C89.1787 812.884 88.3914 813.124 87.605 813.042L71.157 811.329C70.3707 811.247 69.6474 810.85 69.1481 810.226C67.8455 808.599 67.9552 807.735 67.0699 806.724C65.7042 805.164 62.7498 804.623 61.008 806.831C59.2662 809.039 62.7742 812.336 62.6001 814.066L62.5314 814.749C62.3573 816.48 58.2656 818.985 59.5317 821.507C60.7977 824.028 63.7977 824.107 65.4456 822.861C66.5139 822.054 66.5785 821.184 68.178 819.86C68.7913 819.352 69.5786 819.112 70.365 819.194L86.8129 820.906C87.5993 820.988 88.3225 821.385 88.8219 822.009C90.1245 823.637 90.0148 824.501 90.9001 825.512C92.2658 827.071 95.2193 827.613 96.9611 825.404C98.7029 823.196 95.1948 819.9 95.3689 818.169L95.4376 817.486L95.4386 817.486Z" fill="#D2CAC8"/>
<defs>
<clipPath id="clip0_240_3621">
<rect width="52.0557" height="50.258" fill="white" transform="matrix(0.971194 -0.212189 0.206545 0.984423 116.722 525.542)"/>
</clipPath>
<clipPath id="clip1_240_3621">
<rect width="52.1056" height="50.2125" fill="white" transform="matrix(0.807523 0.588751 -0.574712 0.819173 1736 1141.59)"/>
</clipPath>
<clipPath id="clip2_240_3621">
<rect width="67.2343" height="65.5963" fill="white" transform="matrix(0.925329 -0.370714 0.364585 0.934532 1708.02 430.681)"/>
</clipPath>
</defs>
</svg>
