<svg width="336" height="204" viewBox="0 0 336 204" fill="none" xmlns="http://www.w3.org/2000/svg">
<g opacity="0.5">
<ellipse cx="26.7907" cy="196.978" rx="26.7907" ry="5.84033" fill="#D2CAC8"/>
<ellipse cx="170.791" cy="196.978" rx="26.7907" ry="5.84033" fill="#D2CAC8"/>
<ellipse cx="213.209" cy="196.978" rx="26.7907" ry="5.84033" fill="#D2CAC8"/>
<ellipse cx="309.209" cy="196.978" rx="26.7907" ry="5.84033" fill="#D2CAC8"/>
</g>
<g clip-path="url(#clip0_224_1146)">
<path d="M194.333 182.096L189.801 184.464C188.45 185.17 186.865 185.292 185.442 184.793C182.115 183.641 180.899 179.696 182.992 176.866C195.879 162.202 205.267 144.968 210.463 126.443L210.742 125.45L237.008 134.566C229.211 154.885 214.008 171.822 194.333 182.091V182.096Z" fill="#A86243"/>
<path d="M290.562 183.912L293.721 187.039C294.664 187.968 295.976 188.478 297.332 188.436C300.502 188.34 302.701 185.393 301.758 182.516C295.116 167.076 292.214 150.415 293.252 133.765L293.308 132.873L268.264 133.643C268.906 152.449 276.848 170.357 290.562 183.917V183.912Z" fill="#A86243"/>
<path d="M203.922 126.172C203.922 126.172 193.529 116.982 207.639 108.604C207.639 108.604 182.406 107.17 186.927 125.217C190.37 138.968 256.225 155.278 256.225 155.278L203.922 126.178V126.172Z" fill="#EB9669"/>
<path d="M211.038 188.282L207.371 192.269C206.277 193.458 204.72 194.133 203.09 194.133C199.278 194.133 196.521 190.575 197.537 186.976C204.882 167.618 207.689 146.884 205.758 126.321L205.652 125.217H229.769L249.243 125.456C249.243 148.753 226.956 170.984 211.038 188.282Z" fill="#EB9669"/>
<path d="M249.243 125.456C249.243 148.753 226.956 170.984 211.038 188.282" stroke="#2C2721" stroke-width="2" stroke-linecap="round" stroke-linejoin="round"/>
<path d="M303.901 181.443L308.93 184.432C310.426 185.324 312.251 185.569 313.948 185.107C317.911 184.029 319.702 179.654 317.554 176.309C304.035 158.846 294.821 138.713 290.59 117.407L290.361 116.265L260.065 128.195C267.137 151.711 282.095 168.494 303.901 181.454V181.443Z" fill="#EB9669"/>
<path d="M202.795 124.68L293.085 116.26L295.038 108.688L304.052 108.922C308.523 108.593 309.076 110.945 310.091 115.102C310.56 117.03 312.586 118.224 314.612 117.778L324.274 115.638L325.719 121.548C326.517 124.813 324.385 128.073 320.953 128.832L304.996 132.363C296.668 154.636 268.873 163.938 247.719 151.535L237.433 145.504L223.038 146.56C213.89 147.229 205.903 140.72 205.2 132.018L202.8 124.686L202.795 124.68Z" fill="#EB9669"/>
<path d="M299.336 143.051L305.342 134.832L289.133 116.26L275.805 117.709L299.336 143.051Z" fill="#5BB2CA"/>
<path d="M317.804 117.046L324.273 115.614L324.955 118.401L321.411 119.186C319.796 119.543 318.176 118.588 317.799 117.047L317.804 117.046Z" fill="#2C2721"/>
<path d="M295.038 108.688C299.604 108.354 302.997 112.612 301.429 116.706C298.275 124.935 291.751 136.191 279.483 137.163C262.666 138.49 284.668 116.525 291.092 110.414C292.153 109.405 293.548 108.8 295.044 108.688H295.038Z" fill="#2C2721"/>
<path d="M307.145 117.912C307.55 117.822 307.726 117.124 307.537 116.353C307.349 115.582 306.867 115.03 306.462 115.119C306.057 115.209 305.881 115.907 306.07 116.678C306.258 117.449 306.74 118.001 307.145 117.912Z" fill="#2C2721"/>
<path d="M103.725 81.0743C103.725 81.0743 88.0465 125.471 78.9377 135.326C69.8289 145.18 28.0075 169.21 28.0075 169.21C28.0075 169.21 22.8112 162.446 19.8754 158.236L64.9898 124.627C64.9898 124.627 65.7489 88.7411 81.5777 77.9312L103.73 81.0743H103.725Z" fill="#1090B4"/>
<path d="M103.725 81.0744C103.725 81.0744 129.606 124.059 133.507 130.154C140.936 141.755 160.158 186.222 160.158 186.222C160.158 186.222 152.009 191.058 146.534 189.742L112.895 136.165C112.895 136.165 58.1749 93.9232 81.9238 76.4712L103.725 81.0797V81.0744Z" fill="#5BB2CA"/>
<path d="M146.534 189.742L112.895 136.165C112.895 136.165 58.1749 93.9232 81.9238 76.4712" stroke="#2C2721" stroke-width="2" stroke-linecap="round" stroke-linejoin="round"/>
<path d="M158.16 181.56C158.16 181.56 163.596 184.215 168.547 183.105C173.498 181.995 186.14 178.99 191.208 183.216L153.55 203.143L146.009 188.393L158.16 181.555V181.56Z" fill="#295756"/>
<path d="M28.0075 169.21C28.0075 169.21 25.6577 174.573 27.2149 179.181C28.7722 183.79 32.9247 195.534 28.9005 200.679L5.02332 166.561L19.8754 158.236L28.0075 169.21Z" fill="#2F4F4D"/>
<path d="M104.573 23.9561L100.722 38.1268L93.5387 36.2154V23.9561H104.573Z" fill="#FFDAA4"/>
<path d="M110.858 16.2732C109.54 15.1529 108.608 13.6451 108.385 11.9779C107.325 4.02445 99.5777 -0.61065 89.6595 2.06528C83.1461 3.81738 80.3107 9.36038 82.1526 15.5564C82.6158 19.0819 89.5647 27.0407 92.9358 27.0884C96.6028 27.1415 107.671 25.6602 108.904 25.4107C110.138 25.1611 109.217 18.8695 109.217 18.8695L111.215 18.158C111.807 17.9457 111.957 17.213 111.483 16.8095L110.858 16.2732Z" fill="#FFDAA4"/>
<path d="M93.5387 33.6404C99.868 33.6404 115.194 44.3069 114.218 52.9719C112.571 67.5355 103.73 81.0745 103.73 81.0745L78.0112 78.2074C78.0112 78.2074 81.0419 64.8543 81.4884 54.0391C81.9349 43.2291 83.107 33.6457 93.5387 33.6404Z" fill="#B2C3C5"/>
<path d="M127.557 80.2779C127.557 80.2779 133.741 79.2797 135.768 80.3522C137.794 81.4194 137.375 84.4033 136.778 85.4864C135.784 87.2969 135.555 88.5658 132.614 88.5446C129.232 88.518 125.124 85.1678 125.124 85.1678L127.557 80.2726V80.2779Z" fill="#FFDAA4"/>
<path d="M95.2243 34.0703C102.692 36.2153 103.256 42.2521 104.166 65.7567L127.552 80.2726L125.118 85.1679C125.118 85.1679 100.248 83.7503 90.0001 69.2185C80.255 55.3981 81.1759 30.0352 95.2243 34.0703Z" fill="#B2C3C5"/>
<path d="M125.124 85.1679C125.124 85.1679 100.253 83.7503 90.0056 69.2185C80.2605 55.3981 81.1814 30.0352 95.2298 34.0703" stroke="#2C2721" stroke-width="2" stroke-linecap="round" stroke-linejoin="round"/>
<path d="M107.693 7.52333C107.609 6.85435 107.403 6.22784 107.124 5.64911C106.086 3.4935 103.987 1.98032 101.604 1.2901C96.0056 -0.32926 82.9284 -2.61761 79.3228 9.8807C75.2373 24.0568 75.2094 32.8173 55.7805 45.7828C51.2652 48.7985 53.4921 55.5574 59.0066 55.5574H75.7842C78.201 55.5574 80.5173 54.5964 82.1303 52.8868C86.2159 48.5543 91.3173 42.3105 93.5387 36.2153C96.1452 29.0635 99.8847 16.7139 102.162 9.00996L107.693 7.52333Z" fill="#2C2721"/>
<path d="M105.594 15.1159C105.977 15.1159 106.287 14.5264 106.287 13.7992C106.287 13.0719 105.977 12.4824 105.594 12.4824C105.212 12.4824 104.902 13.0719 104.902 13.7992C104.902 14.5264 105.212 15.1159 105.594 15.1159Z" fill="#2C2721"/>
<path d="M104.238 20.3191C104.238 20.3191 105.394 23.2977 108.329 20.7173" stroke="#2C2721" stroke-width="0.73" stroke-linecap="round" stroke-linejoin="round"/>
<path d="M99.053 21.041C100.36 21.041 101.42 19.5078 101.42 17.6165C101.42 15.7251 100.36 14.1919 99.053 14.1919C97.746 14.1919 96.6865 15.7251 96.6865 17.6165C96.6865 19.5078 97.746 21.041 99.053 21.041Z" fill="#FFDAA4"/>
<path d="M98.255 25.6761C100.003 25.6761 101.42 24.3283 101.42 22.6657C101.42 21.0031 100.003 19.6553 98.255 19.6553C96.5072 19.6553 95.0903 21.0031 95.0903 22.6657C95.0903 24.3283 96.5072 25.6761 98.255 25.6761Z" fill="white"/>
<path d="M132.614 88.5446C132.614 88.5446 131.654 82.8317 135.768 80.3522C142.052 76.556 152.64 80.8673 156.821 93.339C161.358 106.867 167.33 118.766 173.275 126.735C180.022 135.788 194.947 137.003 197.035 131.168C200.607 121.181 170.462 120.459 168.614 135.878C166.772 151.302 207.154 158.262 228.943 141.246C270.631 108.688 286.448 116.982 286.448 116.982" stroke="#2C2721" stroke-width="2" stroke-linecap="round" stroke-linejoin="round"/>
<path d="M306.949 140.619C308.235 140.103 308.655 138.278 307.886 136.544C307.118 134.809 305.451 133.821 304.165 134.337C302.878 134.853 302.458 136.678 303.227 138.412C303.996 140.147 305.662 141.135 306.949 140.619Z" fill="#FFB54A"/>
<path d="M309.209 125.456C309.209 125.456 310.811 129.077 317.213 129.655" stroke="#2C2721" stroke-width="2" stroke-linecap="round" stroke-linejoin="round"/>
<path d="M53.3582 42.3372C53.3582 42.3372 74.5396 33.5395 79.3228 9.88086" stroke="#2C2721" stroke-width="2" stroke-linecap="round" stroke-linejoin="round"/>
</g>
<defs>
<clipPath id="clip0_224_1146">
<rect width="320.863" height="203.148" fill="white" transform="translate(5.02332)"/>
</clipPath>
</defs>
</svg>
