<svg width="1343" height="667" viewBox="0 0 1343 667" fill="none" xmlns="http://www.w3.org/2000/svg">
<path d="M1324.84 343.337L1324.84 343.337C1333.26 376.788 1340.16 423.551 1335.99 457.555C1333.3 479.461 1327.66 500.447 1314.55 519.342C1301.45 538.226 1280.8 555.172 1247.84 568.813C1181.82 596.138 1066.75 610.08 865.348 599.927C821.187 597.699 777.062 595.044 732.927 592.389C712.98 591.189 693.031 589.989 673.076 588.828L407.886 573.382C345.209 569.726 282.112 565.964 222.255 547.872C162.417 529.786 105.373 495.766 71.4705 443.321C32.5499 383.091 28.9747 302.722 57.4542 236.719C85.9318 170.721 144.205 119.562 211.373 94.5227L211.374 94.5225C262.695 75.3763 318.135 70.6905 373.074 67.4183L372.97 65.6652L373.075 67.4183C630.965 52.0415 881.742 64.7252 1126.84 146.288C1164.77 158.915 1202.78 173.593 1232.64 199.725C1277.27 238.782 1310.33 285.813 1324.84 343.337Z" fill="white" stroke="#5BB2CA" stroke-width="3.51231"/>
<path opacity="0.1" d="M1303.88 282.861L1303.88 282.86C1315.37 315.283 1326.6 361.079 1325.66 395.262C1325.05 417.285 1321.42 438.677 1310.19 458.711C1298.97 478.732 1280.08 497.555 1248.67 514.28C1185.76 547.78 1072.94 572.707 872.234 582.003C828.224 584.041 784.209 585.65 740.185 587.26C720.29 587.987 700.394 588.715 680.495 589.482L548.261 594.571L416.027 599.66C353.52 602.06 290.588 604.396 229.524 592.183C168.48 579.974 108.712 551.665 70.1662 502.825C25.9126 446.733 14.8246 367.231 36.8768 298.916C58.9275 230.606 111.922 174.172 176.189 142.831L176.189 142.831C225.292 118.87 279.838 108.879 334.02 100.341L333.751 98.6054L334.02 100.341C588.355 60.2426 838.268 48.7077 1089.01 106.151C1127.82 115.045 1166.89 125.969 1198.96 149.056C1246.88 183.564 1284.09 227.106 1303.88 282.861Z" fill="#5BB2CA" stroke="#5BB2CA" stroke-width="3.51231"/>
</svg>
