<svg width="134" height="139" viewBox="0 0 134 139" fill="none" xmlns="http://www.w3.org/2000/svg">
<circle cx="67" cy="67.9819" r="67" fill="#D3B2A9"/>
<g clip-path="url(#clip0_642_4592)">
<path d="M66.5 24.6152C47.2444 24.6152 31.6334 40.2262 31.6334 59.4818C31.6334 78.7374 47.2431 94.3484 66.5 94.3484C85.7569 94.3484 101.367 78.7387 101.367 59.4818C101.367 40.2249 85.7556 24.6152 66.5 24.6152ZM66.5 84.0043C52.9559 84.0043 41.9775 73.0247 41.9775 59.4818C41.9775 45.9389 52.9571 34.9594 66.5 34.9594C80.0429 34.9594 91.0225 45.9389 91.0225 59.4818C91.0225 73.0247 80.0429 84.0043 66.5 84.0043V84.0043Z" fill="#D2CAC8"/>
<path d="M73.9309 31.8189H59.0691L61.4189 13.9819H71.5811L73.9309 31.8189Z" fill="#262647"/>
<path d="M71.5811 104.982H61.4189L59.0691 87.145H73.9309L71.5811 104.982Z" fill="#262647"/>
<path d="M76.2794 31.8189H56.7206L61.4189 13.9819H71.5811L76.2794 31.8189Z" fill="#D2CAC8"/>
<path d="M71.5811 104.982H61.4189L56.7206 87.145H76.2794L71.5811 104.982Z" fill="#D2CAC8"/>
<path d="M94.1631 69.2615V49.7026L112 54.401V64.5632L94.1631 69.2615Z" fill="#D2CAC8"/>
<path d="M21 64.5632V54.401L38.8369 49.7026V69.2615L21 64.5632Z" fill="#D2CAC8"/>
<path d="M92.74 46.41L78.9091 32.5791L94.8447 23.2886L102.031 30.4744L92.74 46.41Z" fill="#D2CAC8"/>
<path d="M37.9197 95.2479L30.7339 88.0621L40.0244 72.1265L53.8554 85.9574L37.9197 95.2479Z" fill="#D2CAC8"/>
<path d="M53.8554 33.0063L40.0244 46.8372L30.7339 30.9016L37.9197 23.7158L53.8554 33.0063Z" fill="#D2CAC8"/>
<path d="M102.266 88.0621L95.0803 95.2479L79.1446 85.9574L92.9756 72.1265L102.266 88.0621Z" fill="#D2CAC8"/>
<path d="M66.5 57.4985H52.8485V69.0138H66.5V57.4985Z" fill="#4E4E81"/>
<path d="M80.1515 57.4985H66.5V69.0138H80.1515V57.4985Z" fill="#262647"/>
<path d="M45.2698 54.9463L66.5 62.0942L67.1493 47.9639L45.2698 54.9463Z" fill="#7575B5"/>
<path d="M67.1493 47.9639L66.5 62.0942L89.0302 54.9463L67.1493 47.9639Z" fill="#4E4E81"/>
<path d="M48.9562 56.188V62.775" stroke="#4C4C68" stroke-miterlimit="10"/>
<path d="M49.0535 66.8357C50.1747 66.8357 51.0836 65.9268 51.0836 64.8056C51.0836 63.6843 50.1747 62.7754 49.0535 62.7754C47.9322 62.7754 47.0233 63.6843 47.0233 64.8056C47.0233 65.9268 47.9322 66.8357 49.0535 66.8357Z" fill="#262647"/>
</g>
<g clip-path="url(#clip1_642_4592)">
<path d="M68 126L64.3021 123.269C54.8947 116.318 42.7566 113.523 31 115.6V74.6705C42.7576 72.5948 54.8947 75.39 64.3021 82.3393L68 85.0708V126Z" fill="#D9F1EB"/>
<path d="M68 126L71.598 123.269C80.7511 116.318 92.5611 113.523 104 115.6V74.6705C92.5602 72.5948 80.7511 75.39 71.598 82.3393L68 85.0708V126Z" fill="white"/>
<path d="M65.4735 131.713C65.4735 131.713 43.5657 125.901 22 127.952V82.2414L28.5039 81.417V118.378C28.5039 118.378 50.4117 113.592 65.4735 131.713Z" fill="#262647"/>
<path d="M69.5265 131.713C69.5265 131.713 91.4343 125.901 113 127.952V82.2414L106.496 81.417V118.378C106.496 118.378 84.5883 113.592 69.5265 131.713Z" fill="#262647"/>
<path d="M70.2367 134.569C69.4275 134.909 68.5031 135.102 67.5212 135.102C66.5392 135.102 65.5806 134.901 64.7615 134.551L57.2486 133.049C58.5852 136.494 62.6788 139 67.5212 139C72.3635 139 76.4256 136.512 77.7784 133.089L70.2367 134.569Z" fill="#262647"/>
</g>
<defs>
<clipPath id="clip0_642_4592">
<rect width="91" height="91" fill="white" transform="translate(21 13.9819)"/>
</clipPath>
<clipPath id="clip1_642_4592">
<rect width="91" height="65" fill="white" transform="translate(22 74)"/>
</clipPath>
</defs>
</svg>
